<svg id="Layer_1" data-name="Layer 1" xmlns="http://www.w3.org/2000/svg" width="16" height="16" viewBox="0 0 16 16"><defs><style>.cls-1{fill:#0089d9;fill-rule:evenodd;}</style></defs><path class="cls-1" d="M5.9,4.7,8.8,7.6,5.9,10.5a.49.49,0,0,0,.7.7L9.8,8c.1-.1.1-.2.1-.4a.6.6,0,0,0-.1-.4L6.6,4c-.2-.2-.6-.2-.7,0A.48.48,0,0,0,5.9,4.7Zm-6,2.8A7.55,7.55,0,0,0,7.4,15a7.55,7.55,0,0,0,7.5-7.5A7.55,7.55,0,0,0,7.4,0,7.55,7.55,0,0,0-.1,7.5Zm1,0A6.49,6.49,0,0,1,7.4,1,6.57,6.57,0,0,1,14,7.5,6.57,6.57,0,0,1,7.4,14,6.49,6.49,0,0,1,.9,7.5Z"/></svg>