<svg id="Layer_1" data-name="Layer 1" xmlns="http://www.w3.org/2000/svg" width="24" height="24" viewBox="0 0 24 24"><defs><style>.cls-1{fill:#0089d9;fill-rule:evenodd;}</style></defs><g id="Play"><path class="cls-1" d="M15.73,11.29a.62.62,0,0,0-.28-.17l-4.4-3.86A1,1,0,0,0,10.21,7H10A1,1,0,0,0,9,8v8a1,1,0,0,0,1,1,.86.86,0,0,0,.27-.05,1,1,0,0,0,.9-.21l4.3-3.87a.56.56,0,0,0,.26-.17,1,1,0,0,0,.23-.6.42.42,0,0,0,0-.1h0A1,1,0,0,0,15.73,11.29ZM11,14.51V9.56L13.78,12ZM12,0A12,12,0,1,0,24,12,12,12,0,0,0,12,0Zm0,22A10,10,0,1,1,22,12,10,10,0,0,1,12,22Z"/></g></svg>