<svg id="Layer_1" data-name="Layer 1" xmlns="http://www.w3.org/2000/svg" width="16" height="16" viewBox="0 0 16 16"><defs><style>.cls-1{fill:#0089d9;fill-rule:evenodd;}</style></defs><g id="Archive_Document" data-name="Archive Document"><g id="Normal"><path class="cls-1" d="M10.5,0H1V16H14V3.5ZM13,15H2V1H5V2H3V3H5V4H3V5H5V6H8V5H6V4H8V3H6V2H8V1H9V5h4ZM10,4V1l3,3ZM4,7a35.4,35.4,0,0,0-1,5,2.29,2.29,0,0,0,2.5,2A2.29,2.29,0,0,0,8,12,35.4,35.4,0,0,0,7,7c0-.67-.2-1-1.5-1S4,6.33,4,7Zm1.5,3A1.5,1.5,0,1,1,4,11.5,1.5,1.5,0,0,1,5.5,10Z"/></g></g></svg>