<svg id="Layer_1" data-name="Layer 1" xmlns="http://www.w3.org/2000/svg" width="16" height="16" viewBox="0 0 16 16"><defs><style>.cls-1{fill:#0089d9;fill-rule:evenodd;}</style></defs><g id="Attach"><path class="cls-1" d="M14.4,1.1C12.8-.5,11.6-.2,10,1.4L2.8,8.6c-2.3,2.4-2.3,4-.4,5.9s3.6,2,6-.3l6.4-6.4L14,7,7.6,13.4c-1.4,1.4-2.5,2.2-4.4.3s-1-2.9.4-4.3l7.2-7.2c.8-.8,1.6-1.6,2.8-.3s.4,1.9-.4,2.7L6.8,11c-.8.8-1.6,0-.8-.8l6.4-6.4L11.6,3,5.2,9.4c-.8.8-1.2,2-.4,2.8s2,.4,2.8-.4L14,5.4C15.6,3.8,16,2.7,14.4,1.1Z"/></g></svg>