<svg id="Layer_3" data-name="Layer 3" xmlns="http://www.w3.org/2000/svg" width="16" height="16" viewBox="0 0 16 16"><defs><style>.cls-1{fill:#0089d9;}</style></defs><path class="cls-1" d="M7.4,1.5A1.58,1.58,0,0,0,5.8,3.1v.5H4.7V3.1A2.69,2.69,0,0,1,7.4.4H8.5a2.69,2.69,0,0,1,2.7,2.7v.5H10.1V3.1A1.58,1.58,0,0,0,8.5,1.5ZM1.6,4.1A1.58,1.58,0,0,0,0,5.7V9.9a1.19,1.19,0,0,0,.5.9v3.3a1.58,1.58,0,0,0,1.6,1.6H13.8a1.58,1.58,0,0,0,1.6-1.6V10.8a.81.81,0,0,0,.5-.9V5.7a1.58,1.58,0,0,0-1.6-1.6ZM6.4,9.9V8.8a.47.47,0,0,0-.5-.5H5.4V5.6H4.3V8.3H3.8a.47.47,0,0,0-.5.5V9.9H1.2V5.7a.47.47,0,0,1,.5-.5H14.4a.47.47,0,0,1,.5.5V9.9H12.8V8.8a.47.47,0,0,0-.5-.5h-.5V5.6H10.7V8.3h-.5a.47.47,0,0,0-.5.5V9.9ZM2.1,14.7a.47.47,0,0,1-.5-.5V10.5H3.2a1.47,1.47,0,0,0,1.6,1.6,1.47,1.47,0,0,0,1.6-1.6H9.6a1.47,1.47,0,0,0,1.6,1.6,1.47,1.47,0,0,0,1.6-1.6h1.6v3.7a.47.47,0,0,1-.5.5Zm2.1-4.2V9.4H5.3v1.1a.47.47,0,0,1-.5.5A.56.56,0,0,1,4.2,10.5Zm6.9.5a.47.47,0,0,1-.5-.5V9.4h1.1v1.1C11.7,10.8,11.5,11,11.1,11Z"/></svg>