<svg id="Layer_1" data-name="Layer 1" xmlns="http://www.w3.org/2000/svg" width="37" height="16" viewBox="0 0 37 16"><defs><style>.cls-1{fill:#0089d9;fill-rule:evenodd;}</style></defs><g id="Comment"><path class="cls-1" d="M33,0H25a4,4,0,0,0-4,4V8a4,4,0,0,0,4,4c.7,0,1,2.7,1,4h1c0-2,2.4-4,3.3-4H33a4,4,0,0,0,4-4V4A4,4,0,0,0,33,0ZM27,7H25V5h2Zm3,0H28V5h2Zm3,0H31V5h2Z"/><path class="cls-1" d="M9,5H7v.9H7V7H9V6H9ZM6,5H4v.9H4V7H6V6H6Zm6,0H10v.9h0V7h2V6h0Zm0-5H4A4,4,0,0,0,0,4V8a4,4,0,0,0,4,4c.7,0,1,2.7,1,4H6c0-2,2.4-4,3.3-4H12a4,4,0,0,0,4-4V4A4,4,0,0,0,12,0Zm3,8a2.9,2.9,0,0,1-2.8,3H9a3.2,3.2,0,0,0-3,2,1.8,1.8,0,0,0-1.57-2A1.55,1.55,0,0,0,4,11,2.9,2.9,0,0,1,1,8.2V4A2.9,2.9,0,0,1,3.8,1H12a2.9,2.9,0,0,1,3,2.8V8Z"/></g></svg>