<svg id="Layer_1" data-name="Layer 1" xmlns="http://www.w3.org/2000/svg" width="16" height="16" viewBox="0 0 16 16"><defs><style>.cls-1{fill:#0089d9;fill-rule:evenodd;}</style></defs><g id="Dislike"><path class="cls-1" d="M15.3,0H14V9h1.3C16.4,8.4,16,.7,15.3,0ZM.1,5.8c0,.8.6.8.6,1.2S.2,7.9.4,8.7s.6.6,1.1.7,3.1-.1,3.8.4-.4,1.7-.4,3.5,1.5,3.5,3.4,2.2a3.49,3.49,0,0,1,.5-3.2c.9-3,2.7-3.4,4.2-4.3V1C10.4,1,9,.2,7.2.1A13.59,13.59,0,0,0,2.5.6C1.4.8,1.7,1.7,1.4,2.2s-.8.3-1,1,.3.7.3,1.2S.1,5,.1,5.8Zm1.8-1c.1-.5-.5-.8-.3-1.2s.9-.2,1.1-.7-.3-1.3.7-1.5A14.1,14.1,0,0,1,7,1c1.4.1,3,1,5,1V7c-1.4.6-3.8,2-4.1,4.8a3.66,3.66,0,0,0-.8,2.9c-1-.1-1.3-1.5-.8-2.6s.9-2.3.2-2.9-3-.7-3.5-.8-1.1-.1-1.2-.3.1-.9,0-1.2-.7-.6-.7-1S1.9,5.3,1.9,4.8Z"/></g></svg>