<svg id="Layer_2" data-name="Layer 2" xmlns="http://www.w3.org/2000/svg" width="16" height="16" viewBox="0 0 16 16"><defs><style>.cls-1{fill:#0089d9;}</style></defs><path class="cls-1" d="M8.4,9.9a3.33,3.33,0,0,0,1,0,4.64,4.64,0,0,1-1,2l1.5-1c.8,1.7,5,1.8,5,3.2,0,.9-4.9.9-7,.8-2.1.1-7,.1-7-.8,0-1.5,3.8-1.5,5-3.2l1.5,1a3.79,3.79,0,0,1-1-2,3.33,3.33,0,0,0,1,0,1.93,1.93,0,0,1-1-1c-.3-.6-.6-.3-.5-2-.3.1-.7.1-1-.5-.1-.3-.2-.9,0-1s.5.5.5.5c.5-1.3-.5-1.5-.5-3S6,.9,7.4.9c.9,0,1.9.3,1.9,1.1.5-.1,1.1-.1,1.1.9.1,1.5-.7.9,0,3,.1,0,.1-.7.5-.5.2.1.2.9.1,1.1-.3.7-.8.4-1.1.3.1,1.7-.3,1.5-.5,2A2.11,2.11,0,0,1,8.4,9.9Zm1.9-.8a1.45,1.45,0,0,0,.5-1.3c.7,0,1.1-1.1,1.1-1.7,0-.8-.5-1.1-.7-1.1s.3-.9.3-1.8-.1-1.9-1.3-1.8C8.9-.7,4-.3,4,3.1A4.45,4.45,0,0,0,4.5,5C4,5,4,5.7,4,6.1c0,.7.3,1.7,1,1.7a1.61,1.61,0,0,0,.7,1.4,1.67,1.67,0,0,1,0,1,.25.25,0,0,0-.4.1,11.24,11.24,0,0,1-2.4,1.5c-1.5.7-3,.9-3,2.9.1,1.4,4.4,1.4,7.9,1.4h0c3.5,0,7.9,0,7.9-1.3,0-2.1-1.5-2.3-3-2.9a5.37,5.37,0,0,1-2.3-1.5.6.6,0,0,0-.4-.1C10.1,10.2,9.9,9.5,10.3,9.1Z"/></svg>