<svg id="Layer_1" data-name="Layer 1" xmlns="http://www.w3.org/2000/svg" width="16" height="16" viewBox="0 0 16 16"><defs><style>.cls-1{fill:#0089d9;fill-rule:evenodd;}</style></defs><g id="Favourite"><path class="cls-1" d="M15.7,6.6a.9.9,0,0,0,0-1.27.91.91,0,0,0-.46-.23l-4.6-.4C10.5,4.7,8.8.6,8.7.5A.81.81,0,0,0,8,0a1,1,0,0,0-.8.5L5.4,4.7.7,5.1a.8.8,0,0,0-.81.79A.78.78,0,0,0,.3,6.6l3.5,3c0,.1-1,4.5-1.1,4.5a.9.9,0,0,0,.8,1A.86.86,0,0,0,4,15l4-2.3L12,15a.8.8,0,0,0,1.2-.9l-1-4.5ZM12,13.8c-3.6-2.2-3.8-2.2-4-2.2s-.4,0-4.1,2.2c1-4.2,1-4.2.9-4.5s-.1-.4-3.4-3.1c4.3-.4,4.4-.5,4.6-.6s.3-.4,2-4.4v.2c1.6,4,1.7,4,2,4.2s.3.2,4.5.6C11.3,8.9,11.2,9,11.2,9.3S11.1,9.6,12,13.8ZM5.1,7.2a.39.39,0,0,0-.5,0,.39.39,0,0,0,0,.5l1,.9a.2.2,0,0,0,.4,0,.2.2,0,0,0,0-.4Z"/></g></svg>