<svg id="Layer_1" data-name="Layer 1" xmlns="http://www.w3.org/2000/svg" width="16" height="16" viewBox="0 0 16 16"><defs><style>.cls-1{fill:#0089d9;fill-rule:evenodd;}</style></defs><g id="Graph"><path class="cls-1" d="M16,7A6.7,6.7,0,0,0,9.61,0H9V7ZM10,1.4c2,0,4.7,2.6,4.7,4.6H10Z"/><path class="cls-1" d="M0,9c0,4.1,3.5,7,7.5,7S15,13.1,15,9Zm7.5,6c-4,0-6.2-3.9-6.2-5H13.7C13.7,11.1,11.5,15,7.5,15Z"/><path class="cls-1" d="M7,1A6.7,6.7,0,0,0,0,7.39C0,7.59,0,7.8,0,8H7ZM6,7H1.3C1.3,5,4,2.3,6,2.3Z"/></g></svg>