<svg id="Layer_1" data-name="Layer 1" xmlns="http://www.w3.org/2000/svg" width="16" height="16" viewBox="0 0 16 16"><defs><style>.cls-1{fill:#0089d9;fill-rule:evenodd;}</style></defs><g id="Home"><path class="cls-1" d="M12,2h1V4h1V2h0V1H11V2l1,1Zm1.5,7a.5.5,0,0,0-.5.5V15H10V11.5a.5.5,0,0,0-.5-.5h-3a.5.5,0,0,0-.5.5V15H3V9.5a.5.5,0,0,0-1,0v6a.5.5,0,0,0,.5.5h4a.5.5,0,0,0,.5-.5V12H9v3.5a.5.5,0,0,0,.5.5h4a.5.5,0,0,0,.5-.5v-6A.5.5,0,0,0,13.5,9Zm2.4-.8-7-7.1a.61.61,0,0,0-.8,0v.2c0-.1,0-.1-.1-.2a.5.5,0,0,0-.7,0L.1,8.2a.94.94,0,0,0,0,.7.61.61,0,0,0,.8,0l7-7.1c.1,0,.1-.1.1-.2a.3.3,0,0,1,.1.2l7.1,7.1a.5.5,0,0,0,.8-.6A.47.47,0,0,0,15.9,8.2Z"/></g></svg>