<svg id="Layer_1" data-name="Layer 1" xmlns="http://www.w3.org/2000/svg" width="16" height="16" viewBox="0 0 16 16"><defs><style>.cls-1{fill:#0089d9;fill-rule:evenodd;}</style></defs><g id="Preview"><path class="cls-1" d="M9.2,2.2,8,2H7c-4.1.7-7,5.4-7,5.4S3,12,6.8,12.8L8,13l1.3-.2C13,12,15.9,7.7,16,7.5S13.1,3,9.2,2.2ZM3.5,9.8A24.06,24.06,0,0,1,1.4,7.5,24.06,24.06,0,0,1,3.5,5.2,5.91,5.91,0,0,0,3,7.5,5.54,5.54,0,0,0,3.5,9.8ZM8,12A4.3,4.3,0,0,1,4,7.5,4.3,4.3,0,0,1,8,3a4.3,4.3,0,0,1,4,4.5A4.3,4.3,0,0,1,8,12Zm4.6-2.2A5.81,5.81,0,0,0,13,7.5a8.54,8.54,0,0,0-.4-2.3c1,1,1.7,2,2,2.3S13.6,8.8,12.6,9.8ZM8,5,7,5.2a1.23,1.23,0,0,1,.4.8,1,1,0,0,1-1,1H6.3a1.09,1.09,0,0,1-.7-.3c0,.3-.1.5-.1.8A2.5,2.5,0,0,0,8,10a2.59,2.59,0,0,0,2.6-2.5A2.59,2.59,0,0,0,8,5Z"/></g></svg>