<svg id="Layer_1" data-name="Layer 1" xmlns="http://www.w3.org/2000/svg" width="16" height="16" viewBox="0 0 16 16"><defs><style>.cls-1{fill:#0089d9;fill-rule:evenodd;}</style></defs><g id="Paste"><path class="cls-1" d="M3,10.5a.5.5,0,0,0,.5.5H6V10H3.5A.5.5,0,0,0,3,10.5Zm0-2a.5.5,0,0,0,.5.5H6V8H3.5A.5.5,0,0,0,3,8.5ZM12.6,5H12V2H9V1H7.9C7.8.4,7.3,0,6,0S4.3.4,4.1,1H3V2H0V15H6V14H1V3H2V2H3V4H9V2h1V3h1V4h1V5H7V16h9V8.4ZM13,6.4,14.5,8H13ZM15,15H8V6h4V9h3ZM3,6.5a.5.5,0,0,0,.5.5H6V6H3.5A.5.5,0,0,0,3,6.5Z"/></g></svg>