<svg id="Layer_1" data-name="Layer 1" xmlns="http://www.w3.org/2000/svg" width="16" height="16" viewBox="0 0 16 16"><defs><style>.cls-1{fill:#0089d9;fill-rule:evenodd;}</style></defs><g id="Print"><path class="cls-1" d="M14,3H13V0H3V3H2A2,2,0,0,0,0,5v5a2,2,0,0,0,2,2H3v4h7l3-3V12h1a2,2,0,0,0,2-2V5A2,2,0,0,0,14,3ZM4,1h8V3H4Zm8,12H10v2H4V9h8Zm3-3a.9.9,0,0,1-.79,1H13V8H3v3H2a.9.9,0,0,1-1-.79A.74.74,0,0,1,1,10V5a.9.9,0,0,1,.79-1H14a.9.9,0,0,1,1,.79A.74.74,0,0,1,15,5ZM13,5a1,1,0,1,0,1,1A1,1,0,0,0,13,5Z"/></g></svg>