<svg id="Layer_1" data-name="Layer 1" xmlns="http://www.w3.org/2000/svg" width="16" height="16" viewBox="0 0 16 16"><defs><style>.cls-1,.cls-2{fill:#0089d9;}.cls-1{fill-rule:evenodd;}</style></defs><g id="PDF"><path class="cls-1" d="M10,0H1V16H14V4Zm3,4H10V1Zm0,11H2V1H9V5h4Z"/><path class="cls-2" d="M3,13V7H5.2l.6.6A3.78,3.78,0,0,1,6,8.8a3.07,3.07,0,0,1-.1,1,3.36,3.36,0,0,1-.3.6l-.5.4-.8.2H4v2ZM4,8v2h.9l.3-.4A4.17,4.17,0,0,0,5.3,9a.77.77,0,0,0-.2-.6A.48.48,0,0,0,4.9,8Z"/><path class="cls-2" d="M6,7H8a1,1,0,0,1,.5.6,2.4,2.4,0,0,1,.3.9A6.16,6.16,0,0,1,9,10.1a3.78,3.78,0,0,1-.2,1.2,3,3,0,0,1-.3,1.1l-.5.5H6ZM7,8v4h.6a.2.2,0,0,0,.2-.2c.1-.1.1-.3.2-.6V8.9c-.1-.2-.1-.4-.2-.5s-.1-.3-.2-.3H7Z"/><path class="cls-2" d="M9,13V7h3V8H10v2h1v1H10v2Z"/></g></svg>