<svg id="Layer_1" data-name="Layer 1" xmlns="http://www.w3.org/2000/svg" width="16" height="16" viewBox="0 0 16 16"><defs><style>.cls-1{fill:#0089d9;fill-rule:evenodd;}</style></defs><path class="cls-1" d="M.7,1.7A2.42,2.42,0,0,0,.7,5L4,1.7A2.26,2.26,0,0,0,.7,1.7ZM8,2A7,7,0,0,0,1,9a7,7,0,0,0,7.1,7,7,7,0,0,0,7.1-7A7.19,7.19,0,0,0,8,2ZM8,15a6,6,0,1,1,6-6A6,6,0,0,1,8,15ZM15.3,1.7a2.24,2.24,0,0,0-3.3,0L15.3,5A2.34,2.34,0,0,0,15.3,1.7ZM10.3,6l-2,2H7v2H9V8.7l2-2A.48.48,0,0,0,11,6,.85.85,0,0,0,10.3,6Z"/></svg>