<svg id="Layer_1" data-name="Layer 1" xmlns="http://www.w3.org/2000/svg" width="16" height="16" viewBox="0 0 16 16"><defs><style>.cls-1{fill:#0089d9;fill-rule:evenodd;}</style></defs><g id="Report"><path class="cls-1" d="M15.5,15H1V.5A.5.5,0,0,0,.5,0,.5.5,0,0,0,0,.5v15a.5.5,0,0,0,.5.5h15a.5.5,0,0,0,0-1Z"/><path class="cls-1" d="M3.5,6a.5.5,0,0,1,.5.5v6a.5.5,0,0,1-1,0v-6A.5.5,0,0,1,3.5,6Z"/><path class="cls-1" d="M9.5,5a.5.5,0,0,1,.5.5v7a.5.5,0,0,1-1,0v-7A.5.5,0,0,1,9.5,5Z"/><path class="cls-1" d="M6.5,3a.5.5,0,0,1,.5.5v9a.5.5,0,0,1-1,0v-9A.5.5,0,0,1,6.5,3Z"/><path class="cls-1" d="M12.5,0a.5.5,0,0,1,.5.5v12a.5.5,0,0,1-1,0V.5A.5.5,0,0,1,12.5,0Z"/></g></svg>