<svg id="Layer_1" data-name="Layer 1" xmlns="http://www.w3.org/2000/svg" width="16" height="16" viewBox="0 0 16 16"><defs><style>.cls-1{fill:#0089d9;fill-rule:evenodd;}</style></defs><g id="Unlock"><path class="cls-1" d="M12,7H5V4A2.9,2.9,0,0,1,7.8,1H8a2.9,2.9,0,0,1,3,2.8V4h1A4,4,0,0,0,4,4V7A2,2,0,0,0,2,9v5a2,2,0,0,0,2,2h8a2,2,0,0,0,2-2V9A2,2,0,0,0,12,7Zm1,7a.9.9,0,0,1-.79,1H4a.9.9,0,0,1-1-.79A.74.74,0,0,1,3,14V9a.9.9,0,0,1,.79-1H12a.9.9,0,0,1,1,.79A.74.74,0,0,1,13,9ZM8,9a.9.9,0,0,0-1,.79A.74.74,0,0,0,7,10v1a.9.9,0,0,0,.79,1H8a.9.9,0,0,0,1-.79A.74.74,0,0,0,9,11V10a.9.9,0,0,0-.79-1Z"/></g></svg>