<svg id="user-gender-free" xmlns="http://www.w3.org/2000/svg" width="16" height="16" viewBox="0 0 16 16"><defs><style>.cls-1{fill:#0087e0;}</style></defs><path class="cls-1" d="M9.94,9.19a2.79,2.79,0,0,0,.36,1.52,1.93,1.93,0,0,0,1.27.74,14.47,14.47,0,0,1,1.9.42,2.22,2.22,0,0,1,1,.66,2.35,2.35,0,0,1,.49,1.08,3.29,3.29,0,0,1,.05.54v.13a.87.87,0,0,1,0,.26,1,1,0,0,1-.24.41,2.57,2.57,0,0,1-1,.55,12.23,12.23,0,0,1-1.93.39,30.67,30.67,0,0,1-3.82.21,30.71,30.71,0,0,1-3.82-.23,9.93,9.93,0,0,1-1.94-.42,2,2,0,0,1-1-.71A1.33,1.33,0,0,1,1,14.5c0-.09,0-.22,0-.24V14a3.7,3.7,0,0,1,.09-.55,2.14,2.14,0,0,1,.59-1,2.57,2.57,0,0,1,1-.57c.68-.21,1.31-.26,1.88-.39a2,2,0,0,0,1.28-.74,2.79,2.79,0,0,0,.36-1.52h0a.5.5,0,0,1,.5-.5.51.51,0,0,1,.5.51h0a3.8,3.8,0,0,1-.54,2.09A3,3,0,0,1,4.81,12.4c-.66.15-1.29.21-1.8.37a1.21,1.21,0,0,0-.94.92,2,2,0,0,0-.06.38v.2c0,.06,0,0,0,0a1.57,1.57,0,0,0,.51.27,9.4,9.4,0,0,0,1.74.37,28.34,28.34,0,0,0,3.69.22,30.09,30.09,0,0,0,3.69-.2,10.55,10.55,0,0,0,1.76-.35,1.77,1.77,0,0,0,.62-.3s0,0,0,0v-.08a2.56,2.56,0,0,0,0-.39,1.16,1.16,0,0,0-.84-1,15.05,15.05,0,0,0-1.78-.39,2.91,2.91,0,0,1-1.87-1.15,3.76,3.76,0,0,1-.53-2.08.5.5,0,0,1,.49-.51.49.49,0,0,1,.51.49h0Z"/><path class="cls-1" d="M8,9.1a2.85,2.85,0,0,0,2.25-1.46,6,6,0,0,0,.83-2.85A4.31,4.31,0,0,0,10.44,2,2.83,2.83,0,0,0,8,1,2.83,2.83,0,0,0,5.56,2a4.31,4.31,0,0,0-.64,2.78,6,6,0,0,0,.83,2.85A2.85,2.85,0,0,0,8,9.1Zm0,.8A3.61,3.61,0,0,1,5.08,8.06a6.67,6.67,0,0,1-1-3.22,5.27,5.27,0,0,1,.7-3.36A3.79,3.79,0,0,1,8,0a3.82,3.82,0,0,1,3.18,1.48,5.33,5.33,0,0,1,.7,3.36,6.67,6.67,0,0,1-1,3.22A3.61,3.61,0,0,1,8,9.9Z"/></svg>