<svg id="Layer_1" data-name="Layer 1" xmlns="http://www.w3.org/2000/svg" width="37" height="16" viewBox="0 0 37 16"><defs><style>.cls-1{fill:#0089d9;fill-rule:evenodd;}</style></defs><g id="Unread_Comment" data-name="Unread Comment"><path class="cls-1" d="M35,5a2.9,2.9,0,0,1-3-2.8V2a2.8,2.8,0,0,1,.8-2H25a4,4,0,0,0-4,4V8a4,4,0,0,0,4,4c.7,0,1,2.7,1,4h1c0-2,2.4-4,3.3-4H33a4,4,0,0,0,4-4V4.2A2.8,2.8,0,0,1,35,5ZM27,7H25V5h2Zm3,0H28V5h2Zm3,0H31V5h2Z"/><path class="cls-1" d="M35,0a2,2,0,1,1-2,2A2,2,0,0,1,35,0Z"/><path class="cls-1" d="M16,3.9V5H15V8a2.9,2.9,0,0,1-2.8,3H9a3.2,3.2,0,0,0-3,2,1.8,1.8,0,0,0-1.57-2A1.55,1.55,0,0,0,4,11,2.9,2.9,0,0,1,1,8.2V4A2.9,2.9,0,0,1,3.8,1H11V0H4A4,4,0,0,0,0,4V8a4,4,0,0,0,4,4c.7,0,1,2.7,1,4H6c0-2,2.4-4,3.3-4H12a4,4,0,0,0,4-4V3.9ZM12,7V6h0V5H10v.9h0V7ZM6,7V6H6V5H4v.9H4V7ZM9,7V6H9V5H7v.9H7V7Z"/><path class="cls-1" d="M14,0a2,2,0,1,1-2,2A2,2,0,0,1,14,0Z"/></g></svg>