<svg id="Layer_1" data-name="Layer 1" xmlns="http://www.w3.org/2000/svg" width="16" height="16" viewBox="0 0 16 16"><defs><style>.cls-1{fill:#0089d9;fill-rule:evenodd;}</style></defs><g id="Upload"><path class="cls-1" d="M14,1H1a.9.9,0,0,0-1,.79A.74.74,0,0,0,0,2v8a.9.9,0,0,0,.79,1H5V10H2a.9.9,0,0,1-1-.79A.74.74,0,0,1,1,9V3a.9.9,0,0,1,.79-1A.74.74,0,0,1,2,2H13a.9.9,0,0,1,1,.79A.74.74,0,0,1,14,3V9a.9.9,0,0,1-.79,1H10v1h4a.9.9,0,0,0,1-.79A.74.74,0,0,0,15,10V2a.9.9,0,0,0-.79-1A.74.74,0,0,0,14,1ZM10.9,7.9a.5.5,0,0,0,0-.7L8.1,4.4H7.9c0-.2-.2-.3-.4-.3s-.4.1-.4.3H6.9L4.1,7.2a.5.5,0,1,0,.6.8l.1-.1L7,5.7v8.8a.5.5,0,0,0,1,0V5.7l2.2,2.2A.5.5,0,0,0,10.9,7.9Z"/></g></svg>