<svg id="Layer_1" data-name="Layer 1" xmlns="http://www.w3.org/2000/svg" width="16" height="16" viewBox="0 0 16 16"><defs><style>.cls-1{fill:#0089d9;fill-rule:evenodd;}</style></defs><g id="Zoom_Out" data-name="Zoom Out"><path class="cls-1" d="M15.8,14.8l-2.5-2.6A7,7,0,0,0,15,7.5,7.59,7.59,0,0,0,7.5,0,7.59,7.59,0,0,0,0,7.5,7.59,7.59,0,0,0,7.5,15a8,8,0,0,0,4.8-1.7l2.6,2.5c.2.3.7.2.9,0a.66.66,0,0,0,.13-.94A.12.12,0,0,0,15.8,14.8ZM12.2,12l-.2.2A6.71,6.71,0,0,1,7.5,14,6.5,6.5,0,1,1,14,7.5,6.71,6.71,0,0,1,12.2,12ZM9.5,7h-4a.5.5,0,0,0,0,1h4a.5.5,0,0,0,0-1Z"/></g></svg>