<svg id="Layer_1" data-name="Layer 1" xmlns="http://www.w3.org/2000/svg" width="24" height="24" viewBox="0 0 24 24"><defs><style>.cls-1{fill:#0089d9;fill-rule:evenodd;}</style></defs><g id="Add_comment" data-name="Add comment"><path class="cls-1" d="M18,0H6A6,6,0,0,0,0,6v6a6,6,0,0,0,6,6c1,0,2,3,2,5H9c0-2,1.56-3.51,3-4.33V18.5a6.46,6.46,0,0,1,.41-2.26,5.67,5.67,0,0,0-3.64,3C8.71,17.2,7.77,16,6,16a3.7,3.7,0,0,1-4-3.37A3.32,3.32,0,0,1,2,12V6A3.7,3.7,0,0,1,5.37,2,3.31,3.31,0,0,1,6,2H18a3.7,3.7,0,0,1,4,3.37A3.31,3.31,0,0,1,22,6v6a5.55,5.55,0,0,1-.09,1,6.48,6.48,0,0,1,1.61,1.39A6,6,0,0,0,24,12V6A6,6,0,0,0,18,0ZM5,9A2,2,0,1,0,7,7,2,2,0,0,0,5,9ZM8,9A1,1,0,1,1,7,8,1,1,0,0,1,8,9Zm9-2a2,2,0,1,0,2,2A2,2,0,0,0,17,7Zm0,3a1,1,0,1,1,1-1A1,1,0,0,1,17,10ZM12,7a2,2,0,1,0,2,2A2,2,0,0,0,12,7Zm0,3a1,1,0,1,1,1-1A1,1,0,0,1,12,10Z"/><path class="cls-1" d="M20.5,18H19V16.5a.5.5,0,0,0-1,0V18H16.5a.5.5,0,0,0,0,1H18v1.5a.5.5,0,0,0,1,0V19h1.5a.5.5,0,0,0,0-1Zm-2-5A5.5,5.5,0,1,0,24,18.5,5.5,5.5,0,0,0,18.5,13Zm0,9.56a4.06,4.06,0,1,1,4.06-4.06h0A4.06,4.06,0,0,1,18.5,22.56Z"/></g></svg>