<svg id="Layer_1" data-name="Layer 1" xmlns="http://www.w3.org/2000/svg" width="53" height="24.1" viewBox="0 0 53 24.1"><defs><style>.cls-1,.cls-2{fill:#0089d9;}.cls-2{fill-rule:evenodd;}</style></defs><g id="Alert"><path class="cls-1" d="M8.6,20.4a2.65,2.65,0,0,0,.6-.5,11.57,11.57,0,0,0-4.7-5.1l-.2.1a4.35,4.35,0,0,0-.6.7h0a2.88,2.88,0,0,0-.5,2h0A3.58,3.58,0,0,0,6.6,21h.1a3.53,3.53,0,0,0,1.9-.6ZM23.5.5a1.69,1.69,0,0,0-2.3,0L18.4,3.7a2.09,2.09,0,0,0-2.5,1.7v.1a5,5,0,0,0-5.7,1C7.4,9.3,5.4,11,3.4,11c-1.2,0-2.2-1-3.1-.1a1.68,1.68,0,0,0-.2,1.8A17,17,0,0,0,2,16.2,3.45,3.45,0,0,1,3.2,15a9.23,9.23,0,0,1-1.8-3,9,9,0,0,1,2.4,1.2h0a22.06,22.06,0,0,1,6,5.8h0l.2.3h0a17.74,17.74,0,0,1,1.9,3.3,16.65,16.65,0,0,1-2.8-1.8A3.74,3.74,0,0,1,7.8,22a12.44,12.44,0,0,0,3.6,1.9,1.4,1.4,0,0,0,1.5-.3c.4-.5.5-1.2,0-2.3-.5-2.2,1.1-4.3,4.4-7.6a5,5,0,0,0,1-5.7,2.35,2.35,0,0,0,1.8-2.4l3.3-2.9A1.49,1.49,0,0,0,23.5.5ZM16.2,12.6a22.24,22.24,0,0,0-4.7,5.9,27.89,27.89,0,0,0-2.8-3.2,30.39,30.39,0,0,0-3.3-2.8,23,23,0,0,0,5.9-4.8,3.57,3.57,0,0,1,4.9,0h0A3.38,3.38,0,0,1,16.2,12.6Z"/><path class="cls-2" d="M37.6,20.4a2.65,2.65,0,0,0,.6-.5,11.57,11.57,0,0,0-4.7-5.1l-.2.1a4.35,4.35,0,0,0-.6.7h0a3.61,3.61,0,0,0-.6,2h0A3.58,3.58,0,0,0,35.5,21h.1a3.61,3.61,0,0,0,2-.6ZM52.4.6a1.43,1.43,0,0,0-2-.3l-.2.2L47.4,3.7a2.21,2.21,0,0,0-2.5,1.6,4.68,4.68,0,0,1,3.4,2.4,2.25,2.25,0,0,0,.9-2l3.3-2.9a1.45,1.45,0,0,0,0-2.1C52.6.7,52.5.6,52.4.6Zm-4.7,8V8.5a5.52,5.52,0,0,0-3-3h0a1.85,1.85,0,0,0-.7-.2,4.86,4.86,0,0,0-4.7,1.4c-2.8,2.8-4.8,4.4-6.8,4.4-1.2,0-2.2-.9-3.1-.1a1.68,1.68,0,0,0-.2,1.8,17,17,0,0,0,1.9,3.5,4.26,4.26,0,0,1,1.1-1.2,9.23,9.23,0,0,1-1.8-3,9,9,0,0,1,2.4,1.2h0a22.06,22.06,0,0,1,6,5.8h0l.2.3h0a17.74,17.74,0,0,1,1.9,3.3,16.65,16.65,0,0,1-2.8-1.8,4.56,4.56,0,0,1-1.2,1.2A12.44,12.44,0,0,0,40.5,24a1.61,1.61,0,0,0,1.6-.3c.4-.5.5-1.2,0-2.3-.5-2.2,1.1-4.3,4.4-7.6a4.94,4.94,0,0,0,1.3-4.9c0-.1-.1-.2-.1-.3Z"/></g></svg>