<svg id="Layer_1" data-name="Layer 1" xmlns="http://www.w3.org/2000/svg" width="24" height="24" viewBox="0 0 24 24"><defs><style>.cls-1{fill:#0089d9;fill-rule:evenodd;}</style></defs><g id="Agreement"><path class="cls-1" d="M13.5,17.8a33.77,33.77,0,0,1,3.1,3.5A81.76,81.76,0,0,1,24,13.2l-.7-.7a32.45,32.45,0,0,0-6.7,6.1,9.24,9.24,0,0,0-2.2-1.7ZM5,5H9V6H5ZM5,8H15V9H5Zm4.7,9H5v1H9.5A3.55,3.55,0,0,1,9.7,17Zm1.4-3H5v1h5.4A8.65,8.65,0,0,1,11.1,14ZM15,11.7V11H5v1h8.9A4.51,4.51,0,0,1,15,11.7ZM12.2,24H0V0H20V12.4a7,7,0,0,0-2-.8V2H2V22h8.4A8.6,8.6,0,0,0,12.2,24Zm9.5-7.3a5.47,5.47,0,1,1-7-3.3,5.62,5.62,0,0,1,5.3.9l-1.1,1a4,4,0,1,0,1,5.6,3.69,3.69,0,0,0,.7-2.3v-.5Z"/></g></svg>