<svg id="Add_User_Gender_Free" data-name="Add User Gender Free" xmlns="http://www.w3.org/2000/svg" xmlns:xlink="http://www.w3.org/1999/xlink" width="53" height="24" viewBox="0 0 53 24"><defs><style>.cls-1{fill:none;opacity:0;clip-rule:evenodd;}.cls-2{fill:#0089d9;}.cls-2,.cls-3{fill-rule:evenodd;}.cls-3,.cls-5{fill:#0087e0;}.cls-4{clip-path:url(#clip-path);}</style><clipPath id="clip-path"><polygon id="Mask" class="cls-1" points="24 0.08 0 0.08 0 24.08 13 24 11 20 11 16 14 11 24 11 24 0.08"/></clipPath></defs><path class="cls-2" d="M40,18a7,7,0,0,1,1.46-4.27,4.25,4.25,0,0,1-.86-2.19A9,9,0,0,0,43.11,5c0-3.37-1.88-5-4.92-5s-4.92,1.62-4.92,5a9,9,0,0,0,2.5,6.55c-.68,5.3-6.77,2.27-6.77,7.55,0,1.5,6.41,2.12,11.65,1.85A7.06,7.06,0,0,1,40,18Z"/><path class="cls-3" d="M47,12a6,6,0,1,0,6,6A6,6,0,0,0,47,12Zm3,7H48v2a1,1,0,0,1-2,0V19H44a1,1,0,0,1-1-1,1,1,0,0,1,1-1h2V15a1,1,0,0,1,2,0v2h2a1,1,0,0,1,1,1A1,1,0,0,1,50,19Z"/><g id="Gender-Free"><g class="cls-4"><path class="cls-5" d="M11.53,11.91a4.14,4.14,0,0,0,.58,1.93,2.71,2.71,0,0,0,1.51,1,20.7,20.7,0,0,1,2.28.78,3.57,3.57,0,0,1,1.22.91,3.34,3.34,0,0,1,.7,1.41,4.91,4.91,0,0,1,.12.72l0,.35a1.33,1.33,0,0,1-.24.78,1.54,1.54,0,0,1-.88.55l-.67.22a13.48,13.48,0,0,1-2.43.39c-1.6.11-3.17.18-4.74.17S5.86,21.11,4.26,21a13.58,13.58,0,0,1-2.44-.39c-.21-.06-.45-.09-.7-.18a1.54,1.54,0,0,1-.85-.6A1.37,1.37,0,0,1,0,19.05l0-.35A4.91,4.91,0,0,1,.18,18a3.28,3.28,0,0,1,.7-1.41,3.57,3.57,0,0,1,1.22-.91,17.21,17.21,0,0,1,2.28-.78,2.71,2.71,0,0,0,1.51-1,4.14,4.14,0,0,0,.58-1.93v0A.49.49,0,0,1,7,11.46a.5.5,0,0,1,.43.45A5,5,0,0,1,7,14.49a4.1,4.1,0,0,1-2,1.82c-.78.37-1.53.58-2.08.89A1.52,1.52,0,0,0,2,18.39a2.81,2.81,0,0,0,0,.44v.23a.47.47,0,0,0-.07-.24c-.09-.09-.06.05,0,.13a1.39,1.39,0,0,0,.38.28,10.45,10.45,0,0,0,2.12.57A24.08,24.08,0,0,0,9,20.19a25.82,25.82,0,0,0,4.58-.37,12.28,12.28,0,0,0,2.13-.56,1.12,1.12,0,0,0,.4-.24c.09-.1.12-.26,0-.19s-.1.23-.08.23v-.23a2.81,2.81,0,0,0,0-.44,1.53,1.53,0,0,0-.88-1.2c-.55-.3-1.3-.52-2.08-.88a4.1,4.1,0,0,1-2-1.82,5,5,0,0,1-.42-2.58.48.48,0,0,1,.52-.45.49.49,0,0,1,.45.43Z"/><path class="cls-5" d="M9,12.2a3.54,3.54,0,0,0,2.68-2.08,8.16,8.16,0,0,0,1-3.63,5.13,5.13,0,0,0-.8-3.36,2.63,2.63,0,0,0-1.23-.87A4.44,4.44,0,0,0,9,2,3.17,3.17,0,0,0,6.18,3.15a5.25,5.25,0,0,0-.73,3.33,8.44,8.44,0,0,0,.94,3.6A3.65,3.65,0,0,0,9,12.2Zm0,.91a3.49,3.49,0,0,1-2.14-.82,6.23,6.23,0,0,1-1.43-1.65,9.9,9.9,0,0,1-1.37-4A6.58,6.58,0,0,1,4.8,2.2,4.21,4.21,0,0,1,6.7.63,5.94,5.94,0,0,1,9,.17a6.06,6.06,0,0,1,2.3.44,4.08,4.08,0,0,1,1.87,1.61,6.52,6.52,0,0,1,.66,4.37,10.07,10.07,0,0,1-1.33,4,6.23,6.23,0,0,1-1.4,1.64A3.44,3.44,0,0,1,9,13.11Z"/></g></g><path class="cls-3" d="M18,12a6,6,0,1,0,6,6A6,6,0,0,0,18,12Zm3,7H19v2a1,1,0,0,1-2,0V19H15a1,1,0,0,1-1-1,1,1,0,0,1,1-1h2V15a1,1,0,0,1,2,0v2h2a1,1,0,0,1,1,1A1,1,0,0,1,21,19Z"/></svg>