<svg id="Layer_1" data-name="Layer 1" xmlns="http://www.w3.org/2000/svg" width="24" height="24" viewBox="0 0 24 24"><defs><style>.cls-1{fill:#0089d9;fill-rule:evenodd;}</style></defs><g id="Break"><path id="Normal" class="cls-1" d="M18,18a1.07,1.07,0,0,1-.6-.2A7.51,7.51,0,0,1,14.9,20H21c0,2.2-3,2-10,2S1,22.2,1,20H7.1A8.16,8.16,0,0,1,3,13V9H21c1.7,0,2,1.8,2,4S19.7,18,18,18Zm-1-7H5v2.7C5,16.6,7.7,19,11,19s6-2.4,6-5.3Zm2.7,0c-.7,0-.7,0-.7,2a27.75,27.75,0,0,0,0,3,4.68,4.68,0,0,0,2-3C21,11,21,11,19.7,11ZM15,8H14a3.13,3.13,0,0,1-1-2c0-.6,1-1.4,1-2a3.13,3.13,0,0,0-1-2h1a3.13,3.13,0,0,1,1,2c0,.6-1,1.4-1,2A2.83,2.83,0,0,0,15,8ZM12,8H11a3.13,3.13,0,0,1-1-2c0-.6,1-1.4,1-2a3.13,3.13,0,0,0-1-2h1a3.13,3.13,0,0,1,1,2c0,.6-1,1.4-1,2A2.83,2.83,0,0,0,12,8ZM9,8H8A3.13,3.13,0,0,1,7,6c0-.6,1-1.4,1-2A3.13,3.13,0,0,0,7,2H8A3.13,3.13,0,0,1,9,4c0,.6-1,1.4-1,2A2.83,2.83,0,0,0,9,8Z"/></g></svg>