<svg id="Layer_1" data-name="Layer 1" xmlns="http://www.w3.org/2000/svg" width="24" height="24" viewBox="0 0 24 24"><defs><style>.cls-1{fill:#0089d9;fill-rule:evenodd;}</style></defs><g id="Breadcrumbs_Folder" data-name="Breadcrumbs Folder"><path class="cls-1" d="M12,17l5-5H7ZM23,8V6a2.15,2.15,0,0,0-2-2H12.5S11,1,9,1H4A3.23,3.23,0,0,0,1,4V8A1,1,0,0,0,0,9c0,.57,1,10,1,10a3.4,3.4,0,0,0,3,3H20a3.4,3.4,0,0,0,3-3s1-9.5,1-10A1.08,1.08,0,0,0,23,8ZM3,4A1.08,1.08,0,0,1,4,3H9c1,0,2.5,3,2.5,3H20a1.08,1.08,0,0,1,1,1V8H3ZM21,19a1.08,1.08,0,0,1-1,1H4a1.08,1.08,0,0,1-1-1s-1-8.44-1-9A1,1,0,0,1,3,9H21a1.08,1.08,0,0,1,1,1C22,10.5,21,19,21,19Z"/></g></svg>