<svg id="Layer_1" data-name="Layer 1" xmlns="http://www.w3.org/2000/svg" width="24" height="24" viewBox="0 0 24 24"><defs><style>.cls-1{fill:#0089d9;fill-rule:evenodd;}</style></defs><path class="cls-1" d="M9,15h2V13H9Zm0-4h2V9H9Zm0,8h2V17H9ZM5,19H7V17H5Zm0-4H7V13H5Zm8-4h2V9H13Zm0,8h2V17H13Zm4-8h2V9H17Zm-4,4h2V13H13ZM21,3H19V2a1,1,0,0,0-2,0V3H7V2A.94.94,0,0,0,6,1,.94.94,0,0,0,5,2V3H3A2,2,0,0,0,1,5V21a2,2,0,0,0,2,2H21a2,2,0,0,0,2-2V5A2,2,0,0,0,21,3Zm0,17a.94.94,0,0,1-1,1H4a.94.94,0,0,1-1-1V6A.94.94,0,0,1,4,5H5V6A.94.94,0,0,0,6,7,.94.94,0,0,0,7,6V5H17V6a1,1,0,0,0,2,0V5h1a.94.94,0,0,1,1,1Zm-4-5h2V13H17Z"/></svg>