<svg id="Layer_1" data-name="Layer 1" xmlns="http://www.w3.org/2000/svg" width="24" height="24" viewBox="0 0 24 24"><defs><style>.cls-1{fill:#0089d9;fill-rule:evenodd;}</style></defs><g id="Comment_Community" data-name="Comment Community"><path id="Normal" class="cls-1" d="M22.54,18.23c-.22.2-.68.67-.47,1.19A2.72,2.72,0,0,0,22.86,21,4.12,4.12,0,0,1,21,20.61a1.59,1.59,0,0,0-1.38-.06A8.06,8.06,0,0,1,17,21a7.3,7.3,0,0,1-6.49-4.11A9.51,9.51,0,0,0,18.9,9.24c2.89.7,5.09,2.9,5.09,5.5A5.3,5.3,0,0,1,22.54,18.23ZM9,16a9.91,9.91,0,0,1-3.37-.58,1.07,1.07,0,0,0-1.08-.05A10.68,10.68,0,0,1,0,16a2.68,2.68,0,0,1,.07-.27,5.94,5.94,0,0,0,1.82-2.3.79.79,0,0,0-.26-.79A7.37,7.37,0,0,1,0,8C0,3.58,4,0,9,0s9,3.58,9,8S14,16,9,16ZM9,2C5.2,2,2,4.71,2,8a5.62,5.62,0,0,0,1.44,3.64A2.34,2.34,0,0,1,3.8,13.4a1.2,1.2,0,0,1-.43.69,4.29,4.29,0,0,0,1.48-.66c.59-.32,1.27.09,1.5.17A7.68,7.68,0,0,0,9,14c3.79,0,7-2.74,7-6S12.78,2,9,2ZM2,18a5.65,5.65,0,0,1,.13-1.16A8.19,8.19,0,0,0,4,16.29a1.18,1.18,0,0,1,1.2.06A10.93,10.93,0,0,0,9,17h.32a7.43,7.43,0,0,0,4.51,4.41A6.63,6.63,0,0,1,8.49,24a7,7,0,0,1-2.43-.44.73.73,0,0,0-.78,0A7.49,7.49,0,0,1,2,24v-.2a4.4,4.4,0,0,0,1.32-1.73.6.6,0,0,0-.19-.59A5.66,5.66,0,0,1,2,18Z"/></g></svg>