<svg id="Layer_1" data-name="Layer 1" xmlns="http://www.w3.org/2000/svg" width="24" height="24" viewBox="0 0 24 24"><defs><style>.cls-1{fill:#0089d9;fill-rule:evenodd;}</style></defs><g id="Cut"><path class="cls-1" d="M19.36,18.37a4.07,4.07,0,0,0-4.24-2.27L13,14h1c5-4,5-14,5-14H18s-1.67,8.3-6.51,12.8C6.69,8.3,5,0,5,0H4S4,10,9,14h1L7.93,16.1a4.07,4.07,0,0,0-4.24,2.27c-1.16,2-.83,4.37.73,5.28s3.75,0,4.91-2a4.41,4.41,0,0,0,.27-4.21L11,16.09l.58-.3.58.3,1.35,1.35a4.41,4.41,0,0,0,.27,4.21c1.16,2,3.35,2.91,4.91,2S20.51,20.38,19.36,18.37ZM7.65,20.92c-.48,1-1.39,1.38-2,1a2,2,0,0,1-.3-2.5c.48-1,1.52-1.68,2.17-1.25S8.13,20,7.65,20.92ZM12,15H11V14h1Zm5.42,6.87c-.65.43-1.56,0-2-1s-.48-2.37.17-2.8,1.69.3,2.17,1.25a2,2,0,0,1-.32,2.56Z"/></g></svg>