<svg id="Layer_1" data-name="Layer 1" xmlns="http://www.w3.org/2000/svg" width="53" height="24" viewBox="0 0 53 24"><defs><style>.cls-1{fill:#0089d9;fill-rule:evenodd;}</style></defs><g id="Comment"><path class="cls-1" d="M47,1H35a6,6,0,0,0-6,6v6a6,6,0,0,0,6,6c1,0,2,3,2,5h1c0-3,3.61-5,4.94-5H47a6,6,0,0,0,6-6V7A6,6,0,0,0,47,1ZM36,12a2,2,0,1,1,2-2A2,2,0,0,1,36,12Zm5,0a2,2,0,1,1,2-2A2,2,0,0,1,41,12Zm5,0a2,2,0,1,1,2-2A2,2,0,0,1,46,12Z"/><path class="cls-1" d="M7,8a2,2,0,1,0,2,2A2,2,0,0,0,7,8Zm0,3a1,1,0,1,1,1-1A1,1,0,0,1,7,11ZM17,8a2,2,0,1,0,2,2A2,2,0,0,0,17,8Zm0,3a1,1,0,1,1,1-1A1,1,0,0,1,17,11ZM18,1H6A6,6,0,0,0,0,7v6a6,6,0,0,0,6,6c1,0,2,3,2,5H9c0-3,3.61-5,4.94-5H18a6,6,0,0,0,6-6V7A6,6,0,0,0,18,1Zm4,12a3.7,3.7,0,0,1-3.37,4A3.32,3.32,0,0,1,18,17H14a5.92,5.92,0,0,0-5.23,3.19C8.71,18.2,7.77,17,6,17a3.7,3.7,0,0,1-4-3.37A3.32,3.32,0,0,1,2,13V7A3.7,3.7,0,0,1,5.37,3,3.31,3.31,0,0,1,6,3H18a3.7,3.7,0,0,1,4,3.37A3.31,3.31,0,0,1,22,7ZM12,8a2,2,0,1,0,2,2A2,2,0,0,0,12,8Zm0,3a1,1,0,1,1,1-1A1,1,0,0,1,12,11Z"/></g></svg>