<svg id="Layer_1" data-name="Layer 1" xmlns="http://www.w3.org/2000/svg" width="24" height="24" viewBox="0 0 24 24"><defs><style>.cls-1{fill:#0089d9;fill-rule:evenodd;}</style></defs><g id="Change_Owner" data-name="Change Owner"><path class="cls-1" d="M23.53,17.77A54.61,54.61,0,0,0,18.89,22c-2.41.49-3.41.64-5.84,1-4.8-.79-6.82-2.55-9.22-2.89A4.12,4.12,0,0,0,3,20.2,1,1,0,0,1,2,21H1a1,1,0,0,1-1-1V15a1,1,0,0,1,1-1H2a1,1,0,0,1,1,1c1.63-.44,2.84-1.81,8.18.06A7.83,7.83,0,0,0,15.42,15c2.41-.21,4.13,1.43.62,3a19.92,19.92,0,0,1-5,0c1.93,1,4.6.73,5.84.78A26.42,26.42,0,0,0,21.61,16C23.44,15.16,24.25,16.58,23.53,17.77ZM11.5,12h7a.5.5,0,0,1,.5.5.47.47,0,0,1-.47.47h-7a.47.47,0,0,1-.5-.44v0A.5.5,0,0,1,11.5,12Zm0-3h7a.5.5,0,0,1,.5.5.47.47,0,0,1-.47.47h-7a.47.47,0,0,1-.5-.44v0A.5.5,0,0,1,11.5,9ZM21,15h0V7H17V3H9V13H7V1H18l5,5v9ZM19,4V5h1Z"/></g></svg>