<svg id="Layer_1" data-name="Layer 1" xmlns="http://www.w3.org/2000/svg" width="140" height="24" viewBox="0 0 140 24"><defs><style>.cls-1{fill:#0089d9;fill-rule:evenodd;}</style></defs><g id="Comment_Web_Reply" data-name="Comment Web Reply"><path id="Normal" class="cls-1" d="M24,9l-6,6V11c-1.88,0-3.53-.1-5,0v1h2V22a2.15,2.15,0,0,1-2,2H3a2.15,2.15,0,0,1-2-2V2A2.15,2.15,0,0,1,3,0H13a2.15,2.15,0,0,1,2,2V6H13V7.43A27,27,0,0,1,18,7V3ZM3,21c0,1,.71,1,1,1h8c.29,0,1,0,1-1V18H3ZM13,3c0-1-.71-1-1-1H4C3.71,2,3,2,3,3V5H13Zm0,3H3V17H13V11.1c-4,.26-6.54,1.24-8,4.9,0-5.24,3.37-7.68,8-8.57ZM7,3H9c1,0,1,.21,1,.49S10,4,9,4H7c-1,0-1-.24-1-.51S6,3,7,3ZM8,22a2,2,0,1,1,2-2A2,2,0,0,1,8,22Zm0-3.47A1.49,1.49,0,1,0,9.51,20,1.49,1.49,0,0,0,8,18.53Z"/></g></svg>