<svg id="Layer_1" data-name="Layer 1" xmlns="http://www.w3.org/2000/svg" width="24" height="24" viewBox="0 0 24 24"><defs><style>.cls-1{fill:#0089d9;fill-rule:evenodd;}</style></defs><g id="Delete"><path class="cls-1" d="M10,17V9A1,1,0,0,0,8,9v8a1,1,0,0,0,2,0Zm3,0V9a1,1,0,0,0-2,0v8a1,1,0,0,0,2,0Zm3,0V9a1,1,0,0,0-2,0v8a1,1,0,0,0,2,0ZM22,4H16c0-2-1-4-3-4H11C9,0,8,2,8,4H2A2.15,2.15,0,0,0,0,6V7A1,1,0,0,0,2,7,1,1,0,0,1,3,6H21a1,1,0,0,1,1,1,1,1,0,0,0,2,0V6A2.15,2.15,0,0,0,22,4ZM14,4H10V3c0-.09.28-1,1-1h2c.72,0,1,.9,1,1Zm6.09,3A1,1,0,0,0,19,7.9h0s-.48,8.12-.75,12.56c0,.7-.41,1.53-1.85,1.53H7.59c-1.44,0-1.82-.83-1.85-1.53C5.53,16,5,7.91,5,7.91a1,1,0,0,0-2,.18L3.85,22A2.6,2.6,0,0,0,6,24H18a2.6,2.6,0,0,0,2.15-2L21,8.09A1,1,0,0,0,20.1,7Z"/></g></svg>