<svg id="Layer_1" data-name="Layer 1" xmlns="http://www.w3.org/2000/svg" width="24" height="24" viewBox="0 0 24 24"><defs><style>.cls-1{fill:#0089d9;fill-rule:evenodd;}</style></defs><g id="Dislike"><path class="cls-1" d="M4.43,1c-1.69.41-1.19,1.7-1.62,2.41S1.68,3.94,1.4,5s.46,1,.46,1.71c0,.86-1,1-1,2.16s.9,1.15,1,1.81c.1.82-.78,1.26-.5,2.43.14.6.88.94,1.59,1.07.89.16,4.51-.19,5.41.69,1.23,1.2-.5,2.44-.5,5.13,0,3.13,2.09,5.19,4.91,3.37-.62-1.53-.33-3,.66-4.81,1.35-4.52,4.28-6.06,6.41-7.37v-10c-3.69,0-6.11-.76-8.63-.91A23.13,23.13,0,0,0,4.43,1Zm13.41,9.31c-2,.86-5.53,3.26-6,7.48a3.74,3.74,0,0,0-.66,3.62c-1.59.58-1.64-1.59-.92-3.22.84-1.89,1.59-4,.59-4.88-.81-.75-5.1-.87-5.82-.9S3.7,12.23,3.61,12c-.24-.63.24-1.24.13-1.73S2.8,9.51,2.8,8.86s1-.8,1.09-1.53-.45-1.1-.28-1.67.76-.53,1.07-1.19S4.62,2.85,6,2.53a17.16,17.16,0,0,1,5-.47c2,.11,3.9,1,6.83,1Zm5-10.16h-2v12h2c1.49-1,1-11,0-12Z"/></g></svg>