<svg id="Layer_1" data-name="Layer 1" xmlns="http://www.w3.org/2000/svg" width="24" height="24" viewBox="0 0 24 24"><defs><style>.cls-1{fill:#0089d9;fill-rule:evenodd;}</style></defs><g id="Document_Info" data-name="Document Info"><path class="cls-1" d="M9.3,22H2V8H8V2H18V7.25A8.93,8.93,0,0,1,20,8V0H6V.28l-6,6V24H11.91A9,9,0,0,1,9.3,22ZM6,2.49V6H2.41Zm10,9.26A1.24,1.24,0,1,0,17.23,13,1.25,1.25,0,0,0,16,11.75ZM16,8a8,8,0,1,0,8,8A8,8,0,0,0,16,8Zm0,14a6,6,0,1,1,6-6A6,6,0,0,1,16,22Zm0-7a1,1,0,0,0-1,1v3a1,1,0,0,0,2,0V16A1,1,0,0,0,16,15Z"/></g></svg>