<svg id="Date_Picker" data-name="Date Picker" xmlns="http://www.w3.org/2000/svg" width="24" height="24" viewBox="0 0 24 24"><defs><style>.cls-1{fill:#0089d9;fill-rule:evenodd;}</style></defs><path class="cls-1" d="M6,15H8V13H6Zm3,3h2V16H9ZM6,18H8V16H6Zm3-3h2V13H9Zm0-3h2V10H9Zm7-6c.55,0,1-.17,1-1V3c0-.83-.45-1-1-1s-1,.17-1,1V5C15,5.83,15.45,6,16,6ZM7,6c.55,0,1-.17,1-1V3c0-.83-.45-1-1-1S6,2.17,6,3V5C6,5.83,6.45,6,7,6ZM19.71,4.29A1,1,0,0,0,19,4H18V5a1.84,1.84,0,0,1-1.66,2H16a1.84,1.84,0,0,1-2-1.66A1.93,1.93,0,0,1,14,5V4H9V5A1.84,1.84,0,0,1,7.34,7H7A1.84,1.84,0,0,1,5,5.34,1.93,1.93,0,0,1,5,5V4H4A1,1,0,0,0,3,5V20a1,1,0,0,0,1,1H19a1,1,0,0,0,1-1V5A1,1,0,0,0,19.71,4.29ZM19,19a1,1,0,0,1-1,1H5a1,1,0,0,1-1-1V9A1,1,0,0,1,5,8H18a1,1,0,0,1,1,1Zm-4-7h2V10H15Zm-3,6h2V16H12Zm3-3h2V13H15Zm-3-3h2V10H12Zm0,3h2V13H12Zm3,3h2V16H15Z"/></svg>