<svg id="Layer_1" data-name="Layer 1" xmlns="http://www.w3.org/2000/svg" width="24" height="24" viewBox="0 0 24 24"><defs><style>.cls-1{fill:#0089d9;}</style></defs><g id="Database"><path class="cls-1" d="M12,0C7.53,0,2,1.35,2,4V20c0,2.64,5.53,4,10,4s10-1.38,10-4V4C22,1.38,16.47,0,12,0Zm8,10.22c-1.23.94-4.58,1.79-8,1.79s-6.75-.84-8-1.78V6.39A18.37,18.37,0,0,0,12,8a18.38,18.38,0,0,0,8-1.62ZM4,11.39A18.37,18.37,0,0,0,12,13a18.38,18.38,0,0,0,8-1.62v3.84c-1.23.94-4.58,1.79-8,1.79s-6.75-.84-8-1.78ZM12,2c4.55,0,8,1.43,8,2V5.2C18.77,6.2,15.42,7,12,7S5.25,6.17,4,5.23V4C4,3.41,7.45,2,12,2Zm0,20c-4.55,0-8-1.41-8-2V16.4A18.5,18.5,0,0,0,12,18a18.38,18.38,0,0,0,8-1.62V20C20,20.55,16.55,22,12,22Z"/></g></svg>