<svg id="Layer_1" data-name="Layer 1" xmlns="http://www.w3.org/2000/svg" xmlns:xlink="http://www.w3.org/1999/xlink" width="53" height="24" viewBox="0 0 53 24"><defs><style>.cls-1{fill:none;}.cls-2,.cls-3{fill:#0089d9;}.cls-3{fill-rule:evenodd;}.cls-4{clip-path:url(#clip-path);}</style><clipPath id="clip-path"><path class="cls-1" d="M13,8H2V22h9V15c0-1,2-1,2-2Z"/></clipPath></defs><g id="Encrypted_PDF" data-name="Encrypted PDF"><g id="Filled"><polygon class="cls-2" points="35 0.25 29.3 5.95 35 5.95 35 0.25"/><path class="cls-2" d="M35.8,13.35a.77.77,0,0,1,.2.6.68.68,0,0,1-.1.5.78.78,0,0,1-.4.4H34V13h1.4ZM49,0V8H46a4.3,4.3,0,0,0-4,4v1a.85.85,0,0,1-.2.5l-.4-.8a1.93,1.93,0,0,0-.7-.6H38v6h2v6H29V7h7V6h0V0ZM37,13.75a2,2,0,0,0-.3-1.1,1.64,1.64,0,0,0-.8-.6H33v6h1V16h.7l1.1-.2.6-.4c.2-.1.3-.4.4-.6A3.12,3.12,0,0,0,37,13.75Z"/><path class="cls-2" d="M41,14c-.5.2-1,.5-1,1v2H39V13h1.2c.2,0,.3.1.4.3Z"/><path class="cls-2" d="M51,15V13a4,4,0,0,0-8,0v2h0a2,2,0,0,0-2,2v5a2,2,0,0,0,2,2h8a2,2,0,0,0,2-2V17A2,2,0,0,0,51,15Zm-6-1.84a2,2,0,1,1,4,0V15H45Zm6,8.18a.7.7,0,0,1-.69.71H43.8a.78.78,0,0,1-.8-.7V17.71a.78.78,0,0,1,.8-.7h6.4a.69.69,0,0,1,.79.59.37.37,0,0,1,0,.11Z"/><path class="cls-2" d="M47,17a1.11,1.11,0,0,0-1,1v1a1,1,0,0,0,1,1,.9.9,0,0,0,1-.79A.74.74,0,0,0,48,19V18A1,1,0,0,0,47,17Z"/></g><path class="cls-3" d="M22,15V13a4,4,0,0,0-8,0v2h0a2.09,2.09,0,0,0-2,2v5a1.9,1.9,0,0,0,1.79,2H22a2,2,0,0,0,2-2V17A2,2,0,0,0,22,15Zm-6-2a2,2,0,1,1,4,0v2H16Zm6,8.32a.8.8,0,0,1-.8.7H14.8a.8.8,0,0,1-.8-.7V17.71a.78.78,0,0,1,.8-.7H18a.9.9,0,0,0-1,.78A.81.81,0,0,0,17,18v1a1,1,0,0,0,2,0V18a.89.89,0,0,0-.79-1A.74.74,0,0,0,18,17h3.2a.78.78,0,0,1,.8.7ZM2,8H8V2H18V8h2V0H6L0,6.18V24H11V22H2ZM6,2.45V6H2.4Z"/><g id="PDF_Text" data-name="PDF Text"><g class="cls-4"><path class="cls-2" d="M4,18V12H6.9a1.64,1.64,0,0,1,.8.6A2,2,0,0,1,8,13.8a3.12,3.12,0,0,1-.2,1c-.1.2-.2.5-.4.6l-.6.4L5.7,16H5v2Zm1-5v2H6.5a.78.78,0,0,0,.4-.4A.71.71,0,0,0,7,14a.77.77,0,0,0-.2-.6c-.1-.2-.3-.3-.4-.4Z"/><path class="cls-2" d="M9,12h2.7a1.9,1.9,0,0,1,.7.62,2.65,2.65,0,0,1,.4.93A6.28,6.28,0,0,1,13,15.1a4.28,4.28,0,0,1-.1,1.24,3,3,0,0,1-.6,1.14,1.43,1.43,0,0,1-.6.52H9Zm1,1v4.14h1.3l.4-.2c.1-.11.1-.31.2-.63A3.68,3.68,0,0,0,12,15.1,3.58,3.58,0,0,0,11.9,14c-.1-.21-.5-.83-.7-.83H10Z"/><path class="cls-2" d="M14,18V12h4v1H15v2h2v1H15v2Z"/></g></g></g></svg>