<svg id="Layer_1" data-name="Layer 1" xmlns="http://www.w3.org/2000/svg" width="53" height="24" viewBox="0 0 53 24"><defs><style>.cls-1{fill:#0089d9;fill-rule:evenodd;}</style></defs><g id="Export"><path class="cls-1" d="M18,21a1,1,0,0,1-1,1H3a1,1,0,0,1-1-1V7A1,1,0,0,1,3,6H13l2-2H2A2,2,0,0,0,0,6V22a2,2,0,0,0,2,2H18a2,2,0,0,0,2-2V9l-2,2ZM23,0H16a1,1,0,0,0,0,2h4.5L9.41,13.09a1,1,0,1,0,1.3,1.52l.11-.11L22,3.33V8a1,1,0,0,0,2,0V1A1,1,0,0,0,23,0Z"/><path class="cls-1" d="M52,0H45a1,1,0,0,0,0,2h4.5L38.41,13.09a1,1,0,1,0,1.3,1.52l.11-.11L51,3.33V8a1,1,0,0,0,2,0V1A1,1,0,0,0,52,0ZM37.56,15.56C36,14,38,12,38,12l8-8H31a2,2,0,0,0-2,2V22a2,2,0,0,0,2,2H47a2,2,0,0,0,2-2V7l-8,8S39,17,37.56,15.56Z"/></g></svg>