<svg id="Layer_1" data-name="Layer 1" xmlns="http://www.w3.org/2000/svg" width="24" height="24" viewBox="0 0 24 24"><defs><style>.cls-1{fill:#0089d9;}</style></defs><g id="Education"><path class="cls-1" d="M12,0,0,5,4,6.67V12.5a9.35,9.35,0,0,0,3,2.33V17s-2.25,1,0,2c-1,1-1,4-1,4a2,2,0,0,0,2,1,2.1,2.1,0,0,0,2-1s0-3-1-4c2.22-1.09,0-2,0-2V15.6a11.29,11.29,0,0,0,3,.4c5.5,0,8-3,8-3V6.67L24,5ZM6,11.5v-4l1,.42V12.5A4.74,4.74,0,0,1,6,11.5Zm12,0S16.5,14,12,14a9.27,9.27,0,0,1-3-.47V8.75L12,10l6-2.5ZM12,8,9.24,6.89l4.48-2-2.06-.81L7,6H7L4.5,5,12,2l7.5,3Z"/></g></svg>