<svg id="Layer_2" data-name="Layer 2" xmlns="http://www.w3.org/2000/svg" width="24" height="24" viewBox="0 0 24 24"><defs><style>.cls-1{fill:#0089d9;}</style></defs><path class="cls-1" d="M12.8,14.9a7.5,7.5,0,0,0,1.5,0,6.44,6.44,0,0,1-1.5,3L15,16.4c1.2,2.6,7.5,2.7,7.5,4.8,0,1.3-7.4,1.3-10.5,1.2-3.1.1-10.5.1-10.5-1.2C1.5,19,7.3,19,9,16.4l2.2,1.5a5.7,5.7,0,0,1-1.5-3,7.5,7.5,0,0,0,1.5,0,3.11,3.11,0,0,1-1.5-1.5c-.4-.9-.9-.5-.7-3a1.21,1.21,0,0,1-1.5-.7c-.1-.4-.3-1.3,0-1.5.5-.2.7.7.7.7.7-1.9-.7-2.3-.7-4.5s1.6-3,3.7-3c1.3,0,2.9.4,2.8,1.6.7-.2,1.6-.1,1.7,1.4.1,2.2-1,1.3,0,4.5.1,0,.1-1,.7-.7.3.2.3,1.3.1,1.7-.4,1-1.2.6-1.6.5.1,2.5-.4,2.2-.7,3S12.8,14.9,12.8,14.9Zm2.9-1.3a2.21,2.21,0,0,0,.8-2c1.1,0,1.6-1.6,1.6-2.6,0-1.2-.7-1.6-1-1.6s.4-1.3.4-2.7c0-1.2-.2-2.8-2-2.7C13.6-1.2,6.2-.5,6.2,4.6a7.15,7.15,0,0,0,.7,2.8c-.7,0-.7,1.1-.7,1.6,0,1.1.4,2.6,1.5,2.6a2.45,2.45,0,0,0,1.1,2.1,2.53,2.53,0,0,1,0,1.5.48.48,0,0,0-.6.1,12.5,12.5,0,0,1-3.6,2.2C2.4,18.5.1,18.8.1,21.9.2,24,6.8,24,12.1,24h0c5.3,0,12,0,12-1.9,0-3.1-2.3-3.4-4.6-4.4A8.79,8.79,0,0,1,16,15.5a.47.47,0,0,0-.6-.1A1.85,1.85,0,0,1,15.7,13.6Z"/></svg>