<svg id="Layer_1" data-name="Layer 1" xmlns="http://www.w3.org/2000/svg" width="24" height="24" viewBox="0 0 24 24"><defs><style>.cls-1{fill:#0089d9;}</style></defs><g id="Folder_Building" data-name="Folder Building"><path class="cls-1" d="M21,3H11.5S10,0,8,0H3A3.23,3.23,0,0,0,0,3V17a3.23,3.23,0,0,0,3,3H8V18H3a1.08,1.08,0,0,1-1-1V5H21a1.08,1.08,0,0,1,1,1V17a1.08,1.08,0,0,1-1,1v2a3.23,3.23,0,0,0,3-3V6A3.23,3.23,0,0,0,21,3ZM2,4V3A1.08,1.08,0,0,1,3,2H8c1,0,2,2,2,2Zm16,8V10H15V8H14v2H11v2H9V24H20V12Zm-3,2h1v1H15Zm0,2h1v1H15Zm0,2h1v1H15Zm-2-4h1v1H13Zm0,2h1v1H13Zm0,2h1v1H13Zm-2-4h1v1H11Zm0,2h1v1H11Zm0,2h1v1H11Zm7,4H11V21h7Zm0-3H17V18h1Zm0-2H17V16h1Zm0-2H17V14h1Z"/></g></svg>