<svg id="filter" xmlns="http://www.w3.org/2000/svg" width="24" height="24" viewBox="0 0 24 24"><defs><style>.cls-1{fill:#0089d9;fill-rule:evenodd;}</style></defs><path id="Normal" class="cls-1" d="M2,7V2.5A1.54,1.54,0,0,1,3.5,1,1.54,1.54,0,0,1,5,2.5V7Zm0,7v7.5A1.54,1.54,0,0,0,3.5,23,1.54,1.54,0,0,0,5,21.5V14ZM21,5V2.5a1.5,1.5,0,0,0-3,0V5Zm-3,7v9.5a1.5,1.5,0,0,0,3,0V12Zm-5,0V2.5a1.5,1.5,0,0,0-3,0V12Zm-3,7v2.5a1.5,1.5,0,0,0,3,0V19ZM7,9v3a.94.94,0,0,1-1,1H1a.94.94,0,0,1-1-1V9A.94.94,0,0,1,1,8H6A.94.94,0,0,1,7,9ZM2,9H1v3H2ZM4,9H3v3H4ZM6,9H5v3H6Zm9,5v3a.94.94,0,0,1-1,1H9a.94.94,0,0,1-1-1V14a.94.94,0,0,1,1-1h5A.94.94,0,0,1,15,14Zm-5,0H9v3h1Zm2,0H11v3h1Zm2,0H13v3h1Zm9-7v3a.94.94,0,0,1-1,1H17a.94.94,0,0,1-1-1V7a.94.94,0,0,1,1-1h5A.94.94,0,0,1,23,7ZM18,7H17v3h1Zm2,0H19v3h1Zm2,0H21v3h1Z"/></svg>