<svg id="Layer_1" data-name="Layer 1" xmlns="http://www.w3.org/2000/svg" width="24" height="24" viewBox="0 0 24 24"><defs><style>.cls-1{fill:#0089d9;fill-rule:evenodd;}</style></defs><g id="Flag"><path class="cls-1" d="M2,0A1,1,0,0,0,1,1V23a1,1,0,0,0,2,0V1A1,1,0,0,0,2,0ZM13.49,1.41C11-.72,6-.37,4,2V17c2.78-2.09,6-2.87,9-.75,3.39,2.4,6.6,2.41,9-.25V1C18.77,3,16.54,4,13.49,1.41ZM20,14.82C17.65,17,16.42,16,13.55,14.25A9.05,9.05,0,0,0,6,13.57V3c2.29-1.5,4.81-1,7,.56a6.77,6.77,0,0,0,7,1Z"/></g></svg>