<svg id="Layer_1" data-name="Layer 1" xmlns="http://www.w3.org/2000/svg" width="53" height="24" viewBox="0 0 53 24"><defs><style>.cls-1{fill:#0089d9;fill-rule:evenodd;}</style></defs><g id="Favorite"><path class="cls-1" d="M23.58,10.91a1.26,1.26,0,0,0,.09-1.77,1.28,1.28,0,0,0-.8-.4c-.12,0-6.86-.58-7-.65S13.2,1.85,13.15,1.74a1.26,1.26,0,0,0-1.69-.61,1.25,1.25,0,0,0-.61.61c0,.11-2.67,6.29-2.77,6.36s-6.83.64-7,.65a1.25,1.25,0,0,0-.71,2.17c.09.07,5.2,4.47,5.24,4.58s-1.5,6.64-1.52,6.76A1.26,1.26,0,0,0,6,23.59c.1-.06,5.89-3.53,6-3.53s5.9,3.46,6,3.53a1.27,1.27,0,0,0,1.72-.47,1.25,1.25,0,0,0,.14-.87c0-.11-1.56-6.64-1.52-6.76S23.5,11,23.58,10.91Zm-5.5,10.81c-5.49-3.33-5.68-3.33-6.09-3.33s-.6,0-6.09,3.33c1.47-6.26,1.47-6.28,1.31-6.78s-.18-.55-5-4.69C8.54,9.76,8.73,9.62,9,9.4s.49-.51,3-6.52v.28c2.49,5.91,2.58,6,3,6.25s.5.35,6.86.85C17,14.4,16.91,14.54,16.78,15s-.16.44,1.31,6.72ZM5,10.53a25.81,25.81,0,0,0,3.05,3.39c.53.36,1.25-.67.81-1.18A34.34,34.34,0,0,0,5,10.53Z"/><path class="cls-1" d="M52.63,10.91a1.26,1.26,0,0,0,.09-1.77,1.28,1.28,0,0,0-.8-.4c-.12,0-6.86-.58-7-.65s-2.73-6.25-2.77-6.36a1.26,1.26,0,0,0-1.69-.61,1.25,1.25,0,0,0-.61.61c0,.11-2.67,6.29-2.77,6.36s-6.83.64-7,.65a1.25,1.25,0,0,0-.71,2.17c.09.07,5.2,4.47,5.24,4.58s-1.5,6.64-1.52,6.76a1.26,1.26,0,0,0,2,1.34c.1-.06,5.89-3.53,6-3.53s5.9,3.46,6,3.53a1.27,1.27,0,0,0,1.72-.47,1.25,1.25,0,0,0,.14-.87c0-.11-1.56-6.64-1.52-6.76S52.55,11,52.63,10.91ZM36.23,14a25.81,25.81,0,0,1-3-3.39,33.75,33.75,0,0,1,3.87,2.23C37.47,13.35,36.76,14.38,36.23,14Z"/></g></svg>