<svg id="Layer_1" data-name="Layer 1" xmlns="http://www.w3.org/2000/svg" width="24" height="24" viewBox="0 0 24 24"><defs><style>.cls-1{fill:#0089d9;fill-rule:evenodd;}</style></defs><g id="Graphs"><path class="cls-1" d="M0,13a11,11,0,0,0,22,0Zm11,9c-6,0-8.56-5.31-8.56-7H19.63C19.63,16.67,17,22,11,22Z"/><path class="cls-1" d="M13,0V11H24A11.07,11.07,0,0,0,13,0Zm2,2.43C18,2.42,21.66,6,21.66,9H15Z"/><path class="cls-1" d="M0,12H11V1A11.06,11.06,0,0,0,0,12Zm9-2H2.31C2.31,7,6,3.33,9,3.33Z"/></g></svg>