<svg id="Layer_1" data-name="Layer 1" xmlns="http://www.w3.org/2000/svg" width="24" height="24" viewBox="0 0 24 24"><defs><style>.cls-1{fill:#0089d9;fill-rule:evenodd;}</style></defs><g id="Home"><path class="cls-1" d="M16,3h0l2,1V3h1V6h2V1H16V2h0V3Zm4,10a1,1,0,0,0-1,1v8H16V16h0a1,1,0,0,0-1-1H9a1,1,0,0,0-1,1v6H5V14a1,1,0,0,0-2,0v9a1,1,0,0,0,1,1H9a1,1,0,0,0,1-1V17h4v6a1,1,0,0,0,1,1h5a1,1,0,0,0,1-1V14A1,1,0,0,0,20,13Zm3.71-.69-11-11a1,1,0,0,0-1.41,0l0,0-11,11a1,1,0,0,0,1.41,1.41L12,3.4,22.29,13.72a1,1,0,0,0,1.41-1.41Z"/></g></svg>