<svg id="Layer_1" data-name="Layer 1" xmlns="http://www.w3.org/2000/svg" width="53" height="24" viewBox="0 0 53 24"><defs><style>.cls-1{fill:#0089d9;}.cls-2{fill:#fff;}</style></defs><g id="Help"><path class="cls-1" d="M41,0A12,12,0,1,0,53,12,12,12,0,0,0,41,0Z"/><rect class="cls-2" x="40" y="16" width="2" height="2"/><path class="cls-2" d="M41,6c-2.3.09-3.48,2-3.68,4H39s.15-2.33,2-2.39a2.1,2.1,0,0,1,2,2.23,2.13,2.13,0,0,1-1,1.63A4.57,4.57,0,0,0,40,15h1.72A2.92,2.92,0,0,1,43,12.69,3.54,3.54,0,0,0,44.7,9.57,3.59,3.59,0,0,0,41.1,6Z"/><path class="cls-1" d="M12,0A12,12,0,1,0,24,12,12,12,0,0,0,12,0Zm0,22A10,10,0,1,1,22,12,10,10,0,0,1,12,22Z"/><rect class="cls-1" x="11.07" y="15.98" width="1.84" height="2"/><path class="cls-1" d="M12,6c-2.3.1-3.48,2-3.69,4H10s.15-2.32,2-2.38a2.09,2.09,0,0,1,1,3.84A4.56,4.56,0,0,0,11,15h1.72A2.89,2.89,0,0,1,14,12.68a3.52,3.52,0,0,0,1.69-3.11A3.57,3.57,0,0,0,12.1,6Z"/></g></svg>