<svg id="Layer_1" data-name="Layer 1" xmlns="http://www.w3.org/2000/svg" width="24" height="24" viewBox="0 0 24 24"><defs><style>.cls-1{fill:#0089d9;fill-rule:evenodd;}</style></defs><path class="cls-1" d="M12.4,16.9c-.5,0-.5,0-.5-.5l1.2-4.7c.1-.7,0-1.5-.7-1.6a4.42,4.42,0,0,0-3.4,2v.3a4.77,4.77,0,0,1,1.8-.7.19.19,0,0,1,.1.3L9.5,16.4A2,2,0,0,0,11.3,18,3,3,0,0,0,14,16.4v-.8C14,15.5,12.9,16.9,12.4,16.9ZM12,0A12,12,0,1,0,24,12,12,12,0,0,0,12,0Zm0,22A10,10,0,1,1,22,12,10,10,0,0,1,12,22Zm.4-13a1.54,1.54,0,0,0,1.5-1.5,1.5,1.5,0,1,0-3,0A1.42,1.42,0,0,0,12.4,9Z"/></svg>