<svg id="Layer_1" data-name="Layer 1" xmlns="http://www.w3.org/2000/svg" width="24" height="24" viewBox="0 0 24 24"><defs><style>.cls-1{fill:#0089d9;}</style></defs><g id="List_View" data-name="List View"><rect class="cls-1" x="2" y="5" width="2" height="2"/><rect class="cls-1" x="2" y="9" width="2" height="2"/><rect class="cls-1" x="2" y="13" width="2" height="2"/><rect class="cls-1" x="2" y="17" width="2" height="2"/><path class="cls-1" d="M7,5H19a1,1,0,0,1,1,1h0a1,1,0,0,1-1,1H7A1,1,0,0,1,6,6H6A1,1,0,0,1,7,5Z"/><path class="cls-1" d="M7,9H21a1,1,0,0,1,1,1h0a1,1,0,0,1-1,1H7a1,1,0,0,1-1-1H6A1,1,0,0,1,7,9Z"/><path class="cls-1" d="M7,13H17a1,1,0,0,1,1,1h0a1,1,0,0,1-1,1H7a1,1,0,0,1-1-1H6A1,1,0,0,1,7,13Z"/><path class="cls-1" d="M7,17H21a1,1,0,0,1,1,1h0a1,1,0,0,1-1,1H7a1,1,0,0,1-1-1H6A1,1,0,0,1,7,17Z"/></g></svg>