<svg id="Layer_1" data-name="Layer 1" xmlns="http://www.w3.org/2000/svg" width="24" height="24" viewBox="0 0 24 24"><defs><style>.cls-1{fill:#d6565a;fill-rule:evenodd;}</style></defs><g id="Logon_Failed" data-name="Logon Failed"><path class="cls-1" d="M16.06,1a6,6,0,0,0-4.92,9.42L3.53,18.06c-1.38,1.57.27,2.82,1.38,1.85C5.56,20.57,7.06,22,7.06,22c1.22,1.22,2.74-.26,1.52-1.48,0,0-1.64-1.87-2.06-2.31l.88-.87c.78.72,1.75,2.09,2.73,1.11.78-.78-.49-1.82-1.22-2.6L12.73,12A6,6,0,1,0,16.06,1Zm0,10a4,4,0,1,1,4-4A4,4,0,0,1,16.06,11Z"/></g></svg>