<svg id="Layer_1" data-name="Layer 1" xmlns="http://www.w3.org/2000/svg" width="24" height="24" viewBox="0 0 24 24"><defs><style>.cls-1{fill:#0089d9;fill-rule:evenodd;}</style></defs><path class="cls-1" d="M22.5,2H17a7.74,7.74,0,0,0-5,1.9A7.74,7.74,0,0,0,7,2H1.5A1.54,1.54,0,0,0,0,3.5v15A1.61,1.61,0,0,0,1.5,20H7c4,0,5,2,5,2s1-2,5-2h5.5A1.61,1.61,0,0,0,24,18.5V3.5A1.61,1.61,0,0,0,22.5,2ZM11,19.1A8.17,8.17,0,0,0,7,18H2.1L2,17.9V4.1L2.1,4H7a5.54,5.54,0,0,1,4,1.7Zm11-1.2h0a36.8,36.8,0,0,1-5,.1,8.17,8.17,0,0,0-4,1.1V5.7A5.54,5.54,0,0,1,17,4h4.9l.1.1Z"/></svg>