<svg id="Layer_1" data-name="Layer 1" xmlns="http://www.w3.org/2000/svg" width="24" height="24" viewBox="0 0 24 24"><defs><style>.cls-1{fill:#0089d9;}</style></defs><g id="Layer_3" data-name="Layer 3"><path class="cls-1" d="M22.4,14.7l1.2-.5a.67.67,0,0,0,.2-1.1,12.86,12.86,0,0,0-1.4-1l1.2-.5a.67.67,0,0,0,.2-1.1c-.1-.1-.1-.1-2.3-1.7a8.78,8.78,0,0,0,1.8-3,.62.62,0,0,0-.2-.7C23,5,15.2.5,15,.4a.62.62,0,0,0-1,.4C13.5,3,10.7,4.7,9.7,5.3s-2.4,1-3.3,1.4h0C3.9,7.7,2.9,8,.4,8.9a.67.67,0,0,0-.1,1.2l1.1.8-1.2.8a.65.65,0,0,0,0,1.1l1.2.7-1.1.8a.65.65,0,0,0,0,1.1l1.1.7-1.1.8A.65.65,0,0,0,.3,18l8,5.3a1.7,1.7,0,0,0,.7.1c4.4-1.9,8.5-4,14.6-6.7.5-.3.6-.8.3-1.1C23.8,15.7,23.7,15.7,22.4,14.7ZM22,10.8l-4,1.7v-.9a10.93,10.93,0,0,0,2.5-1.9A8.28,8.28,0,0,0,22,10.8Zm0,2.7-4,1.7V14l2.9-1.3C21.1,12.8,21.7,13.3,22,13.5ZM15,1.9c1.3.7,5.4,3.1,6.8,3.9a11.89,11.89,0,0,1-3.9,4.3c-.1-.2-6.5-4.1-6.7-4.2A9.53,9.53,0,0,0,15,1.9ZM6.8,8l6.7,4.1c-2,.8-4,1.7-4.7,2L2.2,9.7C4.3,8.9,5.6,8.5,6.8,8ZM2.7,11.7l5.6,3.7a1.7,1.7,0,0,0,.7.1s2.4-1.1,5.1-2.2v1.1L8.8,16.7,1.9,12.2Zm0,2.6L8.4,18a1.48,1.48,0,0,0,.7.1l5.1-2.3v1.1L8.9,19.4,2,14.9Zm6.1,7.8L1.9,17.5l.7-.5,5.7,3.7a1.48,1.48,0,0,0,.7.1l5.1-2.3v1.2Zm5.9-9.9c0-.5-.1-.5-.5-.7L7.4,7.4c.8-.3,1.8-.8,2.7-1.2l7.3,4.5v8.1L14.7,20ZM18,17.9V16.6l3-1.3c.1,0,.9.7,1,.7Z"/></g></svg>