<svg id="Layer_1" data-name="Layer 1" xmlns="http://www.w3.org/2000/svg" width="24" height="24" viewBox="0 0 24 24"><defs><style>.cls-1{fill:#0089d9;fill-rule:evenodd;}</style></defs><g id="Open"><path class="cls-1" d="M23,8V6a2.15,2.15,0,0,0-2-2H12.48L10.86,2.12A2.38,2.38,0,0,0,8.5,1h-5A2.29,2.29,0,0,0,1,3.05a2.9,2.9,0,0,0,0,.51V8A1,1,0,0,0,0,9L1,19a3,3,0,0,0,3,3H20a3,3,0,0,0,3-3L24,9A1,1,0,0,0,23,8ZM3,4A1,1,0,0,1,4,3H8a2.69,2.69,0,0,1,2,1l2,2h8a1,1,0,0,1,1,1V8H3ZM21,19c0,1.1-.9,1-2,1H5c-1.1,0-2,.1-2-1L2,10A1,1,0,0,1,3,9H21a1,1,0,0,1,1,1Z"/></g></svg>