<svg id="Layer_1" data-name="Layer 1" xmlns="http://www.w3.org/2000/svg" width="24" height="24" viewBox="0 0 24 24"><defs><style>.cls-1,.cls-2{fill:#0089d9;}.cls-1{fill-rule:evenodd;}</style></defs><g id="PDF"><path class="cls-1" d="M16,.3V0H2V24H22V6.3ZM19.6,6H16V2.5ZM4,22V2H14V8h6V22Z"/><g id="PDF_Text-2" data-name="PDF Text-2"><path class="cls-2" d="M5,18V12H7.9a1.64,1.64,0,0,1,.8.6A2,2,0,0,1,9,13.8a3.12,3.12,0,0,1-.2,1c-.1.2-.2.5-.4.6l-.6.4L6.7,16H6v2Zm1-5v2H7.5a.78.78,0,0,0,.4-.4A.71.71,0,0,0,8,14a.77.77,0,0,0-.2-.6c-.1-.2-.3-.3-.4-.4Z"/><path class="cls-2" d="M10,12h2.7a1.93,1.93,0,0,1,.7.6,2.51,2.51,0,0,1,.4.9A5.83,5.83,0,0,1,14,15a4,4,0,0,1-.1,1.2,2.89,2.89,0,0,1-.6,1.1,1.46,1.46,0,0,1-.6.5H10Zm1,1v4h1.3l.4-.2c.1-.1.1-.3.2-.6A3.47,3.47,0,0,0,13,15a3.4,3.4,0,0,0-.1-1.1c-.1-.2-.1-.4-.3-.5s-.2-.3-.4-.3H11Z"/><path class="cls-2" d="M15,18V12h4v1H16v2h2v1H16v2Z"/></g></g></svg>