<svg id="Layer_1" data-name="Layer 1" xmlns="http://www.w3.org/2000/svg" width="24" height="24" viewBox="0 0 24 24"><defs><style>.cls-1{fill:#0089d9;fill-rule:evenodd;}</style></defs><g id="Paste"><path class="cls-1" d="M5,15.5a.5.5,0,0,0,.5.5H10V15H5.5A.5.5,0,0,0,5,15.5Zm0-2a.5.5,0,0,0,.5.5H10V13H5.5A.5.5,0,0,0,5,13.5ZM19,7H11V24H24V12Zm1,3,1,1H20Zm2,12H13V9h5v4h4ZM2,5H3V3H4V6h9V3h1V5h1V6h2V3H13V2H11a2.5,2.5,0,0,0-4.9,0H4V3H0V22H10V20H2ZM8.47,1C9.3,1,10,1.51,10,2H7C7,1.55,7.64,1,8.47,1ZM5,11.5a.5.5,0,0,0,.5.5H10V11H5.5A.5.5,0,0,0,5,11.5Zm0-2a.5.5,0,0,0,.5.5H10V9H5.5A.5.5,0,0,0,5,9.5Z"/></g></svg>