<svg id="Layer_1" data-name="Layer 1" xmlns="http://www.w3.org/2000/svg" width="24" height="24" viewBox="0 0 24 24"><defs><style>.cls-1{fill:#0089d9;fill-rule:evenodd;}</style></defs><path class="cls-1" d="M22.4,7.3,16.3,1.2a2.17,2.17,0,0,0-3,0c2.7,7.5-8,7.3-8,7.2a2.17,2.17,0,0,0,0,3l2.4,2.4L.6,23l9.2-7.1,2.4,2.4a2.41,2.41,0,0,0,3,0s-.3-10.8,7.2-8A2.18,2.18,0,0,0,22.4,7.3Zm-7.5,3.4a13.29,13.29,0,0,0-1.7,5.1.75.75,0,0,1-.1.5L7.3,10.5a.9.9,0,0,0,.5-.1,11.82,11.82,0,0,0,5-1.7,6,6,0,0,0,3-5l4,4A5.86,5.86,0,0,0,14.9,10.7Z"/></svg>