<svg id="Layer_1" data-name="Layer 1" xmlns="http://www.w3.org/2000/svg" width="24" height="24" viewBox="0 0 24 24"><defs><style>.cls-1{fill:#0089d9;fill-rule:evenodd;}</style></defs><g id="Preview"><path class="cls-1" d="M12,4C5.45,4,.22,11.24,0,11.53v.94C.22,12.76,5.45,20,12,20s11.78-7.24,12-7.53v-.94C23.78,11.24,18.55,4,12,4ZM2,12A23,23,0,0,1,6.25,8a7,7,0,0,0-.08,7.89A23.65,23.65,0,0,1,2,12Zm10,6a6,6,0,1,1,6-6A6,6,0,0,1,12,18Zm5.78-2a7,7,0,0,0-.08-8A23,23,0,0,1,22,12,23.52,23.52,0,0,1,17.78,16ZM12,7.93a4,4,0,0,0-1.56.32,1.54,1.54,0,0,1,.26,2.16,1.51,1.51,0,0,1-2.41,0A4,4,0,1,0,12,7.93Z"/></g></svg>