<svg id="Layer_1" data-name="Layer 1" xmlns="http://www.w3.org/2000/svg" width="24" height="24" viewBox="0 0 24 24"><defs><style>.cls-1{fill:#0089d9;}</style></defs><g id="Platform_Cloud" data-name="Platform Cloud"><g id="Normal"><path class="cls-1" d="M18.57,8.11a5.54,5.54,0,0,0-1.51.24A7.29,7.29,0,0,0,3.19,10.2,4.5,4.5,0,0,0,4.49,19H18.57a5.45,5.45,0,0,0,0-10.89Zm0,9.25H4.49A2.87,2.87,0,0,1,3.12,12,7.18,7.18,0,0,0,4,14.85a.81.81,0,0,0,1.42-.78h0a5.69,5.69,0,1,1,10-5.44L15.6,9a5.62,5.62,0,0,0-.5.35.81.81,0,0,0,1,1.24,3.82,3.82,0,1,1,2.44,6.75Z"/></g></g></svg>