<svg id="Layer_1" data-name="Layer 1" xmlns="http://www.w3.org/2000/svg" width="24" height="24" viewBox="0 0 24 24"><defs><style>.cls-1{fill:#0089d9;}</style></defs><g id="Price"><path class="cls-1" d="M3,19.13V17.28l.86.21a11.74,11.74,0,0,0,2.82.43,9.69,9.69,0,0,1-.17-1.41C4.4,16.23,3,15.7,3,15.12V13.51a25.55,25.55,0,0,0,3.71.43,9.45,9.45,0,0,1,.39-1.28c-3-.19-5.1-.82-5.1-1.53V8.92h.06c.46.93,3.82,1,6.56,1.06A9.45,9.45,0,0,1,9.89,8.72C6,8.7,3,8,3,7.13V4.72C3,5.9,7,6,10,6c4.3,0,7,0,7-1.34V6.52A9.88,9.88,0,0,1,19,7V2.64C19,1,16,0,10,0S1,1,1,2.59V5.23A1.66,1.66,0,0,0,0,6.59V12c0,.28.32.61,1,.92V20c0,.76,2.25,1.82,7.62,2a9.73,9.73,0,0,1-.92-1.35C4.94,20.41,3,19.81,3,19.13ZM3,2.88c0-1.19,4-1.69,7-1.69s7,.41,7,1.69V3.1c0,1.25-3.51,1.69-7,1.69-3,0-7-.37-7-1.69ZM16,8a8,8,0,1,0,8,8A8,8,0,0,0,16,8Zm0,14a6,6,0,1,1,6-6A6,6,0,0,1,16,22Zm1-5V12H16l-3,1.7.12.27C14.5,13.3,15,14,15,15v2c0,1.52.21,2.76-1.25,2.76V20h4.51v-.27C17.26,19.73,17,18.37,17,17Z"/></g></svg>