<svg id="Payroll_Calculations" data-name="Payroll Calculations" xmlns="http://www.w3.org/2000/svg" width="24" height="24" viewBox="0 0 24 24"><defs><style>.cls-1{fill:#0089d9;}</style></defs><path class="cls-1" d="M22,5,17,0H2V24H22ZM17,2h1l2,2V5H17ZM4,22V2H15V7h5V22Zm8.09-11.92a1.21,1.21,0,0,1,1.14.59.92.92,0,1,0,1.66-.8h0A2.86,2.86,0,0,0,13,8.35V7.92a.92.92,0,0,0-1.84,0v.44A2.78,2.78,0,0,0,9,11.53c.26,1.75,1.89,2.18,2.79,2.41h.13c1,.29,1.16.54,1.2.83a1,1,0,0,1-.21.81,1.43,1.43,0,0,1-1.06.37,1.21,1.21,0,0,1-1.14-.59A1,1,0,0,0,9,16.2H9a2.86,2.86,0,0,0,2.1,1.56v.46a.92.92,0,1,0,1.84,0v-.57a2.72,2.72,0,0,0,2-3.1,3,3,0,0,0-2.56-2.35h-.08c-1.17-.3-1.4-.53-1.45-.9a1,1,0,0,1,.21-.81,1.41,1.41,0,0,1,1.08-.4Z"/></svg>