<svg id="Layer_1" data-name="Layer 1" xmlns="http://www.w3.org/2000/svg" width="24" height="24" viewBox="0 0 24 24"><defs><style>.cls-1{fill:#0089d9;fill-rule:evenodd;}</style></defs><g id="Report"><path class="cls-1" d="M22,21H3V2A1,1,0,0,0,1,2V22a1,1,0,0,0,1,1H22a1,1,0,0,0,0-2Z"/><path class="cls-1" d="M7,11a1,1,0,0,1,1,1v6a1,1,0,0,1-2,0V12A1,1,0,0,1,7,11Z"/><path class="cls-1" d="M15,9a1,1,0,0,1,1,1v8a1,1,0,0,1-2,0V10A1,1,0,0,1,15,9Z"/><path class="cls-1" d="M11,7a1,1,0,0,1,1,1V18a1,1,0,0,1-2,0V8A1,1,0,0,1,11,7Z"/><path class="cls-1" d="M19,3a1,1,0,0,1,1,1V18a1,1,0,0,1-2,0V4A1,1,0,0,1,19,3Z"/></g></svg>