<svg id="Layer_1" data-name="Layer 1" xmlns="http://www.w3.org/2000/svg" width="24" height="24" viewBox="0 0 24 24"><defs><style>.cls-1{fill:#0089d9;fill-rule:evenodd;}</style></defs><g id="Storage"><path class="cls-1" d="M12.5,22A1.5,1.5,0,1,0,11,20.5,1.5,1.5,0,0,0,12.5,22Zm0,2A3.5,3.5,0,1,0,9,20.5,3.5,3.5,0,0,0,12.5,24ZM9.19,3.91,14,5.2,12.73,10,7.9,8.74Zm1.9,12.32L12.51,11,3.81,8.64,2,15.4l7.29,2A4.5,4.5,0,0,1,11.09,16.23ZM12.71,16l4-15A1.38,1.38,0,0,1,18,0h3a1,1,0,0,1,0,2H18.47L14.63,16.54A4.46,4.46,0,0,0,12.71,16ZM8,20.31,3.6,19.13a1,1,0,0,1,.52-1.93l4.42,1.18A4.47,4.47,0,0,0,8,20.31Z"/></g></svg>