<svg id="Layer_1" data-name="Layer 1" xmlns="http://www.w3.org/2000/svg" width="24" height="24" viewBox="0 0 24 24"><defs><style>.cls-1{fill:#0089d9;}</style></defs><g id="Secret_Document" data-name="Secret Document"><path class="cls-1" d="M16,0A8,8,0,0,0,8,8a7.89,7.89,0,0,0,.58,3L.29,19.29A1,1,0,0,0,0,20v3a1,1,0,0,0,1,1H5a1,1,0,0,0,1-1V22H7a1,1,0,0,0,1-1V20H9a1,1,0,0,0,1-1V18h1a1,1,0,0,0,.71-.29l2-2A8,8,0,1,0,18,.29,7.69,7.69,0,0,0,16,0ZM13.83,13.6a1,1,0,0,0-1.07.23L10.59,16H9a1,1,0,0,0-1,1v1H7a1,1,0,0,0-1,1v1H5a1,1,0,0,0-1,1v1H2V20.41l8.49-8.49a1,1,0,0,0,.18-1.17,6,6,0,1,1,3.16,2.84ZM17.5,4A2.5,2.5,0,1,0,20,6.5,2.5,2.5,0,0,0,17.5,4Zm0,4A1.5,1.5,0,1,1,19,6.5,1.5,1.5,0,0,1,17.5,8Z"/></g></svg>