<svg id="Layer_1" data-name="Layer 1" xmlns="http://www.w3.org/2000/svg" width="24" height="24" viewBox="0 0 24 24"><defs><style>.cls-1{fill:#0089d9;}</style></defs><path class="cls-1" d="M9.1,9.4A4,4,0,0,0,9.2,15a4.07,4.07,0,0,0,5.7-.1A4,4,0,0,0,9.1,9.4ZM13.9,14a2.69,2.69,0,1,1-.1-3.8A2.69,2.69,0,0,1,13.9,14Zm8.6-4.4-2-.4c-.1-.3-.3-.7-.4-1l1.1-1.7a1.45,1.45,0,0,0,0-2.1L19.7,2.9a1.45,1.45,0,0,0-2.1,0L15.9,4c-.3-.1-.6-.3-.9-.4l-.4-2.1A1.54,1.54,0,0,0,13.1,0H11A1.54,1.54,0,0,0,9.5,1.5L9,3.7a3.55,3.55,0,0,0-.9.4L6.4,2.9a1.45,1.45,0,0,0-2.1,0L2.8,4.4a1.45,1.45,0,0,0,0,2.1L3.9,8.2a3,3,0,0,0-.4,1l-2,.4A1.54,1.54,0,0,0,0,11.1v2.1a1.54,1.54,0,0,0,1.5,1.5l2,.4a6.89,6.89,0,0,0,.4,1L2.8,17.8a1.45,1.45,0,0,0,0,2.1l1.5,1.5a1.45,1.45,0,0,0,2.1,0l1.7-1.1a10.37,10.37,0,0,0,1,.4l.4,2A1.54,1.54,0,0,0,11,24.2h2.1a1.54,1.54,0,0,0,1.5-1.5l.4-2c.3-.1.7-.3,1-.4l1.7,1.1a1.45,1.45,0,0,0,2.1,0l1.5-1.5a1.45,1.45,0,0,0,0-2.1l-1.1-1.7a3,3,0,0,0,.4-1l2-.4a1.54,1.54,0,0,0,1.5-1.5V11.1A1.62,1.62,0,0,0,22.5,9.6ZM22,12.5a.68.68,0,0,1-.7.7l-2.2.4a.37.37,0,0,1-.3-.1A6.19,6.19,0,0,1,17.7,16c.1,0,.2.1.3.2L19.3,18a.67.67,0,0,1,0,1l-.5.5a.67.67,0,0,1-1,0L16,18.2c-.1-.1-.1-.2-.2-.3a6.4,6.4,0,0,1-2.6,1,.37.37,0,0,1,.1.3l-.4,2.2a.68.68,0,0,1-.7.7h-.7a.68.68,0,0,1-.7-.7l-.3-2.2a.76.76,0,0,1,.1-.4A6.6,6.6,0,0,1,8,17.7c0,.1-.1.2-.2.3L6,19.3a.67.67,0,0,1-1,0L4.6,19a.67.67,0,0,1,0-1l1.3-1.8c.1-.1.2-.1.3-.2a8,8,0,0,1-1.1-2.5.37.37,0,0,1-.3.1l-2.2-.4a.68.68,0,0,1-.7-.7v-.7a.68.68,0,0,1,.7-.7l2.2-.3a.37.37,0,0,1,.3.1,6.91,6.91,0,0,1,1-2.5.35.35,0,0,1-.2-.1L4.6,6.5a.67.67,0,0,1,0-1L5.1,5a.67.67,0,0,1,1,0L7.9,6c.1.1.1.2.2.2a6,6,0,0,1,2.5-1c0-.1-.1-.2-.1-.3l.3-2.2a.68.68,0,0,1,.7-.7h.7a.68.68,0,0,1,.7.7l.4,2.2a.37.37,0,0,1-.1.3,7.71,7.71,0,0,1,2.5,1,.35.35,0,0,1,.1-.2l1.8-1.3a.67.67,0,0,1,1,0l.5.5a.67.67,0,0,1,0,1L17.8,8c-.1.1-.1.1-.2.1a6,6,0,0,1,1,2.5c.1,0,.2-.1.3-.1l2.4.3a.68.68,0,0,1,.7.7v1Z"/></svg>