<svg id="Layer_1" data-name="Layer 1" xmlns="http://www.w3.org/2000/svg" width="24" height="24" viewBox="0 0 24 24"><defs><style>.cls-1{fill:#0089d9;}</style></defs><g id="Sort_List" data-name="Sort List"><polygon class="cls-1" points="5 3 5 16 2 16 6 21 10 16 7 16 7 3 5 3"/><path class="cls-1" d="M13,5h2a1,1,0,0,1,1,1h0a1,1,0,0,1-1,1H13a1,1,0,0,1-1-1h0A1,1,0,0,1,13,5Z"/><path class="cls-1" d="M13,9h4a1,1,0,0,1,1,1h0a1,1,0,0,1-1,1H13a1,1,0,0,1-1-1h0A1,1,0,0,1,13,9Z"/><path class="cls-1" d="M13,13h6a1,1,0,0,1,1,1h0a1,1,0,0,1-1,1H13a1,1,0,0,1-1-1h0A1,1,0,0,1,13,13Z"/><path class="cls-1" d="M13,17h8a1,1,0,0,1,1,1h0a1,1,0,0,1-1,1H13a1,1,0,0,1-1-1h0A1,1,0,0,1,13,17Z"/></g></svg>