<svg id="Layer_1" data-name="Layer 1" xmlns="http://www.w3.org/2000/svg" width="24" height="24" viewBox="0 0 24 24"><defs><style>.cls-1{fill:#0089d9;fill-rule:evenodd;}</style></defs><path class="cls-1" d="M12,8.5A1.5,1.5,0,1,0,10.5,10,1.54,1.54,0,0,0,12,8.5ZM11,9H10V8h1Zm3,9a2,2,0,1,0,2,2A2,2,0,0,0,14,18Zm0,2.9a.9.9,0,1,1,.9-.9A.9.9,0,0,1,14,20.9ZM9,18a2,2,0,1,0,2,2A2,2,0,0,0,9,18Zm0,2.9a.9.9,0,1,1,.9-.9A.9.9,0,0,1,9,20.9ZM18.5,7A1.5,1.5,0,1,0,20,8.5,1.54,1.54,0,0,0,18.5,7ZM19,9H18V8h1Zm3.2-5.2c-.8.1-11.5.5-15.6-.2C5.5,1.6,4.5,1,1.9,1-1,1-.1,3.9,1.2,4a1.67,1.67,0,0,0,1.9-.9c1.1.1,2.9,1.5,3.4,12A2.31,2.31,0,0,0,8.9,17c2-.1,7.1-.2,9.5-.9,2.2-.7,4.9-2.3,5.5-9.8.2-2-.3-2.6-1.7-2.5Zm-.1,3.5A12.58,12.58,0,0,1,20.7,12c-1.1,2.2-3.5,3-10.9,3.1-1.1,0-1.6-1.1-1.7-2.2A30,30,0,0,0,6.9,5.8a107.7,107.7,0,0,0,13.9.1C22,5.7,22.2,5.8,22.1,7.3ZM16.5,10A1.5,1.5,0,1,0,18,11.5,1.54,1.54,0,0,0,16.5,10Zm.5,2H16V11h1Zm-4.5-2A1.5,1.5,0,1,0,14,11.5,1.54,1.54,0,0,0,12.5,10Zm.5,2H12V11h1Zm3-3.5A1.5,1.5,0,1,0,14.5,10,1.54,1.54,0,0,0,16,8.5ZM15,9H14V8h1Z"/></svg>