<svg id="Layer_1" data-name="Layer 1" xmlns="http://www.w3.org/2000/svg" width="24" height="24" viewBox="0 0 24 24"><defs><style>.cls-1{fill:#0089d9;fill-rule:evenodd;}</style></defs><g id="Undefined_Document" data-name="Undefined Document"><path class="cls-1" d="M2,8H8V2H18V6h2V0H6L0,6V24H16V22H2ZM6,2V6H2ZM19,8c-3,0-5,2-5,6h2s-.35-4,3-4c1.93,0,3,.89,3,2.39a4.15,4.15,0,0,1-1.26,3.12C19.61,16.7,18,18,18,21h2c0-3,1.57-3.32,2.34-4.32A6.47,6.47,0,0,0,24,12.31C24,9.91,21.81,8,19,8ZM18,24h2V22H18Z"/></g></svg>