<svg id="User_Settings_Gender_Free" data-name="User Settings Gender Free" xmlns="http://www.w3.org/2000/svg" xmlns:xlink="http://www.w3.org/1999/xlink" width="24" height="24" viewBox="0 0 24 24"><defs><style>.cls-1{fill:none;opacity:0;clip-rule:evenodd;}.cls-2{clip-path:url(#clip-path);}.cls-3{fill:#0087e0;}.cls-4{fill:#0089d9;}</style><clipPath id="clip-path"><polygon id="Mask" class="cls-1" points="24 0 0 0 0 24 10 24 10 18 10 14 13 12 14 10 24 10 24 0"/></clipPath></defs><g id="User_Gender_Free" data-name="User Gender Free"><g class="cls-2"><path class="cls-3" d="M12.53,11.83a3.36,3.36,0,0,0,.72,2,3.79,3.79,0,0,0,1.86,1,20.86,20.86,0,0,1,2.54.74,4,4,0,0,1,1.36.89A3.39,3.39,0,0,1,19.84,18a5.69,5.69,0,0,1,.11.8V19a1.4,1.4,0,0,1-.1.51,1.32,1.32,0,0,1-.5.59,3.34,3.34,0,0,1-.87.3c-.24.06-.46.14-.69.19a17.51,17.51,0,0,1-2.64.34c-1.73.1-3.44.16-5.16.15s-3.43,0-5.17-.13A17.55,17.55,0,0,1,2.2,20.6a4.44,4.44,0,0,1-1.58-.49,1.38,1.38,0,0,1-.48-.61A1.4,1.4,0,0,1,0,19v-.2A5.69,5.69,0,0,1,.16,18,3.29,3.29,0,0,1,1,16.46a4,4,0,0,1,1.36-.89,20.86,20.86,0,0,1,2.54-.74,3.71,3.71,0,0,0,1.85-1,3.37,3.37,0,0,0,.73-2h0A.5.5,0,0,1,8,11.38a.49.49,0,0,1,.44.45,4.42,4.42,0,0,1-.66,2.81,4.93,4.93,0,0,1-2.4,1.67c-.85.32-1.68.53-2.32.84A1.66,1.66,0,0,0,2,18.4a2.37,2.37,0,0,0,0,.47V19a.54.54,0,0,0,0-.2c-.06-.13-.1-.13-.09-.12a1.38,1.38,0,0,0,.75.53A16,16,0,0,0,5,19.74a31.2,31.2,0,0,0,5,.37,31.2,31.2,0,0,0,5-.36,16.17,16.17,0,0,0,2.4-.53,2.6,2.6,0,0,0,.51-.21c.15-.09.26-.24.25-.31s0,0-.11.09a.54.54,0,0,0,0,.2v-.12a2.37,2.37,0,0,0,0-.47,1.66,1.66,0,0,0-1.06-1.25c-.64-.31-1.47-.52-2.32-.84a4.93,4.93,0,0,1-2.4-1.68,4.38,4.38,0,0,1-.66-2.8.48.48,0,0,1,.52-.45.49.49,0,0,1,.45.44Z"/><path class="cls-3" d="M10,12.11A3.52,3.52,0,0,0,12.68,10a8.15,8.15,0,0,0,1-3.62A5.18,5.18,0,0,0,12.85,3a2.68,2.68,0,0,0-1.23-.86A4.44,4.44,0,0,0,10,1.91,3.22,3.22,0,0,0,7.18,3.06,5.29,5.29,0,0,0,6.45,6.4,8.4,8.4,0,0,0,7.39,10,3.61,3.61,0,0,0,10,12.11ZM10,13a3.49,3.49,0,0,1-2.14-.82,6.27,6.27,0,0,1-1.43-1.66,9.81,9.81,0,0,1-1.37-4,6.58,6.58,0,0,1,.74-4.4A4.3,4.3,0,0,1,7.7.54,6.11,6.11,0,0,1,10,.09a5.7,5.7,0,0,1,2.3.44,4,4,0,0,1,1.87,1.61,6.51,6.51,0,0,1,.66,4.37,10.07,10.07,0,0,1-1.33,4,6.23,6.23,0,0,1-1.4,1.64A3.44,3.44,0,0,1,10,13Z"/></g></g><path class="cls-4" d="M24,19V16H21.7c-.1-.1-.1-.3-.2-.4L23.1,14,21,11.9l-1.6,1.6c-.1-.1-.3-.1-.4-.2V11H16v2.3c-.1.1-.3.1-.4.2L14,11.9,11.8,14l1.6,1.6c-.1.1-.1.3-.2.4H11v3h2.3c.1.1.1.3.2.4L11.8,21l2.1,2.1,1.6-1.6c.1.1.3.1.4.2V24h3V21.7c.1-.1.3-.1.4-.2l1.6,1.6L23,21l-1.6-1.6c.1-.1.1-.3.2-.4Zm-2.6,1.7-.7.7L19,19.7a3.55,3.55,0,0,1-.9.4v2.5h-1V20l-.9-.4-1.7,1.7-.7-.7,1.7-1.7-.4-.9H12.6V17h2.5l.4-1-1.7-1.7.7-.7,1.7,1.7.8-.4V12.4h1V15a4.93,4.93,0,0,1,.9.4l1.7-1.7.7.7-1.7,1.7a1.78,1.78,0,0,1,.4,1h2.4v1H20a3.55,3.55,0,0,1-.4.9Zm-5-4.2a1.48,1.48,0,1,0,2.1,0A1.37,1.37,0,0,0,16.4,16.5ZM18,18H17V17h1Z"/></svg>