<svg id="User_List_2_Gender_Free" data-name="User List 2 Gender Free" xmlns="http://www.w3.org/2000/svg" xmlns:xlink="http://www.w3.org/1999/xlink" width="53" height="24" viewBox="0 0 53 24"><defs><style>.cls-1{fill:none;opacity:0;clip-rule:evenodd;}.cls-2{clip-path:url(#clip-path);}.cls-3{fill:#0087e0;}.cls-4,.cls-5{fill:#0089d9;}.cls-5{fill-rule:evenodd;}</style><clipPath id="clip-path"><polygon id="Mask" class="cls-1" points="24 0 0 0 0 24 12 24 12 12 24 12 24 0"/></clipPath></defs><g id="Normal"><g id="Gender-Free"><g class="cls-2"><path class="cls-3" d="M11.53,11.83a4.14,4.14,0,0,0,.58,1.93,2.81,2.81,0,0,0,1.51,1,18.58,18.58,0,0,1,2.28.77,3.61,3.61,0,0,1,1.22.92,3.28,3.28,0,0,1,.7,1.41,4.51,4.51,0,0,1,.12.72L18,19a1.34,1.34,0,0,1-.24.79,1.51,1.51,0,0,1-.88.54l-.67.22a12.69,12.69,0,0,1-2.43.4c-1.6.11-3.17.17-4.74.16s-3.14,0-4.74-.15a13.54,13.54,0,0,1-2.44-.38c-.21-.06-.45-.1-.7-.18a1.62,1.62,0,0,1-.85-.61A1.33,1.33,0,0,1,0,19l0-.34a4.51,4.51,0,0,1,.12-.72,3.23,3.23,0,0,1,.7-1.41,3.61,3.61,0,0,1,1.22-.92,18.58,18.58,0,0,1,2.28-.77,2.81,2.81,0,0,0,1.51-1,4.14,4.14,0,0,0,.58-1.93v0A.49.49,0,0,1,7,11.38a.5.5,0,0,1,.43.45A4.92,4.92,0,0,1,7,14.4a4.07,4.07,0,0,1-2,1.83c-.78.36-1.53.58-2.08.88A1.53,1.53,0,0,0,2,18.31a2,2,0,0,0,0,.43V19a.47.47,0,0,0-.07-.24c-.09-.09-.06,0,0,.13a1.39,1.39,0,0,0,.38.28,11.14,11.14,0,0,0,2.12.57A24.92,24.92,0,0,0,9,20.11a25.82,25.82,0,0,0,4.58-.37,11.45,11.45,0,0,0,2.13-.57,1,1,0,0,0,.4-.23c.09-.11.12-.27,0-.19S16,19,16,19v-.24a2.82,2.82,0,0,0,0-.43,1.53,1.53,0,0,0-.88-1.2c-.55-.3-1.3-.52-2.08-.88a4.07,4.07,0,0,1-2-1.83,4.92,4.92,0,0,1-.42-2.57.49.49,0,0,1,1,0Z"/><path class="cls-3" d="M9,12.11A3.52,3.52,0,0,0,11.68,10a8.15,8.15,0,0,0,1-3.62A5.18,5.18,0,0,0,11.85,3a2.68,2.68,0,0,0-1.23-.86A4.44,4.44,0,0,0,9,1.91,3.22,3.22,0,0,0,6.18,3.06,5.29,5.29,0,0,0,5.45,6.4,8.4,8.4,0,0,0,6.39,10,3.61,3.61,0,0,0,9,12.11ZM9,13a3.49,3.49,0,0,1-2.14-.82,6.27,6.27,0,0,1-1.43-1.66,9.81,9.81,0,0,1-1.37-4,6.58,6.58,0,0,1,.74-4.4A4.3,4.3,0,0,1,6.7.54,6.11,6.11,0,0,1,9,.09a5.7,5.7,0,0,1,2.3.44,4,4,0,0,1,1.87,1.61,6.51,6.51,0,0,1,.66,4.37,10.07,10.07,0,0,1-1.33,4,6.23,6.23,0,0,1-1.4,1.64A3.44,3.44,0,0,1,9,13Z"/></g></g><path class="cls-4" d="M13,21h2V19H13Zm0-3h2V16H13Zm4-3h6a1,1,0,0,0,0-2H17a1,1,0,0,0,0,2Zm-4,9h2V22H13Zm10-2H17a1,1,0,0,0,0,2h6a1,1,0,0,0,0-2ZM13,15h2V13H13Zm10,1H17a1,1,0,0,0,0,2h6a1,1,0,0,0,0-2Zm0,3H17a1,1,0,0,0,0,2h6a1,1,0,0,0,0-2Z"/></g><g id="Filled"><path class="cls-4" d="M46,15h6a1,1,0,0,0,0-2H46a1,1,0,0,0,0,2Zm-4,6h2V19H42Zm0-3h2V16H42Zm0,6h2V22H42Zm10-5H46a1,1,0,0,0,0,2h6a1,1,0,0,0,0-2ZM42,15h2V13H42Zm10,1H46a1,1,0,0,0,0,2h6a1,1,0,0,0,0-2Zm0,6H46a1,1,0,0,0,0,2h6a1,1,0,0,0,0-2Z"/><path class="cls-5" d="M41,13a5.12,5.12,0,0,1-.4-1.41A9,9,0,0,0,43.11,5c0-3.37-1.88-5-4.92-5s-4.92,1.62-4.92,5a9,9,0,0,0,2.5,6.55c-.68,5.3-6.77,2.27-6.77,7.55,0,1.54,6.69,2.14,12,1.83Z"/></g></svg>