<svg id="Layer_1" data-name="Layer 1" xmlns="http://www.w3.org/2000/svg" width="24" height="24" viewBox="0 0 24 24"><defs><style>.cls-1{fill:#0089d9;fill-rule:evenodd;}</style></defs><g id="Upload"><path class="cls-1" d="M23.63,1.24A1,1,0,0,0,23,1H1A1,1,0,0,0,0,2H0V16a1,1,0,0,0,1,1H7a1,1,0,0,0,0-2H2V3H22V15H17a1,1,0,0,0,0,2h6a1,1,0,0,0,1-1V2A1,1,0,0,0,23.63,1.24ZM17.37,11.87a.9.9,0,0,0,0-1.26l-.07-.06-4-4a1.06,1.06,0,0,0-.66-.34,1,1,0,0,0-1.38,0,1.1,1.1,0,0,0-.61.32l-3.95,4A.9.9,0,0,0,8,11.8H8l3-3V22a1,1,0,0,0,2,0V8.73l3.05,3a.9.9,0,0,0,1.27.14S17.35,11.89,17.37,11.87Z"/></g></svg>