<svg id="Layer_1" data-name="Layer 1" xmlns="http://www.w3.org/2000/svg" width="53" height="24" viewBox="0 0 53 24"><defs><style>.cls-1{fill:#0089d9;fill-rule:evenodd;}</style></defs><g id="Unread_comment" data-name="Unread comment"><path class="cls-1" d="M50,7a4,4,0,0,1-4-4,4.07,4.07,0,0,1,.54-2H35a6,6,0,0,0-6,6v6a6,6,0,0,0,6,6c1,0,2,3,2,5h1c0-3,3.61-5,4.94-5H47a6,6,0,0,0,6-6V7a5.65,5.65,0,0,0-.13-1.23A4,4,0,0,1,50,7ZM36,12a2,2,0,1,1,2-2A2,2,0,0,1,36,12Zm5,0a2,2,0,1,1,2-2A2,2,0,0,1,41,12Zm5,0a2,2,0,1,1,2-2A2,2,0,0,1,46,12Z"/><path class="cls-1" d="M50,0a3,3,0,1,1-3,3A3,3,0,0,1,50,0Z"/><path class="cls-1" d="M10,10a2,2,0,1,0,2-2A2,2,0,0,0,10,10Zm3,0a1,1,0,1,1-1-1A1,1,0,0,1,13,10Zm2,0a2,2,0,1,0,2-2A2,2,0,0,0,15,10Zm3,0a1,1,0,1,1-1-1A1,1,0,0,1,18,10ZM5,10A2,2,0,1,0,7,8,2,2,0,0,0,5,10Zm3,0A1,1,0,1,1,7,9,1,1,0,0,1,8,10ZM23.87,5.77A4,4,0,0,1,22,6.86V13a3.7,3.7,0,0,1-3.37,4A3.32,3.32,0,0,1,18,17H14a5.92,5.92,0,0,0-5.23,3.19C8.71,18.2,7.77,17,6,17a3.7,3.7,0,0,1-4-3.37A3.32,3.32,0,0,1,2,13V7A3.7,3.7,0,0,1,5.37,3,3.31,3.31,0,0,1,6,3H17a4,4,0,0,1,.56-2H6A6,6,0,0,0,0,7v6a6,6,0,0,0,6,6c1,0,2,3,2,5H9c0-3,3.61-5,4.94-5H18a6,6,0,0,0,6-6V7A5.65,5.65,0,0,0,23.87,5.77Z"/><path class="cls-1" d="M21,0a3,3,0,1,1-3,3A3,3,0,0,1,21,0Z"/></g></svg>