<svg id="User_folder" xmlns="http://www.w3.org/2000/svg" width="24" height="24" viewBox="0 0 24 24"><defs><style>.cls-1,.cls-2{fill:#0089d9;}.cls-2{fill-rule:evenodd;}</style></defs><g id="User_Folder-2" data-name="User Folder"><path class="cls-1" d="M21,3H11.5S10,0,8,0H3A3.23,3.23,0,0,0,0,3V17a3.23,3.23,0,0,0,3,3H8.06A14.39,14.39,0,0,0,11,18H3a1.08,1.08,0,0,1-1-1V5H21a1.08,1.08,0,0,1,1,1V17a1.08,1.08,0,0,1-1,1H19.42a12.27,12.27,0,0,0,2.48,1.82A3.26,3.26,0,0,0,24,17V6A3.23,3.23,0,0,0,21,3ZM2,4V3A1.08,1.08,0,0,1,3,2H8c1,0,2,2,2,2Z"/></g><g id="Gender-Free"><path class="cls-2" d="M16.68,16c0,5.13,4.95,2.28,4.95,6.55,0,1.93-13.32,1.93-13.32,0,0-4.27,5-1.42,5-6.55"/><path class="cls-2" d="M15,17.63c1.7,0,3.57-2.47,3.57-5.83C18.54,9.24,17.18,8,15,8S11.4,9.24,11.4,11.8C11.4,15.16,13.27,17.63,15,17.63Z"/></g></svg>