<svg id="Layer_1" data-name="Layer 1" xmlns="http://www.w3.org/2000/svg" width="24" height="24" viewBox="0 0 24 24"><defs><style>.cls-1{fill:#0089d9;}</style></defs><g id="Web"><path class="cls-1" d="M12,0A12,12,0,1,0,24,12,12,12,0,0,0,12,0Zm0,22a10,10,0,0,1-9.38-6.54c1,1,3.06,2.78,3.27,2.11.14-.45-.84-2.66-1-3.06-.44-.88.65-.86.58-2.1,0-.17-.86-.84-.91-.89C4.24,11.31,3,11.17,3.31,11s1.44-.28,1.56-.45c.46-.34.41-1,.75-1.1A2.35,2.35,0,0,0,6.69,7.54a2.12,2.12,0,0,1,.61-1.6C7.53,5.6,6.23,4.62,5.42,4.5a10,10,0,0,1,5-2.36c-.06.43-.1,1,.15,1.08.57.11.11.51.52.72.22.11.16-.86.62-.42.08.07.46-.64.55.07v.06c0,.35-1.16.93-1.31,1.5-.19.74,0,.33-.59.6a1.38,1.38,0,0,0-.26,1s-.39.18-.33.49c.11.58.54,1.19.78,1.11.43-.14.34-1,.78-1,.05,0,.77.61.78.61.16,0-.23-.66,0-.8s1.14.33,1.28.42.27.82-.92,1.09a1.94,1.94,0,0,0-1.7.24c-.6.46-.52,1.62-.44,2.31s.72.8,1.28,1c.27.08.58,0,.87.07.35.26,1.06.1,1.14,2.07-.07.79.77,1,.75,1.81s1.49.29,1.78-.14c.56-.84.23-1.78.35-2.73.06-.48.45-.44.32-1.21a5.65,5.65,0,0,1,.1-2.35c.09-.38-.58-.67-.86-.49-.91.58-.55.36-1.48-.06-.18-.08-.4-.22-.61-.31l1.24.28c.35-.08,1-.17,1.16-.45-1.84-1.18-1.21-1.41-1.19-1.4.19,0,.09.8.83.39,1-.57,1.22-.46,1.55.63.16.54,1,.43,1.32.76a3,3,0,0,0,1,.73c.12,0-.23-1.09,0-1.44a7.18,7.18,0,0,0,.22-1.14,3.13,3.13,0,0,1,.27-.72A10,10,0,0,1,12,22Zm5.32-4c-.51-.64-1.74.14-2.27.5-.36.25-1.58.27-1.6.72,0,1.1-1.19.61-.7,1.6V21a12.33,12.33,0,0,0,1.35.13,5,5,0,0,0,2.31-1c.51-.39,2.33-1.31,2.3-2s-1,.3-1.37-.15Z"/></g></svg>