<svg id="Layer_1" data-name="Layer 1" xmlns="http://www.w3.org/2000/svg" width="24" height="24" viewBox="0 0 24 24"><defs><style>.cls-1{fill:#0089d9;fill-rule:evenodd;}</style></defs><g id="Zoom_In" data-name="Zoom In"><path class="cls-1" d="M23.74,22.17,20.67,19.1a1,1,0,0,0-1-.18l-.54-.54a11,11,0,1,0-.71.71l.59.59a1.07,1.07,0,0,0,.23,1l3.07,3.07a1,1,0,0,0,1.41-.05s0,0,0,0A1.08,1.08,0,0,0,23.74,22.17ZM11,20a9,9,0,1,1,9-9A9,9,0,0,1,11,20Zm3-10H12V8a1,1,0,0,0-2,0v2H8a1,1,0,0,0,0,2h2v2a1,1,0,0,0,2,0V12h2a1,1,0,0,0,0-2Z"/></g></svg>