<svg id="Layer_1" data-name="Layer 1" xmlns="http://www.w3.org/2000/svg" width="100" height="16.09" viewBox="0 0 100 16.09"><g id="Help"><path d="M92,0a8,8,0,1,0,8,8A8,8,0,0,0,92,0Zm1,12H91V10.8h2Zm.4-3.5a2,2,0,0,0-.6,1.5H91a3.11,3.11,0,0,1,1.3-2.5c.4-.3.8-.5.8-1.1s-.4-.9-1.1-.9a1.5,1.5,0,0,0-1.3,1.4s-1.3-.1-1.2-1A2.6,2.6,0,0,1,92,4a2.4,2.4,0,0,1,1.4,4.5Z" transform="translate(0 0.09)" style="fill:#0089d9"/></g><g id="Info"><path d="M71,0a8,8,0,1,0,8,8A8,8,0,0,0,71,0Zm1.5,10.9A1.89,1.89,0,0,1,70.7,12c-.6,0-1.2-.7-1.1-1.1L70.5,8c0-.1,0-.2-.1-.2l-1.2.4V8a2.91,2.91,0,0,1,2.2-1.3c.5.1.6.6.5,1.1l-.8,3c0,.2.1.3.4.3s1-.8,1-.7ZM71.43,6h0A1.09,1.09,0,0,1,70.3,5a1.1,1.1,0,0,1,2.2,0A1.08,1.08,0,0,1,71.43,6Z" transform="translate(0 0.09)" style="fill:#0089d9"/></g><g id="Warning"><path d="M57.7,12.6,51.3.8A1.4,1.4,0,0,0,49.5,0c-.4.2-.7.4-.8.8L42.3,12.6a1.5,1.5,0,0,0,.3,2.1,1.1,1.1,0,0,0,1.1.3H56.3A1.6,1.6,0,0,0,58,13.7,1.41,1.41,0,0,0,57.7,12.6ZM51,13H49V11h2Zm-.2-4.4c0,.3-.2,1.4-.8,1.4s-.8-1.1-.8-1.5L49,5c0-.4,0-1,1-1s1,.6,1,1Z" transform="translate(0 0.09)" style="fill:#ff8b00"/></g><g id="Error"><path d="M29,0a8,8,0,1,0,8,8A8,8,0,0,0,29,0Zm1,12H28V10h2Zm-.2-4.4c0,.3-.2,1.4-.8,1.4s-.8-1.1-.8-1.5L28,5c0-.4,0-1,1-1s1,.6,1,1Z" transform="translate(0 0.09)" style="fill:#d6565a"/></g><g id="Success"><path d="M8,0a8,8,0,1,0,8,8A8,8,0,0,0,8,0ZM7,11.2,4.5,8.5l.6-.6A7.53,7.53,0,0,1,7,9.1a34.22,34.22,0,0,1,4.5-4l.4.4Z" transform="translate(0 0.09)" style="fill:#68a611"/></g></svg>