<svg id="Layer_1" data-name="Layer 1" xmlns="http://www.w3.org/2000/svg" width="140" height="24.03" viewBox="0 0 140 24.03"><g id="Help"><path d="M128,0a12,12,0,1,0,12,12A12,12,0,0,0,128,0Zm1,18h-2V16h2Zm1-5.3a3.1,3.1,0,0,0-1.4,2.3l-1.3-.1a4.41,4.41,0,0,1,1.8-3.5,2,2,0,0,0,.7-1.6A1.79,1.79,0,0,0,128,8.2a2.49,2.49,0,0,0-2.4,1.6s-1.8.7-1.3-1A4,4,0,0,1,128,6a3.49,3.49,0,0,1,2.8,1.5l0,0A3.71,3.71,0,0,1,130,12.7Z" transform="translate(0 0.03)" style="fill:#0089d9"/></g><g id="Info"><path d="M99,0a12,12,0,1,0,12,12A12,12,0,0,0,99,0Zm1.9,16.5a3,3,0,0,1-2.7,1.6c-1,0-1.9-1-1.7-1.6l1.4-4.4a.41.41,0,0,0-.1-.3,6.36,6.36,0,0,0-1.8.6v-.3a4.23,4.23,0,0,1,3.4-1.8c.7.1.8.9.7,1.6l-1.2,4.4c-.1.3.1.5.5.5s1.5-1.3,1.5-1.1ZM99.4,9a1.5,1.5,0,1,1,1.5-1.5A1.5,1.5,0,0,1,99.4,9Z" transform="translate(0 0.03)" style="fill:#0089d9"/></g><g id="Warning"><path d="M81.5,19.9c-.6-1.1-9-16.8-10-18.9A1.7,1.7,0,0,0,69.3.1a2,2,0,0,0-.9.9c-1,2-9.4,17.8-10,18.9S58.1,23,60,23H80C81.9,23,82.5,21.7,81.5,19.9ZM70,7c.5,0,1.3.4,1.3,1l-.5,6.2a.89.89,0,0,1-.8.8h-.1a.89.89,0,0,1-.8-.8L68.7,8C68.7,7.5,69.4,7,70,7Zm0,12a1.5,1.5,0,1,1,1.5-1.5A1.5,1.5,0,0,1,70,19Z" transform="translate(0 0.03)" style="fill:#ff8b00"/></g><g id="Error"><path d="M41,0A12,12,0,1,0,53,12,12,12,0,0,0,41,0Zm0,6c.6,0,1.3.4,1.3,1l-.5,6.2a.89.89,0,0,1-.8.8h-.1a.89.89,0,0,1-.8-.8L39.7,7C39.7,6.5,40.4,6,41,6Zm0,12a1.5,1.5,0,1,1,1.5-1.5A1.5,1.5,0,0,1,41,18Z" transform="translate(0 0.03)" style="fill:#d6565a"/></g><g id="Success"><path d="M12,0A12,12,0,1,0,24,12,12,12,0,0,0,12,0ZM10.1,16.8c-1.5-2-3.3-4-3.3-4l.9-.9a18.3,18.3,0,0,1,2.5,2.4,40.61,40.61,0,0,1,7.1-6.7l.5.6S14.2,11.8,10.1,16.8Z" transform="translate(0 0.03)" style="fill:#68a611"/></g></svg>