<svg id="Layer_1" data-name="Layer 1" xmlns="http://www.w3.org/2000/svg" width="270" height="50" viewBox="0 0 270 50"><g id="Help"><path d="M245,0a25,25,0,1,0,25,25A25,25,0,0,0,245,0Zm0,35.7a1.7,1.7,0,1,1,1.7-1.7A1.7,1.7,0,0,1,245,35.7Zm3.6-10.4v-.1c-1,1.1-2.6,2.4-2.6,4.2v.7a.9.9,0,0,1-.79,1H245a1,1,0,0,1-1-1v-.9a8.88,8.88,0,0,1,2.9-5,6.59,6.59,0,0,0,1.5-4c0-1.9-1.1-3.4-3.6-3.4s-3.9,2.8-3.9,2.8.3,1.6-1,1.6-1-1.6-1-1.6c0-2.5,2.1-5.3,6-5.3a5.9,5.9,0,0,1,6,5.8v.1A7.8,7.8,0,0,1,248.6,25.3Z" style="fill:#0089d9"/></g><g id="Info"><path d="M190,0a25,25,0,1,0,25,25A25,25,0,0,0,190,0Zm1,15a2,2,0,1,1-2,2A2,2,0,0,1,191,15Zm2,16.7a5,5,0,0,1-4,2.3c-2,0-2.2-1.6-1.9-2.9L189,25a.6.6,0,0,0-.3-.7,4.52,4.52,0,0,0-2.6.9,6.55,6.55,0,0,1,0-1.4c1.9-1.9,2.9-2.8,4-2.8s2,1.3,1.7,3.2L190,30.9c-.1.7.2.9.7.9s2.4-1.9,2.4-1.9S193,31.4,193,31.7Z" style="fill:#0089d9"/></g><g id="Warning"><path d="M159.2,43.4c-1.2-2.3-20-37.8-22.1-42a2.3,2.3,0,0,0-3-1.16A2.26,2.26,0,0,0,132.9,1.4c-2.1,4.3-20.9,39.7-22.1,42s.3,4.6,2.3,4.6h44C159,48,161.2,47.1,159.2,43.4ZM135,18c.6,0,1.6.4,1.6,1L136,31a1,1,0,0,1-2,0l-.6-12C133.4,18.4,134.4,18,135,18Zm0,21a2,2,0,1,1,2-2A2,2,0,0,1,135,39Z" style="fill:#ff8b00"/></g><g id="Error"><path d="M80,0a25,25,0,1,0,25,25A25,25,0,0,0,80,0Zm0,15c.6,0,1.6.4,1.6,1L81,28a1,1,0,0,1-2,0l-.6-12C78.4,15.5,79.4,15,80,15Zm0,21a2,2,0,1,1,2-2A2,2,0,0,1,80,36Z" style="fill:#d6565a"/></g><g id="Success"><path d="M25,0A25,25,0,1,0,50,25,25,25,0,0,0,25,0ZM21.2,34c-3.3-4.2-6.2-7.4-6.2-7.4l1.1-1.2a39.39,39.39,0,0,1,5.1,4.9A101,101,0,0,1,36.2,16l.8.9A198.1,198.1,0,0,0,21.2,34Z" style="fill:#68a611"/></g></svg>