<svg id="Layer_1" data-name="Layer 1" xmlns="http://www.w3.org/2000/svg" width="24" height="24" viewBox="0 0 24 24"><defs><style>.cls-1{fill:#35465c;}</style></defs><path class="cls-1" d="M13.7,19.6a1.76,1.76,0,0,1-.9-1,15,15,0,0,1-.1-2.6V9.8h5.6V5.5H12.7V0H9.2a8.16,8.16,0,0,1-.9,3A8.34,8.34,0,0,1,6.7,5.1,8.45,8.45,0,0,1,4,6.4V9.8H7.3v8.4a8.07,8.07,0,0,0,.3,2.5,3.57,3.57,0,0,0,1.2,1.6A6.6,6.6,0,0,0,11,23.5a6.77,6.77,0,0,0,2.6.4,11.15,11.15,0,0,0,2.7-.3,13.66,13.66,0,0,0,2.8-1V18.8A6.45,6.45,0,0,1,15.5,20,3.42,3.42,0,0,1,13.7,19.6Z"/></svg>