<svg id="Layer_1" data-name="Layer 1" xmlns="http://www.w3.org/2000/svg" width="7" height="10" viewBox="0 0 7 10"><defs><style>.cls-1{fill:#252626;}</style></defs><g id="arrows-small"><g id="Arrows_Up_and_Down_Small" data-name="Arrows Up and Down Small"><g id="Arrow_Small_-_Dark" data-name="Arrow Small - Dark"><path id="Arrow-11" class="cls-1" d="M3.5,10a.51.51,0,0,1-.37-.15l-3-3a.5.5,0,0,1,0-.71.5.5,0,0,1,.71,0L3.5,8.8,6.14,6.15a.5.5,0,0,1,.71.71h0l-3,3a.47.47,0,0,1-.35.15Z"/></g><g id="Arrow_Small_-_Dark-2" data-name="Arrow Small - Dark-2"><path id="Arrow-12" class="cls-1" d="M3.5,0a.51.51,0,0,1,.37.15l3,3a.5.5,0,0,1-.71.71L3.5,1.2.86,3.85a.5.5,0,0,1-.71,0,.5.5,0,0,1,0-.71h0l3-3A.51.51,0,0,1,3.48,0Z"/></g></g></g></svg>