<svg id="Page_Not_Found" data-name="Page Not Found" xmlns="http://www.w3.org/2000/svg" width="384" height="384" viewBox="0 0 384 384"><defs><style>.cls-1{opacity:0;}.cls-2{fill:#e04c59;}.cls-10,.cls-11,.cls-3,.cls-4,.cls-5,.cls-6{fill:none;}.cls-3,.cls-4,.cls-5,.cls-6{stroke:#445d82;}.cls-10,.cls-11,.cls-3,.cls-4{stroke-linecap:round;stroke-linejoin:round;}.cls-10,.cls-3,.cls-6{stroke-width:2px;}.cls-5,.cls-6{stroke-miterlimit:10;}.cls-7,.cls-9{fill:#0087e0;}.cls-7,.cls-8{opacity:0.25;}.cls-10,.cls-11{stroke:#0087e0;}</style></defs><g id="Container" class="cls-1"><rect class="cls-2" width="384" height="384"/></g><circle class="cls-3" cx="52.16" cy="88.39" r="29.78"/><path class="cls-4" d="M122,148.24c5.54,4.34-14.32,27.14-21.14,22.3"/><path class="cls-4" d="M110.56,307.64c1.54-2.53,12.08,5.63,9,8.45"/><path class="cls-4" d="M248,143.59c-16.49-4.94-25.75,16.14-1.3,35.33,21,16.49,40,5.19,31.2-8"/><ellipse class="cls-5" cx="207.68" cy="153.86" rx="8.74" ry="10.69" transform="translate(8.25 318.27) rotate(-76.03)"/><path class="cls-3" d="M175.56,127.58A107.45,107.45,0,0,1,298.28,233.86c0,3.07-.13,6.12-.38,9.13"/><path class="cls-3" d="M88.5,266.2a107.63,107.63,0,0,1,9-85.38c1.51-2.66-.57-6.88-.8-9.92-.78-10.32,11.89-24.47,21.52-25,4.09-.21,9,1.39,11.85-.59a107.06,107.06,0,0,1,35.25-15.8"/><path class="cls-3" d="M294.47,262.32a107.55,107.55,0,0,1-45,61.54c-1.3.85-2.9,4-3.21,5.48-2.37,11.67-37.09,20.11-48.75,14a16.91,16.91,0,0,0-6.61-2.07,106.85,106.85,0,0,1-65.49-22.29c-1.28-1-5.6.29-7.2.07-5.64-.78-9.76-5.27-10.17-9.54-.11-1.2,1.43-5.62.66-6.54a107.17,107.17,0,0,1-12.42-18.28"/><path class="cls-3" d="M294,189.35c46.8.47,86.52,9.3,88.73,22.65,3.18,19.25-66.91,49.37-175.13,62.25C79.73,289.46,5.52,279.47,1.33,259.14-1,247.78,23.17,232.67,79.49,215.37"/><path class="cls-3" d="M297,197.76c30.58,0,53.51,10.45,54.29,17.61,1.59,14.71-59.16,41.34-150.44,51.21-102.57,11.1-158.12,2.07-159.72-12.64-.75-7,7.82-18,37.9-28.24"/><path class="cls-4" d="M57,59c-15.22,4.45-6.64,22.81,3.06,17C71,69.57,81.69,80.14,81.67,92.48"/><path class="cls-4" d="M41.37,60.62C33.68,70.84,43.25,76,43.25,83.68c0,9.63-17.45,18.44-20.39,10.07"/><path class="cls-4" d="M30.32,108.64c13.3,11.41,26.63,1.87,34.39-7.57C71,93.4,82.9,89,80.05,98.07"/><path class="cls-4" d="M81.37,94.26c0-4.62-10-16.19-21.12-8.77-12.29,8.21-18,30.41-30.94,22"/><ellipse class="cls-5" cx="259.26" cy="293.03" rx="8.57" ry="4.91" transform="translate(-131.27 269.15) rotate(-45)"/><ellipse class="cls-5" cx="166.06" cy="313.02" rx="9.74" ry="19.09" transform="translate(-182.58 376.29) rotate(-72.34)"/><path class="cls-6" d="M319.76,84.43c.12.37-3,2.7-3,3.12s1.52,4.41,1,4.79-3.65-1.92-4.19-2-3.66,2.89-4.35,2.44,1-5.26.94-5.66-3.85-4-3.68-4.26,5,1.36,5.28,1.21,1.63-4.63,2.1-4.56c.73.12.82,4.51.94,4.67S319.65,84.12,319.76,84.43Z"/><path class="cls-6" d="M349.17,58c-.65.22-.62,7-1.17,7.5-.4.37-7.74,2.51-7.73,3.62,0,.93,6.51,3.07,7.15,3.77s-.2,8.12,1.16,8.61,6.31-6.86,6.89-7.25,9.59,1.19,9.79.66-7.14-5.55-7.23-6.08c-.12-.75,4.75-7.13,4.15-7.71-.94-.89-7.13,3.58-7.48,3.59S349.71,57.81,349.17,58Z"/><path class="cls-6" d="M78.79,354.6c-.27.21.9,3.4.73,3.73s-3.22,2.5-3,3,3.59.34,4,.57,1.29,3.86,2,3.86,1.8-4.31,2-4.59,4.73-1.07,4.73-1.36-4.31-1.4-4.44-1.64,1-4.17.64-4.34c-.59-.26-2.75,2.9-2.91,3S79,354.42,78.79,354.6Z"/><path class="cls-5" d="M113.34,354.35c-.23-.05-1.39,2-1.64,2s-2.72-.59-2.91-.26,1.39,2,1.46,2.34-1.46,2.38-1.14,2.76,3-.95,3.29-1,2.64,2,2.79,1.89-1.16-2.88-1.09-3.05,2.64-1.29,2.56-1.57-2.73-.17-2.84-.23S113.53,354.39,113.34,354.35Z"/><path class="cls-4" d="M99.46,187c-2,3.8-5.24,11.77-5.78,14.51"/><path class="cls-4" d="M368.32,238.24c-3.88,1.52-11.24,5.62-14,6.07"/><path class="cls-4" d="M368.77,242.41c-1.9.46-7.44,2.59-8.58,2.66"/><path class="cls-4" d="M20.32,263.53c4,5.81,22.78,10.25,42.38,11.62"/><path class="cls-4" d="M41.09,241.43c-10.75,6.15-14.39,15-6.19,19.82"/><path class="cls-4" d="M367,225c11.11-8.72,14.84-15.4,4.46-19.37"/><path class="cls-4" d="M89.24,166.92c-.46,2.17-1.59,7.41.46,10.6"/><path class="cls-4" d="M84.15,171.44c.38,2,.8,4.71,1.52,5.92"/><path class="cls-7" d="M172.17,137.57c-1.39-3.2-17.1-86.64-18.09-95s1.37-3.82,2.25-.88,20.6,91.36,21,94.58C177.56,137.6,172.62,138.61,172.17,137.57Z"/><g class="cls-8"><path class="cls-9" d="M228.37,86.23c-6.4-8.73-2.11-35.42-5.85-40.32-6.16-8.06-31.64-16.11-60.94-2.49-.62.29,6.82,50.75,9.25,49.43C191.81,81.52,234.78,95,228.37,86.23ZM195.12,76.8c-2.8.39-8.3-6-4.7-7.07,1.05-.3,6.73.91,7.07,2.91S197.47,76.47,195.12,76.8Zm.55-13.33c.64,4.61-6.42,4.74-7.36.7-1.8-7.72,3.4-10.68,3.39-14.57,0-1.56,1.09-3.82-2-3.4-3.77.51-2.5,4.94-4.31,5.45-1.65.47-3.73-2.09-2.75-4.23a10.71,10.71,0,0,1,8-6.36c4.52-.81,11.25,1.24,11.1,7.84C201.5,55.22,194.78,57,195.67,63.47Z"/></g><path class="cls-10" d="M170,138.65c-1-3.36-17.79-87-18.77-95.36s3.39-6,4.27-3,18.25,93.39,18.82,96.59"/><path class="cls-10" d="M155.28,39.67c29.25-13.74,56.11-6.18,62.27,1.89,3.75,4.9-.55,31.59,5.86,40.32s-37.86-5-58.22,7.45"/><path class="cls-10" d="M180.38,47.52a9.5,9.5,0,0,1,7.07-5.66c4-.72,10,1.1,9.87,7-.13,5.62-6.11,7.24-5.32,13,.57,4.1-3.41,4.66-4.24,1.07-1.6-6.87,4-9.8,3.94-13.26,0-1.39-.61-3.84-3.4-3.46-3.35.45-3.86,4.68-5.47,5.14S179.51,49.42,180.38,47.52Z"/><path class="cls-10" d="M190.3,69.44c.93-.26,3.27-.17,3.58,1.61s0,3.4-2.12,3.69C189.27,75.09,187.1,70.35,190.3,69.44Z"/><path class="cls-10" d="M166.85,138.71c-.52,1.08.15,4.08,6.39,2.1,5.26-1.67,5.54-4.61,4-5.25"/><ellipse class="cls-6" cx="333.84" cy="113.16" rx="1.47" ry="1"/><ellipse class="cls-6" cx="99.46" cy="334.77" rx="1.47" ry="1"/><ellipse class="cls-6" cx="274.67" cy="347.99" rx="1.47" ry="1"/><ellipse class="cls-6" cx="256.43" cy="65.39" rx="0.53" ry="0.36"/><ellipse class="cls-6" cx="296.39" cy="334.77" rx="0.53" ry="0.36"/><ellipse class="cls-6" cx="34.59" cy="344.34" rx="0.53" ry="0.36"/><ellipse class="cls-6" cx="49.23" cy="137" rx="0.53" ry="0.36"/><path class="cls-4" d="M275.56,185c-2.1,1.44-2.43,5.36-2.66,6.5"/><path class="cls-4" d="M235.52,145.7c-2.35.85-5.3,2.45-8.49,1.25"/><path class="cls-4" d="M148.24,306.35c.7-1.9-.29-4.31-.54-5.08"/><path class="cls-4" d="M182.42,321.41c1.08-.88,3.3-.87,4.55-.62"/><path class="cls-4" d="M177.91,302.08c3.72,2.05,8.62,6.3,9.06,8.43"/><path class="cls-11" d="M145.71,37.05c-.46,2-2,5.62-1.06,9.27"/><path class="cls-11" d="M140.54,39.18a20.06,20.06,0,0,0,0,6.38"/></svg>