<svg id="Layer_1" data-name="Layer 1" xmlns="http://www.w3.org/2000/svg" width="24" height="24" viewBox="0 0 24 24"><defs><style>.cls-1{fill:#1ab7ea;}</style></defs><path class="cls-1" d="M20.5,1.2c-3.3-.1-5.6,1.8-6.8,5.6a3.92,3.92,0,0,1,1.8-.4c1.2,0,1.8.7,1.6,2.1a10,10,0,0,1-1.6,3.6c-1,1.6-1.8,2.4-2.3,2.4s-1.2-1.2-1.8-3.7c-.2-.7-.5-2.6-1-5.5-.4-2.7-1.6-4-3.5-3.8-.8.1-2,.8-3.6,2.2-.9.9-2.1,2-3.3,3L1.1,8.2A5.64,5.64,0,0,1,3,7.1c.8,0,1.6,1.3,2.3,3.9.6,2.4,1.3,4.8,1.9,7.1Q8.7,22,10.8,22c2.3,0,5-2.1,8.3-6.4C22.3,11.5,23.9,8.3,24,6,24.2,2.8,23,1.2,20.5,1.2Z"/></svg>