<svg id="Layer_1" data-name="Layer 1" xmlns="http://www.w3.org/2000/svg" width="24" height="24" viewBox="0 0 24 24"><defs><style>.cls-1{fill:#cc2127;}</style></defs><path class="cls-1" d="M12,0A12,12,0,0,0,0,12,12.14,12.14,0,0,0,7.2,23a14.17,14.17,0,0,1,.2-2.8c.2-1,1.5-6.5,1.5-6.5a4.65,4.65,0,0,1-.4-1.9c0-1.8,1-3.1,2.3-3.1,1.1,0,1.6.8,1.6,1.8a24.72,24.72,0,0,1-1.1,4.3,1.83,1.83,0,0,0,1.9,2.3c2.3,0,3.8-2.9,3.8-6.4,0-2.6-1.8-4.6-5-4.6a5.7,5.7,0,0,0-5.9,5.8,3.65,3.65,0,0,0,.8,2.4c.2.3.3.4.2.7a3.55,3.55,0,0,0-.2,1,.42.42,0,0,1-.6.3c-1.7-.7-2.5-2.5-2.5-4.6C3.9,8.1,6.8,4,12.5,4c4.6,0,7.6,3.3,7.6,6.9,0,4.7-2.6,8.2-6.5,8.2a3.34,3.34,0,0,1-2.9-1.5s-.7,2.8-.8,3.3a15.67,15.67,0,0,1-1.2,2.6A8.8,8.8,0,0,0,12,24,12,12,0,0,0,12,0Z"/></svg>