<svg id="Layer_1" data-name="Layer 1" xmlns="http://www.w3.org/2000/svg" width="24" height="24" viewBox="0 0 24 24"><defs><style>.cls-1{fill:#00aced;}</style></defs><path class="cls-1" d="M21.3,10.8a2.67,2.67,0,0,0,2.6-1.6,4.31,4.31,0,0,1-2.8.3A4.33,4.33,0,0,1,21,9c-.6-2.3-2.8-4.2-5.1-4,.2-.1.4-.1.6-.2S18.2,4.5,18,4s-2,.3-2.3.5c.4-.2,1.2-.5,1.3-1a3.38,3.38,0,0,0-1.9.9,1.61,1.61,0,0,0,.4-.7c-1.8,1.2-2.9,3.5-3.8,5.8A14.94,14.94,0,0,0,9.8,8,50.72,50.72,0,0,0,3.6,5.3a3.27,3.27,0,0,0,2.1,3,10.4,10.4,0,0,0-1.5.2c.2,1.1.9,2,2.7,2.4-.8.1-1.3.2-1.6.7a2.86,2.86,0,0,0,3,1.4c-1.8.8-.8,2.3.7,2a6.41,6.41,0,0,1-8.9.2c6.1,8.2,19.2,4.9,21.2-3.1A3.73,3.73,0,0,0,24.2,11,5.5,5.5,0,0,1,21.3,10.8Z"/></svg>