<svg id="Layer_1" data-name="Layer 1" xmlns="http://www.w3.org/2000/svg" width="24" height="24" viewBox="0 0 24 24"><defs><style>.cls-1{fill:#00aff0;}</style></defs><path class="cls-1" d="M23,13.7a9.7,9.7,0,0,0,.1-1.7A11.07,11.07,0,0,0,12,.9a9.15,9.15,0,0,0-1.7.1A6.53,6.53,0,0,0,6.7,0,6.7,6.7,0,0,0,0,6.7a6.82,6.82,0,0,0,1,3.5,9.7,9.7,0,0,0-.1,1.7A11.07,11.07,0,0,0,12,23a9.15,9.15,0,0,0,1.7-.1,6.82,6.82,0,0,0,3.5,1,6.7,6.7,0,0,0,6.7-6.7A5.59,5.59,0,0,0,23,13.7Zm-5.7,3.4a4.91,4.91,0,0,1-2.1,1.6,7.94,7.94,0,0,1-3.2.6,8.1,8.1,0,0,1-3.7-.8A6.12,6.12,0,0,1,6.6,17,3.81,3.81,0,0,1,6,15.1a1,1,0,0,1,.4-.9,1.28,1.28,0,0,1,1-.4,1.14,1.14,0,0,1,.8.3,3.49,3.49,0,0,1,.6.9,2.55,2.55,0,0,0,.7,1,2.18,2.18,0,0,0,.9.7A3.51,3.51,0,0,0,12,17a3.8,3.8,0,0,0,2.2-.6A1.61,1.61,0,0,0,15,15a1.5,1.5,0,0,0-.4-1.1,2.28,2.28,0,0,0-1.2-.6,16.66,16.66,0,0,0-1.9-.5A12.54,12.54,0,0,1,8.8,12a3.71,3.71,0,0,1-1.7-1.3,3.38,3.38,0,0,1-.6-2,3.14,3.14,0,0,1,.7-2.1c.2-.6.9-1,1.8-1.4a9.43,9.43,0,0,1,3-.5,8.75,8.75,0,0,1,2.4.3,4.61,4.61,0,0,1,1.7.9,5,5,0,0,1,1,1.1,2.66,2.66,0,0,1,.3,1.2,1.09,1.09,0,0,1-.4.9,1.28,1.28,0,0,1-1,.4,1,1,0,0,1-.8-.3,2.76,2.76,0,0,1-.6-.8,4,4,0,0,0-1-1.2,3,3,0,0,0-1.8-.4,4.78,4.78,0,0,0-1.9.5,1.27,1.27,0,0,0-.7,1.1,1.45,1.45,0,0,0,.2.7,1.79,1.79,0,0,0,.7.5,3.18,3.18,0,0,0,.9.3c.3.1.8.2,1.4.4.8.2,1.6.4,2.3.6a7.5,7.5,0,0,1,1.8.8,2.54,2.54,0,0,1,1.1,1.2,3.42,3.42,0,0,1,.4,1.8A4,4,0,0,1,17.3,17.1Z"/></svg>