<svg xmlns="http://www.w3.org/2000/svg" xmlns:xlink="http://www.w3.org/1999/xlink" width="23" height="800" viewBox="0 0 23 800"><defs><style>.a,.q,.x{fill:#fff;}.b,.v{fill:#dceefa;}.c{clip-path:url(#ar);}.d{clip-path:url(#a);}.e,.g,.j,.n{fill:#20303b;}.f{clip-path:url(#d);}.ad,.g,.o,.q{stroke:rgba(22,62,89,0.05);}.h{fill:#1c98eb;}.i{clip-path:url(#g);}.j{stroke:#fff;}.j,.v,.x{stroke-width:2px;}.k,.o{fill:#273b47;}.l{clip-path:url(#j);}.m{clip-path:url(#m);}.n{stroke:#273b47;}.p{clip-path:url(#w);}.r{fill:#0087e0;}.s{clip-path:url(#z);}.t{fill:#68a611;}.u{clip-path:url(#ac);}.v,.x{stroke:#0087e0;}.w{clip-path:url(#af);}.y{clip-path:url(#ai);}.ad,.ae,.z{fill:#f7f9fa;}.z{stroke:rgba(22,62,89,0.25);}.aa{fill:#d9dcde;}.ab{clip-path:url(#aj);}.ac{clip-path:url(#am);}.af{clip-path:url(#an);}.ag{stroke:none;}.ah{fill:none;}.ai{filter:url(#ao);}.aj{filter:url(#ak);}.ak{filter:url(#ag);}.al{filter:url(#ad);}.am{filter:url(#aa);}.an{filter:url(#x);}.ao{filter:url(#t);}.ap{filter:url(#q);}.aq{filter:url(#n);}.ar{filter:url(#k);}.as{filter:url(#h);}.at{filter:url(#e);}.au{filter:url(#b);}</style><clipPath id="a"><rect class="a" width="23" height="43" transform="translate(194 774)"/></clipPath><filter id="b" x="-16" y="745.153" width="55" height="68" filterUnits="userSpaceOnUse"><feOffset dy="5" input="SourceAlpha"/><feGaussianBlur stdDeviation="5" result="c"/><feFlood flood-color="#070a0d" flood-opacity="0.302"/><feComposite operator="in" in2="c"/><feComposite in="SourceGraphic"/></filter><clipPath id="d"><rect class="a" width="23" height="43" transform="translate(202 774)"/></clipPath><filter id="e" x="-17" y="694.15" width="57" height="70" filterUnits="userSpaceOnUse"><feOffset dy="5" input="SourceAlpha"/><feGaussianBlur stdDeviation="5" result="f"/><feFlood flood-color="#070a0d" flood-opacity="0.302"/><feComposite operator="in" in2="f"/><feComposite in="SourceGraphic"/></filter><clipPath id="g"><rect class="a" width="23" height="43" transform="translate(252 782)"/></clipPath><filter id="h" x="-16" y="644" width="55" height="67" filterUnits="userSpaceOnUse"><feOffset dy="5" input="SourceAlpha"/><feGaussianBlur stdDeviation="5" result="i"/><feFlood flood-color="#070a0d" flood-opacity="0.302"/><feComposite operator="in" in2="i"/><feComposite in="SourceGraphic"/></filter><clipPath id="j"><rect class="a" width="23" height="43" transform="translate(256 782)"/></clipPath><filter id="k" x="-16" y="594" width="55" height="67" filterUnits="userSpaceOnUse"><feOffset dy="5" input="SourceAlpha"/><feGaussianBlur stdDeviation="5" result="l"/><feFlood flood-color="#070a0d" flood-opacity="0.302"/><feComposite operator="in" in2="l"/><feComposite in="SourceGraphic"/></filter><clipPath id="m"><rect class="a" width="23" height="43" transform="translate(255 782)"/></clipPath><filter id="n" x="-16" y="544" width="55" height="66" filterUnits="userSpaceOnUse"><feOffset dy="5" input="SourceAlpha"/><feGaussianBlur stdDeviation="5" result="o"/><feFlood flood-color="#070a0d" flood-opacity="0.302"/><feComposite operator="in" in2="o"/><feComposite in="SourceGraphic"/></filter><filter id="q" x="-16" y="493" width="55" height="68" filterUnits="userSpaceOnUse"><feOffset dy="5" input="SourceAlpha"/><feGaussianBlur stdDeviation="5" result="r"/><feFlood flood-color="#070a0d" flood-opacity="0.302"/><feComposite operator="in" in2="r"/><feComposite in="SourceGraphic"/></filter><filter id="t" x="-15" y="394" width="53" height="66" filterUnits="userSpaceOnUse"><feOffset dy="5" input="SourceAlpha"/><feGaussianBlur stdDeviation="5" result="u"/><feFlood flood-color="#070a0d" flood-opacity="0.302"/><feComposite operator="in" in2="u"/><feComposite in="SourceGraphic"/></filter><clipPath id="w"><rect class="a" width="23" height="43" transform="translate(223 772)"/></clipPath><filter id="x" x="-16" y="344" width="55" height="70" filterUnits="userSpaceOnUse"><feOffset dy="5" input="SourceAlpha"/><feGaussianBlur stdDeviation="5" result="y"/><feFlood flood-color="#4d8400" flood-opacity="0.302"/><feComposite operator="in" in2="y"/><feComposite in="SourceGraphic"/></filter><clipPath id="z"><rect class="a" width="23" height="43" transform="translate(202 772)"/></clipPath><filter id="aa" x="-16" y="296.153" width="55" height="68" filterUnits="userSpaceOnUse"><feOffset dy="5" input="SourceAlpha"/><feGaussianBlur stdDeviation="5" result="ab"/><feFlood flood-color="#4d8400" flood-opacity="0.302"/><feComposite operator="in" in2="ab"/><feComposite in="SourceGraphic"/></filter><clipPath id="ac"><rect class="b" width="23" height="43" transform="translate(256 780.551)"/></clipPath><filter id="ad" x="-16" y="244" width="55" height="67" filterUnits="userSpaceOnUse"><feOffset dy="5" input="SourceAlpha"/><feGaussianBlur stdDeviation="5" result="ae"/><feFlood flood-color="#163e59" flood-opacity="0.149"/><feComposite operator="in" in2="ae"/><feComposite in="SourceGraphic"/></filter><clipPath id="af"><rect class="a" width="23" height="43" transform="translate(246 780)"/></clipPath><filter id="ag" x="-16" y="194" width="55" height="67" filterUnits="userSpaceOnUse"><feOffset dy="5" input="SourceAlpha"/><feGaussianBlur stdDeviation="5" result="ah"/><feFlood flood-color="#163e59" flood-opacity="0.149"/><feComposite operator="in" in2="ah"/><feComposite in="SourceGraphic"/></filter><clipPath id="ai"><rect class="a" width="23" height="43" transform="translate(241 781)"/></clipPath><clipPath id="aj"><rect class="a" width="23" height="43" transform="translate(243 781)"/></clipPath><filter id="ak" x="-17" y="94" width="57" height="68" filterUnits="userSpaceOnUse"><feOffset dy="5" input="SourceAlpha"/><feGaussianBlur stdDeviation="5" result="al"/><feFlood flood-color="#163e59" flood-opacity="0.149"/><feComposite operator="in" in2="al"/><feComposite in="SourceGraphic"/></filter><clipPath id="am"><rect class="a" width="23" height="43" transform="translate(245 781)"/></clipPath><clipPath id="an"><rect class="a" width="23" height="43" transform="translate(239.5 781)"/></clipPath><filter id="ao" x="-16" y="-6" width="55" height="68" filterUnits="userSpaceOnUse"><feOffset dy="5" input="SourceAlpha"/><feGaussianBlur stdDeviation="5" result="ap"/><feFlood flood-color="#163e59" flood-opacity="0.149"/><feComposite operator="in" in2="ap"/><feComposite in="SourceGraphic"/></filter><clipPath id="ar"><rect width="23" height="800"/></clipPath></defs><g id="aq" class="c"><g class="d" transform="translate(-194 -24)"><g transform="translate(159 779.153)"><g class="au" transform="matrix(1, 0, 0, 1, 35, -755.15)"><rect class="e" width="25" height="38" transform="translate(-1 755.15)"/></g><rect class="e" width="25" height="38" transform="translate(34)"/></g><g transform="translate(159 778)"><rect class="a" width="25" height="2" transform="translate(34)"/></g></g><g class="f" transform="translate(-202 -74)"><g transform="translate(159 779)"><g class="at" transform="matrix(1, 0, 0, 1, 43, -705)"><g class="g" transform="translate(-1 705.15)"><rect class="ag" width="25" height="38"/><rect class="ah" x="-0.5" y="-0.5" width="26" height="39"/></g></g><rect class="e" width="25" height="38" transform="translate(42)"/></g><g transform="translate(159 778)"><rect class="h" width="25" height="2" transform="translate(42)"/></g></g><g class="i" transform="translate(-252 -135)"><g transform="translate(200 790)"><g class="as" transform="matrix(1, 0, 0, 1, 52, -655)"><rect class="j" width="23" height="35" transform="translate(0 655)"/></g><rect class="k" width="25" height="35" transform="translate(51 1)"/></g></g><g class="l" transform="translate(-256 -185)"><g transform="translate(200 790)"><g class="ar" transform="matrix(1, 0, 0, 1, 56, -605)"><rect class="j" width="23" height="35" transform="translate(0 605)"/></g><rect class="e" width="25" height="35" transform="translate(55 1)"/></g></g><g class="m" transform="translate(-255 -235)"><g transform="translate(200 789)"><g class="aq" transform="matrix(1, 0, 0, 1, 55, -554)"><g class="n" transform="translate(-1 554)"><rect class="ag" width="25" height="36"/><rect class="ah" x="0.5" y="0.5" width="24" height="35"/></g></g><rect class="e" width="25" height="36" transform="translate(54 1)"/></g></g><g class="m" transform="translate(-255 -285)"><g transform="translate(200 789)"><g class="ap" transform="matrix(1, 0, 0, 1, 55, -504)"><g class="o" transform="translate(0 504)"><rect class="ag" width="23" height="36"/><rect class="ah" x="-0.5" y="-0.5" width="24" height="37"/></g></g><rect class="k" width="25" height="36" transform="translate(54)"/></g></g><g class="m" transform="translate(-255 -385)"><g transform="translate(200 789)"><g class="ao" transform="matrix(1, 0, 0, 1, 55, -404)"><g class="n" transform="translate(0 404)"><rect class="ag" width="23" height="36"/><rect class="ah" x="0.5" y="0.5" width="22" height="35"/></g></g><rect class="e" width="25" height="36" transform="translate(54 1)"/></g></g><g class="m" transform="translate(-255 -335)"><g transform="translate(200 789)"><rect class="e" width="23" height="36" rx="5" transform="translate(55)"/><rect class="e" width="25" height="36" transform="translate(54)"/></g></g><g class="p" transform="translate(-223 -422)"><g transform="translate(159 776)"><g class="an" transform="matrix(1, 0, 0, 1, 64, -354)"><g class="q" transform="translate(0 355)"><rect class="ag" width="23" height="38"/><rect class="ah" x="-0.5" y="-0.5" width="24" height="39"/></g></g><rect class="a" width="25" height="40" transform="translate(63)"/></g><g transform="translate(159 776)"><rect class="r" width="25" height="2" transform="translate(63)"/></g></g><g class="s" transform="translate(-202 -472)"><g transform="translate(159 779.153)"><g class="am" transform="matrix(1, 0, 0, 1, 43, -307.15)"><g class="q" transform="translate(0 307.15)"><rect class="ag" width="23" height="36"/><rect class="ah" x="-0.5" y="-0.5" width="24" height="37"/></g></g><rect class="a" width="25" height="39" transform="translate(42 -3)"/></g><g transform="translate(159 778)"><rect class="t" width="25" height="2" transform="translate(42 -2)"/></g></g><g class="u" transform="translate(-256 -533.551)"><g transform="translate(255 788.435)"><g class="al" transform="matrix(1, 0, 0, 1, 1, -254.88)"><rect class="v" width="23" height="35" transform="translate(0 255)"/></g><rect class="b" width="25" height="35" transform="translate(0 1.116)"/></g></g><g class="w" transform="translate(-246 -583)"><g transform="translate(200 789)"><g class="ak" transform="matrix(1, 0, 0, 1, 46, -206)"><rect class="x" width="23" height="35" transform="translate(0 205)"/></g><rect class="a" width="25" height="35" transform="translate(45)"/></g></g><g class="y" transform="translate(-241 -634)"><g transform="translate(200 789)"><g class="z" transform="translate(40)"><rect class="ag" width="25" height="36"/><rect class="ah" x="-0.5" y="-0.5" width="26" height="37"/></g><rect class="aa" width="23" height="36" transform="translate(41)"/></g></g><g class="ab" transform="translate(-243 -684)"><g transform="translate(200 789)"><g class="aj" transform="matrix(1, 0, 0, 1, 43, -105)"><g class="q" transform="translate(-1 105)"><rect class="ag" width="25" height="36"/><rect class="ah" x="-0.5" y="-0.5" width="26" height="37"/></g></g><rect class="b" width="23" height="36" transform="translate(43)"/></g></g><g class="ac" transform="translate(-245 -734)"><g transform="translate(200 789)"><g class="ad" transform="translate(44)"><rect class="ag" width="25" height="36"/><rect class="ah" x="-0.5" y="-0.5" width="26" height="37"/></g><rect class="ae" width="23" height="36" transform="translate(45)"/></g></g><g class="af" transform="translate(-239.5 -784)"><g transform="translate(198.5 789)"><g class="ai" transform="matrix(1, 0, 0, 1, 41, -5)"><g class="q" transform="translate(0 5)"><rect class="ag" width="23" height="36"/><rect class="ah" x="-0.5" y="-0.5" width="24" height="37"/></g></g><rect class="a" width="25" height="36" transform="translate(40)"/></g></g></g></svg>