<svg id="Layer_1" data-name="Layer 1" xmlns="http://www.w3.org/2000/svg" width="16" height="16" viewBox="0 0 16 16"><defs><style>.cls-1{fill:#0089d9;fill-rule:evenodd;}</style></defs><path class="cls-1" d="M7.5,0a7.5,7.5,0,0,0,0,15A7.55,7.55,0,0,0,15,7.5,7.55,7.55,0,0,0,7.5,0Zm0,14A6.5,6.5,0,1,1,14,7.5,6.49,6.49,0,0,1,7.5,14Zm.7-6.5L10,5.8a.48.48,0,0,0,0-.7A.62.62,0,0,0,9.3,5L7.5,6.8,5.8,5a.85.85,0,0,0-.7,0,.48.48,0,0,0,0,.7L6.9,7.5,5,9.3a.49.49,0,1,0,.7.7L7.5,8.2,9.3,10a.49.49,0,0,0,.7-.7Z"/></svg>