<svg id="Layer_1" data-name="Layer 1" xmlns="http://www.w3.org/2000/svg" width="16" height="16" viewBox="0 0 16 16"><defs><style>.cls-1{fill:#0089d9;fill-rule:evenodd;}</style></defs><path class="cls-1" d="M6.1,7.9l3.2,3.2a.49.49,0,0,0,.7-.7L7.2,7.5l2.9-2.9a.49.49,0,0,0-.7-.7L6.1,7.2a.37.37,0,0,0-.1.3A.6.6,0,0,0,6.1,7.9ZM0,7.5A7.5,7.5,0,1,0,7.5,0,7.49,7.49,0,0,0,0,7.5Zm1,0A6.5,6.5,0,1,1,7.5,14,6.49,6.49,0,0,1,1,7.5Zm2.1-.3a.37.37,0,0,0-.1.3.6.6,0,0,0,.1.4l3.2,3.2a.49.49,0,1,0,.7-.7L4.2,7.5,7.1,4.6a.49.49,0,0,0-.7-.7Z"/></svg>