<svg id="Layer_1" data-name="Layer 1" xmlns="http://www.w3.org/2000/svg" width="16" height="16" viewBox="0 0 16 16"><defs><style>.cls-1{fill:#0089d9;fill-rule:evenodd;}</style></defs><path class="cls-1" d="M9,7.5a.6.6,0,0,0-.1-.4L5.6,3.9a.49.49,0,0,0-.7.7L7.8,7.5,4.9,10.4a.49.49,0,0,0,.7.7L8.8,7.9A.4.4,0,0,0,9,7.5ZM7.5,0A7.5,7.5,0,1,0,15,7.5,7.49,7.49,0,0,0,7.5,0Zm0,14A6.5,6.5,0,1,1,14,7.5,6.49,6.49,0,0,1,7.5,14Zm4.4-6.9L8.6,3.9a.49.49,0,0,0-.7.7l2.9,2.9L7.9,10.4a.49.49,0,0,0,.7.7l3.2-3.2a.4.4,0,0,0,.2-.4A.6.6,0,0,0,11.9,7.1Z"/></svg>