<svg id="Layer_1" data-name="Layer 1" xmlns="http://www.w3.org/2000/svg" width="16" height="16" viewBox="0 0 16 16"><defs><style>.cls-1{fill:#0089d9;fill-rule:evenodd;}</style></defs><path class="cls-1" d="M7.2,4.5a.49.49,0,1,0-.7.7L8.8,7.5,6.5,9.8a.49.49,0,1,0,.7.7L9.9,7.8c.1,0,.1-.2.1-.3a.6.6,0,0,0-.1-.4Zm4.3.5a.47.47,0,0,0-.5.5v4a.5.5,0,0,0,1,0v-4A.47.47,0,0,0,11.5,5Zm-4-5A7.55,7.55,0,0,0,0,7.5,7.55,7.55,0,0,0,7.5,15a7.5,7.5,0,0,0,0-15Zm0,14A6.5,6.5,0,1,1,14,7.5,6.49,6.49,0,0,1,7.5,14ZM7,7.5a.6.6,0,0,0-.1-.4L4.2,4.5a.49.49,0,1,0-.7.7L5.8,7.5,3.5,9.8a.49.49,0,0,0,.7.7L6.9,7.8C7,7.8,7,7.6,7,7.5Z"/></svg>