<svg id="Layer_1" data-name="Layer 1" xmlns="http://www.w3.org/2000/svg" width="37" height="16" viewBox="0 0 37 16"><defs><style>.cls-1{fill:#0089d9;}</style></defs><path class="cls-1" d="M7.5,6.4A1.1,1.1,0,1,0,8.6,7.5,1.11,1.11,0,0,0,7.5,6.4ZM7.5,0A7.55,7.55,0,0,0,0,7.5,7.55,7.55,0,0,0,7.5,15a7.5,7.5,0,0,0,0-15Zm0,14A6.5,6.5,0,1,1,14,7.5,6.49,6.49,0,0,1,7.5,14Zm3-7.6a1.1,1.1,0,1,0,1.1,1.1A1.11,1.11,0,0,0,10.5,6.4Zm-6,0A1.1,1.1,0,1,0,5.6,7.5,1.11,1.11,0,0,0,4.5,6.4Z"/><path class="cls-1" d="M28.5,0A7.55,7.55,0,0,0,21,7.5,7.5,7.5,0,1,0,28.5,0Zm-3,8.6a1.1,1.1,0,1,1,1.1-1.1A1.11,1.11,0,0,1,25.5,8.6Zm3,0a1.1,1.1,0,1,1,1.1-1.1A1.11,1.11,0,0,1,28.5,8.6Zm3,0a1.1,1.1,0,1,1,1.1-1.1A1.11,1.11,0,0,1,31.5,8.6Z"/></svg>