<svg id="Layer_1" data-name="Layer 1" xmlns="http://www.w3.org/2000/svg" width="16" height="16" viewBox="0 0 16 16"><defs><style>.cls-1{fill:#0089d9;fill-rule:evenodd;}</style></defs><path class="cls-1" d="M5.2,7.2c-.1.1-.2.2-.2.3a.6.6,0,0,0,.1.4l2.7,2.7a.49.49,0,1,0,.7-.7L6.2,7.5,8.5,5.2a.48.48,0,0,0,0-.7c-.1-.2-.5-.2-.7,0ZM3,5.5v4a.47.47,0,0,0,.5.5A.47.47,0,0,0,4,9.5v-4A.47.47,0,0,0,3.5,5,.47.47,0,0,0,3,5.5Zm-3,2A7.55,7.55,0,0,0,7.5,15a7.5,7.5,0,0,0,0-15A7.55,7.55,0,0,0,0,7.5Zm1,0A6.5,6.5,0,1,1,7.5,14,6.49,6.49,0,0,1,1,7.5Zm7.2.4,2.7,2.7a.49.49,0,0,0,.7-.7L9.2,7.5l2.3-2.3a.49.49,0,1,0-.7-.7L8.2,7.2c-.1.1-.2.2-.2.3A.76.76,0,0,0,8.2,7.9Z"/></svg>