<svg id="Layer_1" data-name="Layer 1" xmlns="http://www.w3.org/2000/svg" width="53" height="24" viewBox="0 0 53 24"><defs><style>.cls-1{fill:#0089d9;fill-rule:evenodd;}</style></defs><g id="Arrow_Down" data-name="Arrow Down"><path class="cls-1" d="M12,0A12,12,0,1,0,24,12,12,12,0,0,0,12,0Zm0,22A10,10,0,1,1,22,12,10,10,0,0,1,12,22Zm3.58-12L12,13.53,8.48,10A1,1,0,0,0,7,11.3l.11.11,4,4a1.19,1.19,0,0,0,.16.23,1.12,1.12,0,0,0,1.49,0,1.14,1.14,0,0,0,.15-.23l4.13-4A1,1,0,0,0,15.58,10Z"/><path class="cls-1" d="M41,0A12,12,0,1,0,53,12,12,12,0,0,0,41,0Zm5,11.39-4.1,4.07a1.14,1.14,0,0,1-.15.23,1.12,1.12,0,0,1-1.49,0,1.19,1.19,0,0,1-.16-.23l-4-4A1,1,0,1,1,37.48,10h0L41,13.53,44.58,10A1,1,0,0,1,46,11.39Z"/></g></svg>