<svg id="Layer_1" data-name="Layer 1" xmlns="http://www.w3.org/2000/svg" width="24" height="24" viewBox="0 0 24 24"><defs><style>.cls-1{fill:#0089d9;fill-rule:evenodd;}</style></defs><g id="Collapse"><path class="cls-1" d="M0,12A12,12,0,1,0,12,0,12,12,0,0,0,0,12Zm2,0A10,10,0,1,1,12,22,10,10,0,0,1,2,12Zm8.92.9,4,4a1,1,0,1,0,1.52-1.3.57.57,0,0,0-.11-.11L12.85,12,16.4,8.42a1,1,0,0,0-1.29-1.53A1.14,1.14,0,0,0,15,7l-4.07,4.1a1.14,1.14,0,0,0-.23.15,1,1,0,0,0,.22,1.65ZM5.69,11.25a1.12,1.12,0,0,0,0,1.49,1.19,1.19,0,0,0,.23.16l4,4a1,1,0,0,0,1.41-1.41L7.85,12,11.4,8.42A1,1,0,0,0,10,7L5.92,11.1A1.14,1.14,0,0,0,5.69,11.25Z"/></g></svg>