<svg id="Layer_1" data-name="Layer 1" xmlns="http://www.w3.org/2000/svg" width="24" height="24" viewBox="0 0 24 24"><defs><style>.cls-1{fill:#0089d9;fill-rule:evenodd;}</style></defs><g id="Cancel"><path class="cls-1" d="M12,0A12,12,0,1,0,24,12,12,12,0,0,0,12,0Zm0,22A10,10,0,1,1,22,12,10,10,0,0,1,12,22ZM16.07,7.93a1,1,0,0,0-1.41,0L12,10.59,9.41,8A1,1,0,0,0,8,9.41L10.58,12,8,14.62a1,1,0,0,0,1.07,1.69A1,1,0,0,0,9.38,16L12,13.41,14.62,16A1,1,0,0,0,16,14.62L13.41,12l2.65-2.65a1,1,0,0,0,0-1.41Z"/></g></svg>