<svg id="Layer_1" data-name="Layer 1" xmlns="http://www.w3.org/2000/svg" width="24" height="24" viewBox="0 0 24 24"><defs><style>.cls-1{fill:#0089d9;fill-rule:evenodd;}</style></defs><g id="Expand"><path class="cls-1" d="M12,0A12,12,0,1,0,24,12,12,12,0,0,0,12,0Zm0,22A10,10,0,1,1,22,12,10,10,0,0,1,12,22Zm1.31-9.25a1.12,1.12,0,0,0,0-1.49,1.14,1.14,0,0,0-.23-.15L9,7A1,1,0,0,0,7.6,8.42L11.15,12,7.63,15.52A1,1,0,0,0,9,16.93l4-4A1,1,0,0,0,13.31,12.75Zm4.77-1.64L14,7a1,1,0,0,0-1.4,1.42L16.15,12l-3.52,3.52A1,1,0,0,0,14,16.93l4-4a1.19,1.19,0,0,0,.23-.16,1.12,1.12,0,0,0,0-1.49.65.65,0,0,0-.15-.18Z"/></g></svg>