<svg id="Layer_1" data-name="Layer 1" xmlns="http://www.w3.org/2000/svg" width="24" height="24" viewBox="0 0 24 24"><defs><style>.cls-1{fill:#0089d9;fill-rule:evenodd;}</style></defs><g id="First"><path class="cls-1" d="M16,7a1,1,0,0,0-1.41,0l-4.07,4.1a1.14,1.14,0,0,0-.23.15,1.12,1.12,0,0,0,0,1.49,1.14,1.14,0,0,0,.23.15l4,4A1,1,0,0,0,16,15.52L12.47,12,16,8.42A1,1,0,0,0,16,7ZM12,0A12,12,0,1,0,24,12,12,12,0,0,0,12,0Zm0,22A10,10,0,1,1,22,12,10,10,0,0,1,12,22ZM8,7A1,1,0,0,0,7,8v8a1,1,0,0,0,2,0V8A1,1,0,0,0,8,7Z"/></g></svg>