<svg id="Layer_1" data-name="Layer 1" xmlns="http://www.w3.org/2000/svg" width="24" height="24" viewBox="0 0 24 24"><defs><style>.cls-1{fill:#0089d9;fill-rule:evenodd;}</style></defs><g id="Forward"><path class="cls-1" d="M10.68,11.25a1.14,1.14,0,0,0-.23-.15L7.39,8A1,1,0,0,0,6,7.85a1,1,0,0,0-.14,1.41A1.21,1.21,0,0,0,6,9.42L8.53,12,6,14.52a1,1,0,0,0,1.41,1.41l3-3a1.14,1.14,0,0,0,.23-.15,1.12,1.12,0,0,0,0-1.49Zm4.77-.15L12.39,8A1,1,0,0,0,11,9.42L13.53,12,11,14.52a1,1,0,0,0,1.41,1.41l3-3a1.14,1.14,0,0,0,.23-.15,1.12,1.12,0,0,0,0-1.49,1.07,1.07,0,0,0-.18-.19ZM12,0A12,12,0,1,0,24,12,12,12,0,0,0,12,0Zm0,22A10,10,0,1,1,22,12,10,10,0,0,1,12,22ZM18,8a1,1,0,0,0-1,1v6a1,1,0,0,0,2,0V9A1,1,0,0,0,18,8Z"/></g></svg>