<svg id="Layer_1" data-name="Layer 1" xmlns="http://www.w3.org/2000/svg" width="24" height="24" viewBox="0 0 24 24"><defs><style>.cls-1{fill:#0089d9;fill-rule:evenodd;}</style></defs><g id="Move_Left" data-name="Move Left"><path class="cls-1" d="M12,0A12,12,0,1,0,24,12,12,12,0,0,0,12,0Zm0,22A10,10,0,1,1,22,12,10,10,0,0,1,12,22Zm5-11H9.48L12,8.48A1,1,0,0,0,10.7,7a.57.57,0,0,0-.11.11l-4,4a.82.82,0,0,0-.47.57,1,1,0,0,0,.21,1.11,1,1,0,0,0,.36.23l4,4a1,1,0,0,0,1.52-1.3.57.57,0,0,0-.11-.11L9.53,13H17a1,1,0,0,0,0-2Z"/></g></svg>