<svg id="Layer_1" data-name="Layer 1" xmlns="http://www.w3.org/2000/svg" width="24" height="24" viewBox="0 0 24 24"><defs><style>.cls-1{fill:#0089d9;fill-rule:evenodd;}</style></defs><g id="Rewind"><path class="cls-1" d="M13,12a1,1,0,0,0,.29.75,1.14,1.14,0,0,0,.23.15l3,3A1,1,0,1,0,18,14.52L15.47,12,18,9.42a1,1,0,1,0-1.23-1.58L16.61,8l-3.07,3.1a1.14,1.14,0,0,0-.23.15A1,1,0,0,0,13,12Zm-4.71-.75a1.12,1.12,0,0,0,0,1.49,1.14,1.14,0,0,0,.23.15l3,3A1,1,0,0,0,13,14.52L10.47,12,13,9.42A1,1,0,0,0,11.61,8L8.54,11.1a1.07,1.07,0,0,0-.22.15ZM0,12A12,12,0,1,0,12,0,12,12,0,0,0,0,12Zm2,0A10,10,0,1,1,12,22,10,10,0,0,1,2,12ZM5,9v6a1,1,0,0,0,2,0V9A1,1,0,0,0,5,9Z"/></g></svg>