<svg id="Layer_1" data-name="Layer 1" xmlns="http://www.w3.org/2000/svg" width="24" height="24" viewBox="0 0 24 24"><defs><style>.cls-1{fill:#0089d9;fill-rule:evenodd;}</style></defs><g id="Move_Right" data-name="Move Right"><path class="cls-1" d="M0,12A12,12,0,1,0,12,0,12,12,0,0,0,0,12Zm2,0A10,10,0,1,1,12,22,10,10,0,0,1,2,12Zm4,0a1,1,0,0,0,1,1h7.47l-2.53,2.55A1,1,0,0,0,13.35,17l4-4a1,1,0,0,0,.36-.23,1,1,0,0,0,.21-1.11.82.82,0,0,0-.47-.57l-4-4A1,1,0,0,0,12,8.48L14.52,11H7A1,1,0,0,0,6,12Z"/></g></svg>