<svg id="Layer_1" data-name="Layer 1" xmlns="http://www.w3.org/2000/svg" width="24" height="24" viewBox="0 0 24 24"><defs><style>.cls-1{fill:#0089d9;fill-rule:evenodd;}</style></defs><g id="Move_Up" data-name="Move Up"><path class="cls-1" d="M12.93,6.58a.82.82,0,0,0-.57-.47,1,1,0,0,0-1.1.21,1,1,0,0,0-.23.36l-4,4a1,1,0,0,0,1.41,1.41L11,9.53V17a1,1,0,0,0,2,0V9.48L15.52,12A1,1,0,0,0,17,10.7a.57.57,0,0,0-.11-.11ZM12,0A12,12,0,1,0,24,12,12,12,0,0,0,12,0Zm0,22A10,10,0,1,1,22,12,10,10,0,0,1,12,22Z"/></g></svg>