<svg xmlns="http://www.w3.org/2000/svg" xmlns:xlink="http://www.w3.org/1999/xlink" width="23" height="800" viewBox="0 0 23 800"><defs><style>.a,.e,.u,.z{fill:#fff;}.b{clip-path:url(#aj);}.c{clip-path:url(#a);}.d,.f,.k{fill:#20303b;}.e,.p,.q{stroke:rgba(0,0,0,0);}.g{fill:#1c98eb;}.h{clip-path:url(#g);}.i,.j,.l{fill:#273b47;}.i,.k{stroke:#fff;}.i,.k,.s,.u{stroke-width:2px;}.m{clip-path:url(#q);}.n{clip-path:url(#u);}.o{fill:rgba(22,62,89,0.05);}.p{fill:#0087e0;}.q{fill:#68a611;}.r{clip-path:url(#w);}.s,.t{fill:#dceefa;}.s,.u{stroke:#0087e0;}.v{fill:#d9dcde;}.w{fill:rgba(22,62,89,0.25);}.x{fill:#f7f9fa;}.y{clip-path:url(#af);}.aa,.ab,.ac{stroke:none;}.ab{fill:rgba(22,62,89,0.05);}.ac{fill:#273b47;}.ad{filter:url(#ag);}.ae{filter:url(#aa);}.af{filter:url(#x);}.ag{filter:url(#s);}.ah{filter:url(#o);}.ai{filter:url(#k);}.aj{filter:url(#h);}.ak{filter:url(#e);}.al{filter:url(#b);}</style><clipPath id="a"><rect class="a" width="23" height="43" transform="translate(159 774)"/></clipPath><filter id="b" x="-15" y="745.153" width="54" height="68" filterUnits="userSpaceOnUse"><feOffset dy="5" input="SourceAlpha"/><feGaussianBlur stdDeviation="5" result="c"/><feFlood flood-color="#070a0d" flood-opacity="0.302"/><feComposite operator="in" in2="c"/><feComposite in="SourceGraphic"/></filter><filter id="e" x="-15" y="695.153" width="54" height="68" filterUnits="userSpaceOnUse"><feOffset dy="5" input="SourceAlpha"/><feGaussianBlur stdDeviation="5" result="f"/><feFlood flood-color="#070a0d" flood-opacity="0.302"/><feComposite operator="in" in2="f"/><feComposite in="SourceGraphic"/></filter><clipPath id="g"><rect class="a" width="23" height="43" transform="translate(200 782)"/></clipPath><filter id="h" x="-15.001" y="644" width="54.001" height="67.001" filterUnits="userSpaceOnUse"><feOffset dy="5" input="SourceAlpha"/><feGaussianBlur stdDeviation="5" result="i"/><feFlood flood-color="#070a0d" flood-opacity="0.302"/><feComposite operator="in" in2="i"/><feComposite in="SourceGraphic"/></filter><filter id="k" x="-15.001" y="594" width="54.001" height="67.001" filterUnits="userSpaceOnUse"><feOffset dy="5" input="SourceAlpha"/><feGaussianBlur stdDeviation="5" result="l"/><feFlood flood-color="#070a0d" flood-opacity="0.302"/><feComposite operator="in" in2="l"/><feComposite in="SourceGraphic"/></filter><filter id="o" x="-15.024" y="493" width="54.024" height="68.001" filterUnits="userSpaceOnUse"><feOffset dy="5" input="SourceAlpha"/><feGaussianBlur stdDeviation="5" result="p"/><feFlood flood-color="#070a0d" flood-opacity="0.302"/><feComposite operator="in" in2="p"/><feComposite in="SourceGraphic"/></filter><clipPath id="q"><rect class="a" width="22" height="43" transform="translate(200 782)"/></clipPath><filter id="s" x="-15" y="395" width="53" height="66" filterUnits="userSpaceOnUse"><feOffset dy="5" input="SourceAlpha"/><feGaussianBlur stdDeviation="5" result="t"/><feFlood flood-color="#070a0d" flood-opacity="0.302"/><feComposite operator="in" in2="t"/><feComposite in="SourceGraphic"/></filter><clipPath id="u"><rect class="a" width="23" height="43" transform="translate(159 772)"/></clipPath><clipPath id="w"><rect class="a" width="23" height="43" transform="translate(200 781)"/></clipPath><filter id="x" x="-15.038" y="243.998" width="54.038" height="67.155" filterUnits="userSpaceOnUse"><feOffset dy="5" input="SourceAlpha"/><feGaussianBlur stdDeviation="5" result="y"/><feFlood flood-color="#163e59" flood-opacity="0.149"/><feComposite operator="in" in2="y"/><feComposite in="SourceGraphic"/></filter><filter id="aa" x="-15.038" y="193.998" width="54.038" height="67.155" filterUnits="userSpaceOnUse"><feOffset dy="5" input="SourceAlpha"/><feGaussianBlur stdDeviation="5" result="ab"/><feFlood flood-color="#163e59" flood-opacity="0.149"/><feComposite operator="in" in2="ab"/><feComposite in="SourceGraphic"/></filter><clipPath id="af"><rect class="a" width="23" height="43" transform="translate(198.5 782)"/></clipPath><filter id="ag" x="-15.024" y="-6" width="54.024" height="67.001" filterUnits="userSpaceOnUse"><feOffset dy="5" input="SourceAlpha"/><feGaussianBlur stdDeviation="5" result="ah"/><feFlood flood-color="#163e59" flood-opacity="0.149"/><feComposite operator="in" in2="ah"/><feComposite in="SourceGraphic"/></filter><clipPath id="aj"><rect width="23" height="800"/></clipPath></defs><g id="ai" class="b"><g class="c" transform="translate(-159 -24)"><g transform="translate(159 779.153)"><g class="al" transform="matrix(1, 0, 0, 1, 0, -755.15)"><path class="d" d="M379.56,790h-3c-3.062-.023-5.537,1.422-6.592,5.13-1.292,5.2-5.411,23.429-6.109,26.219-.812,3.155-2.459,4.706-8.3,4.706,0,.412,0,1.945,0,1.945l24-.025Z" transform="translate(-355.56 -34.85)"/></g><path class="d" d="M379.56,790h-3c-3.062-.023-5.537,1.422-6.592,5.13-1.292,5.2-5.411,23.429-6.109,26.219-.812,3.155-2.459,4.706-8.3,4.706,0,.412,0,1.945,0,1.945l24-.025Z" transform="translate(-355.56 -790)"/></g><g transform="translate(159 778)"><path class="e" d="M345,788h-2c-4.416,0-7.459,1.339-8.792,6.64-.928,3.79-4.813,21.345-5.818,25.194-.678,2.372-1.464,4.054-5.39,4.054h-2V826h2c5.213,0,6.494-1.936,7.719-6.269,1.128-3.991,5.29-23.445,5.8-25.091.959-3.562,2.941-4.529,6.481-4.529h2" transform="translate(-321 -788)"/></g></g><g class="c" transform="translate(-159 -74)"><g transform="translate(159 779)"><g class="ak" transform="matrix(1, 0, 0, 1, 0, -705)"><path class="d" d="M379.56,790h-3c-3.062-.023-5.537,1.422-6.592,5.13-1.292,5.2-5.411,23.429-6.109,26.219-.812,3.155-2.459,4.706-8.3,4.706,0,.412,0,1.945,0,1.945l24-.025Z" transform="translate(-355.56 -84.85)"/></g><g class="f" transform="translate(-355.56 -789.847)"><path class="aa" d="M379.56,790h-3c-3.062-.023-5.537,1.422-6.592,5.13-1.292,5.2-5.411,23.429-6.109,26.219-.812,3.155-2.459,4.706-8.3,4.706,0,.412,0,1.945,0,1.945l24-.025Z"/><path class="ab" d="M 376.4875183105469 789.999755859375 C 373.4583435058594 789.9996948242188 371.01416015625 791.4512939453125 369.967529296875 795.1295166015625 C 368.67529296875 800.3280639648438 364.556884765625 818.5582885742188 363.8583984375 821.348388671875 C 363.0458984375 824.503173828125 361.3989562988281 826.0548706054688 355.559814453125 826.0548706054688 C 355.564453125 826.4671630859375 355.559814453125 827.999755859375 355.559814453125 827.999755859375 L 379.559814453125 827.9749755859375 L 379.559814453125 790 C 379.559814453125 790 376.97705078125 790 376.559814453125 790 C 376.5357055664063 789.9998168945313 376.5115356445313 789.999755859375 376.4875183105469 789.999755859375 M 376.4874267578125 788.999755859375 L 376.4875183105469 788.999755859375 C 376.5126647949219 788.999755859375 376.5379333496094 788.9998168945313 376.5631713867188 789 L 379.559814453125 789 L 380.559814453125 789 L 380.559814453125 790 L 380.559814453125 827.9749755859375 L 380.559814453125 828.9739379882813 L 379.5608520507813 828.9749755859375 L 355.5608520507813 828.999755859375 L 354.5567932128906 829.0007934570313 L 354.559814453125 827.9967041015625 C 354.5598754882813 827.9814453125 354.5643920898438 826.4666137695313 354.5598754882813 826.0661010742188 L 354.5484924316406 825.0548706054688 L 355.559814453125 825.0548706054688 C 361.4162902832031 825.0548706054688 362.2928161621094 823.4164428710938 362.8893432617188 821.1014404296875 C 363.1911926269531 819.8949584960938 364.1290893554688 815.8167724609375 365.2149353027344 811.0953369140625 C 366.6438903808594 804.8818359375 368.2634887695313 797.83935546875 368.9970397949219 794.8883056640625 L 369.0010986328125 794.8720092773438 L 369.0057067871094 794.8558349609375 C 369.5683288574219 792.8786010742188 370.5394897460938 791.3724975585938 371.8922729492188 790.3793334960938 C 373.1390991210938 789.4638671875 374.6851196289063 788.999755859375 376.4874267578125 788.999755859375 Z"/></g></g><g transform="translate(159 778)"><path class="g" d="M345,788h-2c-4.416,0-7.459,1.339-8.792,6.64-.928,3.79-4.813,21.345-5.818,25.194-.678,2.372-1.464,4.054-5.39,4.054h-2V826h2c5.213,0,6.494-1.936,7.719-6.269,1.128-3.991,5.29-23.445,5.8-25.091.959-3.562,2.941-4.529,6.481-4.529h2" transform="translate(-321 -788)"/></g></g><g class="h" transform="translate(-200 -135)"><g transform="translate(200 789)"><g class="aj" transform="matrix(1, 0, 0, 1, 0, -654)"><path class="i" d="M379.56,790h-3a6.288,6.288,0,0,0-6.592,4.863c-1.292,4.928-5.411,22.21-6.109,24.855a7.321,7.321,0,0,1-7.3,5.282c1.313-.031,23,0,23,0Z" transform="translate(-356.56 -135)"/></g><path class="j" d="M379.56,790h-3a6.289,6.289,0,0,0-6.592,4.863c-1.292,4.928-4.411,21.21-5.109,23.855-.812,2.991-4.584,5.282-8.3,5.282.011.417,0,1,0,1h23Z" transform="translate(-355.56 -788)"/></g></g><g class="h" transform="translate(-200 -185)"><g transform="translate(200 789)"><g class="ai" transform="matrix(1, 0, 0, 1, 0, -604)"><path class="k" d="M379.56,790h-3a6.288,6.288,0,0,0-6.592,4.863c-1.292,4.928-5.411,22.21-6.109,24.855a7.321,7.321,0,0,1-7.3,5.282c1.313-.031,23,0,23,0Z" transform="translate(-356.56 -185)"/></g><path class="d" d="M379.56,790h-3a6.289,6.289,0,0,0-6.592,4.863c-1.292,4.928-4.411,21.21-5.109,23.855-.812,2.991-4.584,5.282-8.3,5.282.011.417,0,1,0,1h23Z" transform="translate(-355.56 -788)"/></g></g><g class="h" transform="translate(-200 -235)"><g transform="translate(200 790)"><g class="f" transform="translate(-356.56 -790)"><path class="aa" d="M 380.059814453125 826.0005493164063 L 379.55908203125 825.9998168945313 C 379.4627075195313 825.9996948242188 369.8427124023438 825.98583984375 363.1061706542969 825.98583984375 C 359.6816711425781 825.98583984375 357.5651245117188 825.9893798828125 356.8148803710938 825.996337890625 C 356.7303771972656 825.9986572265625 356.6445617675781 825.9998168945313 356.559814453125 825.9998168945313 L 356.5478515625 824.9999389648438 C 356.6000671386719 824.9987182617188 356.6837768554688 824.99755859375 356.7961730957031 824.9964599609375 C 360.0065002441406 824.9053344726563 362.5888977050781 822.94970703125 363.3754272460938 820.0133056640625 C 363.6763610839844 818.8573608398438 364.6155090332031 814.9308471679688 365.7029113769531 810.3843383789063 C 367.1315612792969 804.4111938476563 368.7507934570313 797.6410522460938 369.4834289550781 794.80712890625 L 369.4856262207031 794.7987060546875 L 369.4880676269531 794.7903442382813 C 370.5123291015625 791.3292236328125 372.9327392578125 789.4998168945313 376.4875793457031 789.4998168945313 C 376.5126342773438 789.4998168945313 376.538330078125 789.4998779296875 376.5634460449219 789.5000610351563 L 379.559814453125 789.5000610351563 L 380.059814453125 789.5000610351563 L 380.059814453125 790.0000610351563 L 380.059814453125 825.4998168945313 L 380.059814453125 826.0005493164063 Z"/><path class="ac" d="M 376.4875793457031 789.9998168945313 C 373.4581909179688 789.9996337890625 371.0142211914063 791.395263671875 369.967529296875 794.9322509765625 C 368.67529296875 799.9308471679688 364.556884765625 817.4598388671875 363.8583984375 820.1427001953125 C 363.0639038085938 823.1088256835938 360.3964538574219 825.396484375 356.8056030273438 825.4963989257813 C 357.642333984375 825.4885864257813 360.0995788574219 825.48583984375 363.1061706542969 825.48583984375 C 369.9210205078125 825.48583984375 379.559814453125 825.4998168945313 379.559814453125 825.4998168945313 L 379.559814453125 790.0000610351563 C 379.559814453125 790.0000610351563 376.97705078125 790.0000610351563 376.559814453125 790.0000610351563 C 376.535888671875 789.9998779296875 376.5114440917969 789.9998168945313 376.4875793457031 789.9998168945313 M 356.8056030273438 825.4963989257813 C 356.6941223144531 825.4974365234375 356.6112365722656 825.4985961914063 356.559814453125 825.4998168945313 C 356.6421203613281 825.4998168945313 356.7242431640625 825.4986572265625 356.8056030273438 825.4963989257813 M 376.4870300292969 788.9998168945313 L 376.4870300292969 789.9998168945313 L 376.4872131347656 788.9998168945313 C 376.5123596191406 788.9998168945313 376.5377197265625 788.9998779296875 376.5626525878906 789.0000610351563 L 379.559814453125 789.0000610351563 L 380.559814453125 789.0000610351563 L 380.559814453125 790.0000610351563 L 380.559814453125 825.4998168945313 L 380.559814453125 826.5012817382813 L 379.558349609375 826.4998168945313 C 379.4619750976563 826.4996948242188 369.8423461914063 826.48583984375 363.1061706542969 826.48583984375 C 359.6891479492188 826.48583984375 357.5755310058594 826.4893798828125 356.8233947753906 826.4962768554688 C 356.7359619140625 826.4986572265625 356.6473388671875 826.4998168945313 356.559814453125 826.4998168945313 L 356.5359191894531 824.5001220703125 C 356.5889587402344 824.4988403320313 356.673583984375 824.4976196289063 356.7869873046875 824.4965209960938 C 359.7677612304688 824.4099731445313 362.1631774902344 822.601318359375 362.8916931152344 819.88671875 C 363.1934204101563 818.7271118164063 364.131103515625 814.8067016601563 365.2166137695313 810.26806640625 C 366.645751953125 804.2927856445313 368.2655944824219 797.5203247070313 368.9993591308594 794.6819458007813 L 369.0036926269531 794.6651611328125 L 369.0086364746094 794.6484985351563 C 369.5744323730469 792.736572265625 370.5495910644531 791.28125 371.9070739746094 790.3228149414063 C 373.1505432128906 789.4449462890625 374.6914672851563 788.9998168945313 376.4870300292969 788.9998168945313 Z"/></g></g></g><g class="h" transform="translate(-200 -285)"><g transform="translate(200 789)"><g class="ah" transform="matrix(1, 0, 0, 1, 0, -504)"><g class="l" transform="translate(-356.56 -286)"><path class="aa" d="M379.56,790h-3a6.31,6.31,0,0,0-6.592,5c-1.292,5.069-5.411,22.845-6.109,25.566a7.349,7.349,0,0,1-7.3,5.433c1.313-.032,23,0,23,0Z"/><path class="ab" d="M 376.4876403808594 789.9998168945313 C 373.4582214355469 789.9996337890625 371.0142211914063 791.4149780273438 369.967529296875 795.001708984375 C 368.67529296875 800.0707397460938 364.556884765625 817.8466186523438 363.8583984375 820.5672607421875 C 363.0639038085938 823.5751342773438 360.3963012695313 825.89501953125 356.8054809570313 825.996337890625 C 357.6422119140625 825.9884033203125 360.0995788574219 825.9856567382813 363.1061706542969 825.9856567382813 C 369.9210205078125 825.9856567382813 379.559814453125 825.9998168945313 379.559814453125 825.9998168945313 L 379.559814453125 790.0000610351563 C 379.559814453125 790.0000610351563 376.97705078125 790.0000610351563 376.559814453125 790.0000610351563 C 376.535888671875 789.9998779296875 376.511474609375 789.9998168945313 376.4876403808594 789.9998168945313 M 356.8054809570313 825.996337890625 C 356.6940002441406 825.9974365234375 356.6112365722656 825.9985961914063 356.559814453125 825.9998168945313 C 356.6421203613281 825.9998168945313 356.72412109375 825.9986572265625 356.8054809570313 825.996337890625 M 376.4871215820313 788.9998168945313 L 376.4871215820313 789.9998168945313 L 376.4872741699219 788.9998168945313 C 376.5126037597656 788.9998168945313 376.5381469726563 788.9998779296875 376.5632629394531 789.0000610351563 L 379.559814453125 789.0000610351563 L 380.559814453125 789.0000610351563 L 380.559814453125 790.0000610351563 L 380.559814453125 825.9998168945313 L 380.559814453125 827.0012817382813 L 379.558349609375 826.9998168945313 C 379.4619750976563 826.9996948242188 369.8423156738281 826.9856567382813 363.1061706542969 826.9856567382813 C 359.69091796875 826.9856567382813 357.5775756835938 826.9891967773438 356.8242492675781 826.9962158203125 C 356.7367248535156 826.9985961914063 356.6477966308594 826.9998168945313 356.559814453125 826.9998168945313 L 356.5355224609375 825.0001220703125 C 356.5885314941406 824.9988403320313 356.6729125976563 824.9976196289063 356.7861633300781 824.9965209960938 C 359.765625 824.9089965820313 362.1607360839844 823.072509765625 362.890625 820.3154296875 C 363.1921691894531 819.1403198242188 364.1300964355469 815.1635131835938 365.2159729003906 810.5595092773438 C 366.6450500488281 804.5003662109375 368.2648010253906 797.6327514648438 368.9985046386719 794.7546997070313 L 369.0027465820313 794.738037109375 L 369.007568359375 794.7215576171875 C 369.5722351074219 792.78662109375 370.5459594726563 791.3133544921875 371.9017333984375 790.3427124023438 C 373.1463928222656 789.4515991210938 374.6891174316406 788.9998168945313 376.4871215820313 788.9998168945313 Z"/></g></g></g></g><g class="m" transform="translate(-199 -335)"><g transform="translate(200 789)"><path class="d" d="M379.56,790h-3a6.31,6.31,0,0,0-6.592,5c-1.292,5.069-5.411,22.845-6.109,25.566a7.349,7.349,0,0,1-7.3,5.433c1.313-.032,23,0,23,0Z" transform="translate(-356.56 -790)"/></g></g><g class="h" transform="translate(-200 -385)"><g transform="translate(200 790)"><g class="ag" transform="matrix(1, 0, 0, 1, 0, -405)"><path class="d" d="M379.56,790h-3a6.31,6.31,0,0,0-6.592,5c-1.292,5.069-5.411,22.845-6.109,25.566a7.349,7.349,0,0,1-7.3,5.433c1.313-.032,23,0,23,0Z" transform="translate(-356.56 -385)"/></g><g class="f" transform="translate(-356.56 -790)"><path class="aa" d="M 380.059814453125 826.5005493164063 L 379.55908203125 826.4998168945313 C 379.4627075195313 826.4996948242188 369.8427124023438 826.4856567382813 363.1061706542969 826.4856567382813 C 359.6814880371094 826.4856567382813 357.5647888183594 826.4892578125 356.8145751953125 826.4962768554688 C 356.7301940917969 826.4986572265625 356.64453125 826.4998168945313 356.559814453125 826.4998168945313 L 356.5476989746094 825.4999389648438 C 356.5999450683594 825.4987182617188 356.6836242675781 825.4974975585938 356.7961120605469 825.4963989257813 C 360.0058288574219 825.4039916992188 362.5878601074219 823.4194946289063 363.3749694824219 820.4395751953125 C 363.6759948730469 819.26708984375 364.6151428222656 815.2850952148438 365.70263671875 810.6742553710938 C 367.1312255859375 804.6171875 368.7504272460938 797.7518920898438 369.4830322265625 794.878173828125 L 369.4851379394531 794.869873046875 L 369.487548828125 794.8616333007813 C 370.5111999511719 791.3538818359375 372.9317932128906 789.4998168945313 376.4876403808594 789.4998168945313 C 376.5126953125 789.4998168945313 376.5383605957031 789.4998779296875 376.5635070800781 789.5000610351563 L 379.559814453125 789.5000610351563 L 380.059814453125 789.5000610351563 L 380.059814453125 790.0000610351563 L 380.059814453125 825.9998168945313 L 380.059814453125 826.5005493164063 Z"/><path class="ac" d="M 376.4876403808594 789.9998168945313 C 373.4582214355469 789.9996337890625 371.0142211914063 791.4149780273438 369.967529296875 795.001708984375 C 368.67529296875 800.0707397460938 364.556884765625 817.8466186523438 363.8583984375 820.5672607421875 C 363.0639038085938 823.5751342773438 360.3963012695313 825.89501953125 356.8054809570313 825.996337890625 C 357.6422119140625 825.9884033203125 360.0995788574219 825.9856567382813 363.1061706542969 825.9856567382813 C 369.9210205078125 825.9856567382813 379.559814453125 825.9998168945313 379.559814453125 825.9998168945313 L 379.559814453125 790.0000610351563 C 379.559814453125 790.0000610351563 376.97705078125 790.0000610351563 376.559814453125 790.0000610351563 C 376.535888671875 789.9998779296875 376.511474609375 789.9998168945313 376.4876403808594 789.9998168945313 M 356.8054809570313 825.996337890625 C 356.6940002441406 825.9974365234375 356.6112365722656 825.9985961914063 356.559814453125 825.9998168945313 C 356.6421203613281 825.9998168945313 356.72412109375 825.9986572265625 356.8054809570313 825.996337890625 M 376.4871215820313 788.9998168945313 L 376.4871215820313 789.9998168945313 L 376.4872741699219 788.9998168945313 C 376.5126037597656 788.9998168945313 376.5381469726563 788.9998779296875 376.5632629394531 789.0000610351563 L 379.559814453125 789.0000610351563 L 380.559814453125 789.0000610351563 L 380.559814453125 790.0000610351563 L 380.559814453125 825.9998168945313 L 380.559814453125 827.0012817382813 L 379.558349609375 826.9998168945313 C 379.4619750976563 826.9996948242188 369.8423156738281 826.9856567382813 363.1061706542969 826.9856567382813 C 359.69091796875 826.9856567382813 357.5775756835938 826.9891967773438 356.8242492675781 826.9962158203125 C 356.7367248535156 826.9985961914063 356.6477966308594 826.9998168945313 356.559814453125 826.9998168945313 L 356.5355224609375 825.0001220703125 C 356.5885314941406 824.9988403320313 356.6729125976563 824.9976196289063 356.7861633300781 824.9965209960938 C 359.765625 824.9089965820313 362.1607360839844 823.072509765625 362.890625 820.3154296875 C 363.1921691894531 819.1403198242188 364.1300964355469 815.1635131835938 365.2159729003906 810.5595092773438 C 366.6450500488281 804.5003662109375 368.2648010253906 797.6327514648438 368.9985046386719 794.7546997070313 L 369.0027465820313 794.738037109375 L 369.007568359375 794.7215576171875 C 369.5722351074219 792.78662109375 370.5459594726563 791.3133544921875 371.9017333984375 790.3427124023438 C 373.1463928222656 789.4515991210938 374.6891174316406 788.9998168945313 376.4871215820313 788.9998168945313 Z"/></g></g></g><g class="n" transform="translate(-159 -422)"><g transform="translate(159 777.153)"><g transform="translate(-355.56 -790)"><path class="a" d="M379.56,790h-3a6.341,6.341,0,0,0-6.592,5.13c-1.292,5.2-5.411,23.428-6.109,26.218-.812,3.155-2.459,4.707-8.3,4.707V828l24-.024Z"/><path class="o" d="M376.488,790.052c-3.03,0-5.474,1.448-6.52,5.116-1.293,5.184-5.411,23.364-6.11,26.147-.812,3.146-2.459,4.694-8.3,4.694,0,.411,0,1.939,0,1.939l24-.024V790.052h-3.072m0-1.052h4.072v39.974h-1l-24,.024h-1l0-1.056c0-.015,0-1.525,0-1.923l-.012-1.065h1.012c5.865,0,6.74-1.622,7.332-3.913.3-1.2,1.24-5.269,2.326-9.978,1.429-6.2,3.048-13.22,3.782-16.164l.005-.018.005-.018a8.128,8.128,0,0,1,2.9-4.494A7.562,7.562,0,0,1,376.488,789Z"/></g></g><g transform="translate(159 776)"><path class="p" d="M345,788h-2c-4.416,0-7.459,1.34-8.792,6.64-.928,3.791-4.813,21.345-5.818,25.195-.678,2.372-1.464,4.055-5.39,4.055h-2V826h2c5.213,0,6.494-1.936,7.719-6.269,1.128-3.991,5.29-23.446,5.8-25.091.959-3.563,2.941-4.53,6.481-4.53h2" transform="translate(-321 -788)"/></g></g><g class="n" transform="translate(-159 -472)"><g transform="translate(159 777.153)"><g transform="translate(-355.56 -790)"><path class="a" d="M379.56,790h-3a6.341,6.341,0,0,0-6.592,5.13c-1.292,5.2-5.411,23.428-6.109,26.218-.812,3.155-2.459,4.707-8.3,4.707V828l24-.024Z"/><path class="o" d="M376.488,790.052c-3.03,0-5.474,1.448-6.52,5.116-1.293,5.184-5.411,23.364-6.11,26.147-.812,3.146-2.459,4.694-8.3,4.694,0,.411,0,1.939,0,1.939l24-.024V790.052h-3.072m0-1.052h4.072v39.974h-1l-24,.024h-1l0-1.056c0-.015,0-1.525,0-1.923l-.012-1.065h1.012c5.865,0,6.74-1.622,7.332-3.913.3-1.2,1.24-5.269,2.326-9.978,1.429-6.2,3.048-13.22,3.782-16.164l.005-.018.005-.018a8.128,8.128,0,0,1,2.9-4.494A7.562,7.562,0,0,1,376.488,789Z"/></g></g><g transform="translate(159 776)"><path class="q" d="M345,788h-2c-4.416,0-7.459,1.34-8.792,6.64-.928,3.791-4.813,21.345-5.818,25.195-.678,2.372-1.464,4.055-5.39,4.055h-2V826h2c5.213,0,6.494-1.936,7.719-6.269,1.128-3.991,5.29-23.446,5.8-25.091.959-3.563,2.941-4.53,6.481-4.53h2" transform="translate(-321 -788)"/></g></g><g class="r" transform="translate(-200 -534)"><g transform="translate(200 790)"><g class="af" transform="matrix(1, 0, 0, 1, 0, -256)"><path class="s" d="M379.56,790h-3a6.292,6.292,0,0,0-6.592,4.881c-1.292,4.946-5.411,22.291-6.109,24.946a7.324,7.324,0,0,1-7.3,5.3c1.313-.031,23,0,23,0Z" transform="translate(-356.56 -534.98)"/></g><path class="t" d="M379.56,790h-3a6.289,6.289,0,0,0-6.592,4.86c-1.292,4.925-4.411,21.2-5.109,23.839a7.321,7.321,0,0,1-7.3,5.279c1.313-.031,22,0,22,0Z" transform="translate(-355.56 -789.983)"/></g></g><g class="r" transform="translate(-200 -584)"><g transform="translate(200 790)"><g class="ae" transform="matrix(1, 0, 0, 1, 0, -206)"><path class="u" d="M379.56,790h-3a6.292,6.292,0,0,0-6.592,4.881c-1.292,4.946-5.411,22.291-6.109,24.946a7.324,7.324,0,0,1-7.3,5.3c1.313-.031,23,0,23,0Z" transform="translate(-356.56 -584.98)"/></g><path class="a" d="M379.56,790h-3a6.288,6.288,0,0,0-6.592,4.86c-1.292,4.925-4.411,21.2-5.109,23.84a7.321,7.321,0,0,1-7.3,5.279c1.313-.031,22,0,22,0Z" transform="translate(-355.56 -789.983)"/></g></g><g class="h" transform="translate(-200 -635)"><g transform="translate(200 790)"><g transform="translate(-0.024 -1)"><path class="v" d="M379.56,790h-3a6.289,6.289,0,0,0-6.592,4.86c-1.292,4.925-5.411,22.2-6.109,24.839a7.321,7.321,0,0,1-7.3,5.279c1.313-.031,23,0,23,0Z" transform="translate(-356.536 -789)"/><path class="w" d="M376.488,790a6.277,6.277,0,0,0-6.52,4.863c-1.293,4.928-5.411,22.209-6.11,24.854A7.3,7.3,0,0,1,356.8,825c.837-.007,3.3-.01,6.3-.01,6.815,0,16.454.014,16.454.014V790h-3.072M356.8,825l-.245,0c.082,0,.164,0,.245,0M376.488,789h4.072v37h-1c-.1,0-9.716-.014-16.452-.014-3.416,0-5.53,0-6.283.01-.087,0-.175,0-.263,0l-.024-2,.251,0a6.277,6.277,0,0,0,6.105-4.538c.3-1.142,1.24-5.008,2.326-9.484,1.429-5.891,3.048-12.567,3.782-15.366l.005-.017.005-.017a7.7,7.7,0,0,1,2.9-4.272A7.841,7.841,0,0,1,376.488,789Z" transform="translate(-356.536 -789)"/></g></g></g><g class="h" transform="translate(-200 -685)"><g transform="translate(200 790)"><g transform="translate(-0.024 -1)"><path class="t" d="M379.56,790h-3a6.289,6.289,0,0,0-6.592,4.86c-1.292,4.925-5.411,22.2-6.109,24.839a7.321,7.321,0,0,1-7.3,5.279c1.313-.031,23,0,23,0Z" transform="translate(-356.536 -789)"/><path class="o" d="M376.488,790a6.277,6.277,0,0,0-6.52,4.863c-1.293,4.928-5.411,22.209-6.11,24.854A7.3,7.3,0,0,1,356.8,825c.837-.007,3.3-.01,6.3-.01,6.815,0,16.454.014,16.454.014V790h-3.072M356.8,825l-.245,0c.082,0,.164,0,.245,0M376.488,789h4.072v37h-1c-.1,0-9.716-.014-16.452-.014-3.416,0-5.53,0-6.283.01-.087,0-.175,0-.263,0l-.024-2,.251,0a6.277,6.277,0,0,0,6.105-4.538c.3-1.142,1.24-5.008,2.326-9.484,1.429-5.891,3.048-12.567,3.782-15.366l.005-.017.005-.017a7.7,7.7,0,0,1,2.9-4.272A7.841,7.841,0,0,1,376.488,789Z" transform="translate(-356.536 -789)"/></g></g></g><g class="h" transform="translate(-200 -735)"><g transform="translate(200 789)"><g transform="translate(-356.56 -789)"><path class="x" d="M379.56,790h-3a6.289,6.289,0,0,0-6.592,4.86c-1.292,4.925-5.411,22.2-6.109,24.839a7.321,7.321,0,0,1-7.3,5.279c1.313-.031,23,0,23,0Z" transform="translate(0 0)"/><path class="o" d="M376.488,790a6.277,6.277,0,0,0-6.52,4.863c-1.293,4.928-5.411,22.209-6.11,24.854A7.3,7.3,0,0,1,356.8,825c.837-.007,3.3-.01,6.3-.01,6.815,0,16.454.014,16.454.014V790h-3.072M356.8,825l-.245,0c.082,0,.164,0,.245,0M376.488,789h4.072v37h-1c-.1,0-9.716-.014-16.452-.014-3.416,0-5.53,0-6.283.01-.087,0-.175,0-.263,0l-.024-2,.251,0a6.277,6.277,0,0,0,6.105-4.538c.3-1.142,1.24-5.008,2.326-9.484,1.429-5.891,3.048-12.567,3.782-15.366l.005-.017.005-.017a7.7,7.7,0,0,1,2.9-4.272A7.841,7.841,0,0,1,376.488,789Z"/></g></g></g><g class="y" transform="translate(-198.5 -785)"><g transform="translate(198.5 791)"><g class="ad" transform="matrix(1, 0, 0, 1, 0, -6)"><g class="z" transform="translate(-356.56 -785)"><path class="aa" d="M379.56,790h-3a6.289,6.289,0,0,0-6.592,4.863c-1.292,4.928-5.411,22.21-6.109,24.855a7.321,7.321,0,0,1-7.3,5.282c1.313-.031,23,0,23,0Z"/><path class="ab" d="M 376.4875793457031 789.9998168945313 C 373.4584350585938 789.9998168945313 371.01416015625 791.3757934570313 369.967529296875 794.8627319335938 C 368.67529296875 799.7909545898438 364.556884765625 817.0730590820313 363.8583984375 819.7181396484375 C 363.0639038085938 822.6424560546875 360.3964538574219 824.89794921875 356.8056335449219 824.9964599609375 C 357.6423645019531 824.9887084960938 360.0995788574219 824.9860229492188 363.1061706542969 824.9860229492188 C 369.9210205078125 824.9860229492188 379.559814453125 824.9998168945313 379.559814453125 824.9998168945313 L 379.559814453125 790.0000610351563 C 379.559814453125 790.0000610351563 376.97705078125 790.0000610351563 376.559814453125 790.0000610351563 C 376.5357055664063 789.9998779296875 376.5116271972656 789.9998168945313 376.4875793457031 789.9998168945313 M 356.8056335449219 824.9964599609375 C 356.6941528320313 824.9974975585938 356.6112365722656 824.9985961914063 356.559814453125 824.9998168945313 C 356.6421203613281 824.9998168945313 356.7242736816406 824.9986572265625 356.8056335449219 824.9964599609375 M 376.4875793457031 788.9998168945313 C 376.512939453125 788.9998168945313 376.538330078125 788.9998779296875 376.5637512207031 789.0000610351563 L 379.559814453125 789.0000610351563 L 380.559814453125 789.0000610351563 L 380.559814453125 790.0000610351563 L 380.559814453125 824.9998168945313 L 380.559814453125 826.001220703125 L 379.5583801269531 825.9998168945313 C 379.4620056152344 825.9996948242188 369.8423461914063 825.9860229492188 363.1061706542969 825.9860229492188 C 359.6893920898438 825.9860229492188 357.5757751464844 825.989501953125 356.823486328125 825.996337890625 C 356.7362365722656 825.9986572265625 356.6475830078125 825.9998168945313 356.559814453125 825.9998168945313 L 356.5362854003906 824.0001220703125 C 356.5892944335938 823.9988403320313 356.6739196777344 823.9976196289063 356.7873229980469 823.99658203125 C 359.7693786621094 823.9111938476563 362.1649169921875 822.1312255859375 362.8924255371094 819.4594116210938 C 363.1939086914063 818.3171997070313 364.1316833496094 814.4514770507813 365.2174072265625 809.9760131835938 C 366.6465759277344 804.0848999023438 368.2663879394531 797.40771484375 369.0002136230469 794.6090698242188 L 369.0046997070313 794.5921020507813 L 369.0097351074219 794.5752563476563 C 369.57666015625 792.6864624023438 370.5534362792969 791.2490234375 371.9128723144531 790.3029174804688 C 373.1552429199219 789.438232421875 374.6943969726563 788.9998168945313 376.4875793457031 788.9998168945313 Z"/></g></g></g></g></g></svg>