<svg xmlns="http://www.w3.org/2000/svg" width="384" height="384" viewBox="0 0 384 384"><defs><style>.cls-1{opacity:0;}.cls-2{fill:#e04c59;}.cls-3{fill:#dfe8f5;}.cls-4,.cls-5,.cls-6,.cls-8{fill:none;}.cls-4,.cls-5,.cls-6{stroke:#445d82;stroke-linecap:round;stroke-linejoin:round;}.cls-4,.cls-8{stroke-width:2px;}.cls-6{stroke-width:3px;}.cls-7{fill:#ff6b77;opacity:0.25;}.cls-8{stroke:#ff6b77;stroke-miterlimit:10;}</style></defs><g id="Access_denied" data-name="Access denied"><g id="Container" class="cls-1"><rect class="cls-2" width="384" height="384"/></g><path class="cls-3" d="M238,367.05c-34.16,1.29-42.68,3.17-111.64,3.78-17.58.15-117.8-2.57-117-9.55.47-3.94,33.12-6.42,75.05-7.83,6.3,2.83,82.3,3,112.25,2.83s111,.36,118.42.19C389.86,354.82,412.26,360.48,238,367.05Z"/><path class="cls-4" d="M84.6,353.13c-5.91-6.78-1.42-186.79-1-199.78,6-185.41,228.18-181.09,232-1.77.81,38,3.71,196.46,0,203.55C314.51,357.21,87.46,356.42,84.6,353.13Z"/><path class="cls-3" d="M204,71.11c-26.38.33-38.91,20.38-37.2,40.43s4.44,41.35,36.91,44c20.72,1.67,46.2-11.11,45.51-42.78C248.87,95.78,242,70.65,204,71.11Zm33.66,46c-3.13,25.29-22.33,24.5-35.26,24-6.21-.51-25.86-12.13-25.69-31.55.16-18,10.79-28,26.43-29.34C217.51,78.9,241.23,88.35,237.67,117.06Z"/><path class="cls-4" d="M163.48,109.15c0-18,11-39,40-38s42,18,41,39c-.67,14-5,39-36,40C185.3,150.89,163.48,140.16,163.48,109.15Z"/><path class="cls-5" d="M172.74,109.49c0-13.89,8.49-30.09,30.86-29.32s32.4,13.89,31.63,30.09c-.51,10.79-3.86,30.09-27.77,30.86C189.57,141.7,172.74,133.42,172.74,109.49Z"/><path class="cls-4" d="M131.79,184.7a99.44,99.44,0,0,1-2.4,23.79c-3,12.32-18.69,12.84-21-1.37-1-6.3-1.16-20.74-.56-29.74,1.4-21.13,20.62-22.76,22.84-6.48"/><path class="cls-4" d="M119.49,175.26c5.34-.85,22.77-2.11,30-1,2.21.33,5,4.67,3,5-7.69,1.29-26,2-33,1C115.41,179.66,116.53,175.73,119.49,175.26Z"/><path class="cls-5" d="M116.86,195.53c0-1.88,4.13-2.31,4.08-.6s-1.17,3.28-1.08,4,.22,4.61-.72,4.55-1-3.69-1.11-4.7S116.86,197.1,116.86,195.53Z"/><path class="cls-5" d="M143.63,45c-.79,12,1.13,116.88,1.57,123.52"/><path class="cls-5" d="M202.21,28.77c-.46,12.08.2,27.34.2,30.53"/><path class="cls-5" d="M204.77,153.86c0,2.7-.23,19,0,23.42"/><path class="cls-5" d="M204.77,187.58c0,2.7-.23,18.06,0,22.48"/><path class="cls-5" d="M205.1,295.69c0,2.7.53,49.46.76,53.89"/><path class="cls-5" d="M265.13,52.47c-.69,10.48,1.54,292.9,1.54,295.86"/><path class="cls-5" d="M145.63,184.35c-.12,10.47-1.1,152.74-.44,164"/><circle class="cls-6" cx="205.1" cy="182.85" r="1.5"/><path class="cls-4" d="M237.37,219c8.86,8.74,8.85,56.59.37,65.18-9,9.17-56,9.76-65.1.74-7.66-7.56-10.66-54-1.48-64.42C179,211.6,227.74,209.52,237.37,219Z"/><path class="cls-4" d="M237.37,219c8.86,8.74,8.85,56.59.37,65.18-9,9.17-56,9.76-65.1.74-7.66-7.56-10.66-54-1.48-64.42C179,211.6,227.74,209.52,237.37,219Z"/><path class="cls-5" d="M177.85,216.76c5.88-11.86,16.25-25.88,25.47-34.23"/><path class="cls-5" d="M206.78,182.53c8.05,7.22,16.6,21,21.72,32.38"/><path class="cls-7" d="M217.68,274.83c5.3-10.34,4.81-18.71,11-28.23,1.52-2.31-2.64-4.88-5.81-.83-2.7,3.46-4,10.28-4.79,10-1-.37-.34-17.19-.68-23.77-.18-3.39-4.26-4-4.57-.8-.21,2-.35,16.42-.66,17.59s-1.32,1-1.32-.21.25-18,0-19.83a2.3,2.3,0,0,0-4.54-.32c-.38,1.5-.43,19-.53,20.36s-1.38,1.11-1.43-.27c-.13-3.91-.11-14.92-.42-18.24-.25-2.55-3.78-2.48-4.21.4-.26,1.83-.39,14.86-.58,18-.08,1.36-1.29,1.51-1.4.24s-.12-11.29-.17-13-3.09-2.71-3.67.51-.85,14.26-.9,18.61c-.09,8.72.86,14.47,3.33,19.72C200.39,283.18,213.61,282.76,217.68,274.83Z"/><path class="cls-8" d="M215.06,273.18c5.3-10.34,4.81-18.72,11-28.23,1.52-2.32-2.64-4.89-5.81-.83-2.7,3.46-4,10.27-4.79,10-1-.37-.34-17.18-.68-23.76-.18-3.39-4.26-4-4.57-.8-.21,2-.35,16.42-.66,17.59s-1.32,1-1.32-.22.25-18,0-19.82a2.3,2.3,0,0,0-4.54-.32c-.38,1.5-.43,19-.53,20.36s-1.38,1.1-1.43-.27c-.13-3.91-.11-14.92-.42-18.24-.25-2.55-3.78-2.48-4.21.4-.26,1.83-.39,14.85-.58,18-.08,1.36-1.29,1.51-1.4.24s-.12-11.29-.17-13-3.09-2.71-3.67.51-.85,14.26-.9,18.61c-.09,8.72.85,14.47,3.33,19.72C197.77,281.53,211,281.11,215.06,273.18Z"/><path class="cls-5" d="M154,171c.75.76,2.91,3.31,3.18,4.75"/><path class="cls-5" d="M156.54,170.49c.42.49,3.42,3.07,3.54,3.64"/><path class="cls-5" d="M72.07,145.13c-.31,12,.15,35.24,0,45.87"/><path class="cls-5" d="M328.67,249.4c-.11,6.16-.34,59.47,0,65.17"/><path class="cls-5" d="M180.26,69c-2.43,1-6.91,3.53-8.89,6.27"/><path class="cls-5" d="M172.74,70.47c1.19-1,2.41-3,4.61-3.72"/><path class="cls-5" d="M99,319.39c-2.36,1.52-4.94,3.19-7.29,4.41"/><path class="cls-5" d="M97,324.59a41.55,41.55,0,0,1-4.57,2.17"/><path class="cls-5" d="M304.94,123.25c3.42,7.67,4,20.36,3.95,25.07"/></g></svg>