<svg xmlns="http://www.w3.org/2000/svg" width="384" height="384" viewBox="0 0 384 384"><defs><style>.cls-1{opacity:0;}.cls-2{fill:#e04c59;}.cls-3{fill:#dfe8f5;}.cls-10,.cls-4,.cls-5,.cls-8,.cls-9{fill:none;}.cls-10,.cls-4,.cls-5{stroke:#445d82;}.cls-10,.cls-4,.cls-8,.cls-9{stroke-linecap:round;stroke-linejoin:round;}.cls-4,.cls-8{stroke-width:2px;}.cls-5{stroke-miterlimit:10;}.cls-6{opacity:0.25;}.cls-7{fill:#f28d00;}.cls-8,.cls-9{stroke:#f28d00;}</style></defs><g id="Server_Maintenance" data-name="Server Maintenance"><g id="Container" class="cls-1"><rect class="cls-2" width="384" height="384"/></g><path class="cls-3" d="M44,324.49c-65.45,5.38-88.24,13.85,116.13,17.64,34.17.63,33.55,33.22,102.52,33.64,17.57.11,111.49-2.43,113.05-14,.55-4.11-15.07-7.16-33.81-8.57.4,3.64,8.81,7.75,6.1,9.33-6.82,4-22.43,4.4-31.9,4.41-3.41,0-4.91-6.25-8.24-6.24-19.58,0-34.79,1.14-35.86.95-2.83-.49,1.83,5.72-4.05,7-11.92,2.65-30.06,4-34.79.3-1.18-.92-1.89-12.71-2.5-14.58-1,.38-29.52,3.45-33.5.22-2.81-2.27-3.43-17-2.43-19.29-12,0-136.2-1.17-142.48-3.87C49.42,330.22,44.23,327.65,44,324.49Z"/><path class="cls-4" d="M42.85,27.54c.58-5.63,4.41-8.71,10-9,29.39-1.53,166-1.17,193,.07,8,.36,11.92,4.46,12.74,11.73,1.1,9.74,1.33,33.21-.5,43.21-1.14,6.22-4.81,10-10.14,10.82C227.44,87.47,74.78,85,54.84,83c-6.29-.63-10.79-2.88-11.79-10.88S41.74,38.26,42.85,27.54Z"/><path class="cls-4" d="M67.28,35.27c-.65,6.17-.58,28.78.08,31.26.38,1.44,6.3,1.24,7,0,.91-1.76.63-26.08,0-31.26C74.08,33.4,67.57,32.51,67.28,35.27Z"/><path class="cls-4" d="M87.33,36.11c-.65,6.17-.59,25.37.08,30,.28,2,6.3,1.67,7,.43.91-1.76.63-26.77,0-31.95C94.13,32.71,87.62,33.36,87.33,36.11Z"/><path class="cls-4" d="M134.51,35.47c.64,6.17.57,28.58-.08,31.06-.38,1.44-6.3,1.24-7,0-.91-1.76-.63-26.31,0-31.5C127.71,33.17,134.22,32.72,134.51,35.47Z"/><path class="cls-4" d="M218.14,36.26c1.13,1.39.74,6.63-.08,7.69-.59.77-6.29.75-7.36,0s-1.17-6.72,0-7.79C211.68,35.26,217.39,35.35,218.14,36.26Z"/><path class="cls-4" d="M237.14,36.26c1.13,1.39.74,6.63-.08,7.69-.59.77-6.29.75-7.36,0s-1.17-6.72,0-7.79C230.68,35.26,236.39,35.35,237.14,36.26Z"/><path class="cls-4" d="M218.14,57.27c1.14,1.39.75,6.63-.07,7.7-.59.77-6.31.75-7.38,0s-1.16-6.73,0-7.81C211.67,56.26,217.4,56.35,218.14,57.27Z"/><path class="cls-4" d="M237.14,57.27c1.14,1.39.75,6.63-.07,7.7-.59.77-6.31.75-7.38,0s-1.16-6.73,0-7.81C230.67,56.26,236.4,56.35,237.14,57.27Z"/><path class="cls-4" d="M114.46,35.53c.64,6.17.59,25.95-.08,30.57-.28,2-6.3,1.67-6.95.43-.91-1.76-.63-26.35,0-31.54C107.66,33.13,114.17,32.77,114.46,35.53Z"/><path class="cls-4" d="M218.06,168.68c-51.34.75-147.66-1.09-163.22-2.64-6.29-.63-10.79-2.88-11.79-10.88s-1.31-33.89-.2-44.61c.58-5.63,4.41-8.71,10-9,29.39-1.53,166-1.18,193,.07,8,.36,11.92,4.45,12.74,11.73a241.91,241.91,0,0,1,.52,33.24"/><path class="cls-4" d="M67.28,118.28c-.65,6.17-.58,28.78.08,31.26.38,1.44,6.3,1.24,7,0,.91-1.76.63-26.08,0-31.26C74.08,116.41,67.57,115.52,67.28,118.28Z"/><path class="cls-4" d="M87.33,119.12c-.65,6.17-.59,25.37.08,30,.28,2,6.3,1.67,7,.43.91-1.76.63-26.77,0-31.95C94.13,115.72,87.62,116.36,87.33,119.12Z"/><path class="cls-4" d="M134.51,118.48c.64,6.17.57,28.58-.08,31.06-.38,1.44-6.3,1.24-7,0-.91-1.76-.63-26.31,0-31.5C127.71,116.18,134.22,115.72,134.51,118.48Z"/><path class="cls-4" d="M218.14,119.27c1.13,1.39.74,6.63-.08,7.69-.59.77-6.29.75-7.36,0s-1.17-6.72,0-7.79C211.68,118.26,217.39,118.36,218.14,119.27Z"/><path class="cls-4" d="M237.14,119.27c1.13,1.39.74,6.63-.08,7.69-.59.77-6.29.75-7.36,0s-1.17-6.72,0-7.79C230.68,118.26,236.39,118.36,237.14,119.27Z"/><path class="cls-4" d="M218.14,140.28c1.14,1.39.75,6.63-.07,7.69-.59.77-6.31.76-7.38,0s-1.16-6.72,0-7.8C211.67,139.27,217.4,139.36,218.14,140.28Z"/><path class="cls-4" d="M237.14,140.28c1.14,1.39.75,6.63-.07,7.69-.59.77-6.31.76-7.38,0s-1.16-6.72,0-7.8C230.67,139.27,236.4,139.36,237.14,140.28Z"/><path class="cls-4" d="M114.46,118.54c.64,6.17.59,26-.08,30.57-.28,2-6.3,1.67-6.95.43-.91-1.76-.63-26.35,0-31.54C107.66,116.14,114.17,115.78,114.46,118.54Z"/><path class="cls-4" d="M203.56,251.14c-53.16.28-134.53-1.37-148.72-2.78-6.29-.63-10.79-2.88-11.79-10.88s-1.31-33.9-.2-44.62c.58-5.63,4.41-8.71,10-9,22.65-1.17,109-1.23,159.74-.63"/><path class="cls-4" d="M67.28,200.59c-.65,6.17-.58,28.78.08,31.26.38,1.45,6.3,1.25,7,0,.91-1.76.63-26.07,0-31.26C74.08,198.73,67.57,197.84,67.28,200.59Z"/><path class="cls-4" d="M87.33,201.44c-.65,6.17-.59,25.37.08,30,.28,2,6.3,1.68,7,.43.91-1.76.63-26.76,0-31.95C94.13,198,87.62,198.68,87.33,201.44Z"/><path class="cls-4" d="M134.51,200.8c.64,6.17.57,28.57-.08,31-.38,1.45-6.3,1.25-7,0-.91-1.76-.63-26.31,0-31.49C127.71,198.49,134.22,198,134.51,200.8Z"/><path class="cls-4" d="M114.46,200.85c.64,6.17.59,26-.08,30.57-.28,2-6.3,1.68-6.95.43-.91-1.76-.63-26.35,0-31.53C107.66,198.45,114.17,198.1,114.46,200.85Z"/><path class="cls-4" d="M191.33,334.18c-52.61,0-123.35-1.5-136.49-2.82-6.29-.63-10.79-2.88-11.79-10.88s-1.31-33.89-.2-44.61c.58-5.63,4.41-8.71,10-9,20.91-1.08,96.08-1.22,147.44-.76"/><path class="cls-4" d="M67.28,283.6c-.65,6.17-.58,28.78.08,31.26.38,1.45,6.3,1.24,7,0,.91-1.76.63-26.08,0-31.26C74.08,281.74,67.57,280.85,67.28,283.6Z"/><path class="cls-4" d="M87.33,284.45c-.65,6.17-.59,25.37.08,30,.28,2,6.3,1.67,7,.43.91-1.76.63-26.76,0-31.95C94.13,281.05,87.62,281.69,87.33,284.45Z"/><path class="cls-4" d="M134.51,283.8c.64,6.18.57,28.58-.08,31.06-.38,1.45-6.3,1.24-7,0-.91-1.76-.63-26.31,0-31.49C127.71,281.5,134.22,281.05,134.51,283.8Z"/><path class="cls-4" d="M114.46,283.86c.64,6.17.59,26-.08,30.57-.28,2-6.3,1.67-6.95.43-.91-1.76-.63-26.35,0-31.53C107.66,281.46,114.17,281.11,114.46,283.86Z"/><path class="cls-4" d="M49.85,85.85v12"/><path class="cls-4" d="M49.85,168.85v12"/><path class="cls-4" d="M49.85,250.85v12"/><path class="cls-4" d="M252.85,86.85v12"/><path class="cls-4" d="M228,354.23c-3.64.63-20.33,1.4-27.73.9a5.1,5.1,0,0,1-5-5.83c2.06-28,26.37-166.71,31.17-184.78,1.1-4.15,2.41-8.22,8.15-9.1,15-2.3,49.94-1.5,73.64,2,5.44.8,6.84,2.73,7.93,6.82,8.58,32.18,23.62,146.1,26.13,196.3.14,2.81-20.59,4.94-27.12,4.41-3-.24-2.73-5.65-5.88-5.81-8-.42-32.4.68-37.9,2.66-2.83,1-.89,6.11-5.15,7.12-6.32,1.49-22.29,2.46-27.63,1.58-3.95-.65-6.42-2.25-6.72-6.35-2.28-30.95-3.64-145.75-1.59-195.19.26-6.35.57-10.94,5.81-13.7"/><path class="cls-4" d="M230.39,167.48c28.45-2.35,69.3-1,87,1.42"/><path class="cls-4" d="M254.37,166.47c0,3.65,1.19,8.64,5.92,10.12,5.34,1.68,30.15,1.9,34.33-.15,3-1.46,4.09-7.26,3.79-9.24"/><path class="cls-4" d="M256.93,173.84c7.27,1.37,29.09,1.44,33-.47,1.95-1,3.1-3.78,3.58-6.17"/><path class="cls-5" d="M240.24,197.63c-.09-2.73-.3-6.07,2.43-6.07s66.85.15,69.2.76,17.38,121.36,17.53,127.89-81.87,7.6-84.3,6.54S240.31,199.76,240.24,197.63Z"/><g class="cls-6"><path class="cls-7" d="M308.55,241.3c-1.36-1.65-6.07-.74-6.07-.74l-2.9-4.95s3.57-4.63,3.47-6.31-10.48-7.69-12.11-7.37-1.46,6.52-2.46,6.43a31.58,31.58,0,0,0-6,.22s-2.63-5.13-5-5.31-8.27,4.92-8.64,6.49,2.4,7.2,2.4,7.2L269,242.39s-5.21-1.63-6.32-.34-1.13,14.89.65,15.79,7,.59,7,.59l3.1,5.11s-4.2,4.1-3.18,6.36,8.92,8.53,12.46,7.19c1.87-.71,3.27-6.62,3.27-6.62l5.13-.47s2.68,5,4.75,5.18,8.41-4.36,8.71-7-2.76-7-2.76-7l2-5.31s4.75-.59,5.71-2.14S309.92,242.94,308.55,241.3Zm-22.8,13.44c-3.76,0-6.82-3.47-6.82-7.75s3.06-7.75,6.82-7.75,6.82,3.47,6.82,7.75S289.52,254.74,285.75,254.74Z"/></g><path class="cls-8" d="M299.17,228.05c.11,1.67-3.46,6.31-3.46,6.31l2.9,4.94s4.7-.9,6.07.75,1.93,10.9,1,12.45-5.72,2.14-5.72,2.14l-2,5.3s3.06,4.31,2.76,7-6.63,7.23-8.7,7-4.75-5.19-4.75-5.19l-5.14.48s-1.4,5.91-3.26,6.61c-3.54,1.35-11.44-4.92-12.46-7.18s3.18-6.36,3.18-6.36l-3.11-5.12s-5.18.31-7-.58-1.76-14.5-.65-15.8,6.31.35,6.31.35l2.24-5.43s-2.77-5.63-2.4-7.21,6.31-6.67,8.65-6.49,5,5.32,5,5.32a31.13,31.13,0,0,1,6-.23c1,.1.83-6.1,2.47-6.42S299.07,226.37,299.17,228.05Z"/><path class="cls-9" d="M289.09,247.18c-.43,3.64-3.32,6.07-6.48,5.42s-5.41-4.19-4.95-7.88,3.4-6.07,6.55-5.36S289.52,243.56,289.09,247.18Z"/><path class="cls-9" d="M272.29,237.87a40,40,0,0,0-2.22,6.18"/><path class="cls-9" d="M283.22,262.7c1.27-.31,4.44-1,5.51-.51s1.88,1.84,2.55,3"/><path class="cls-9" d="M300.25,248.05c-3.24.61-4.46,1.89-5.25,5.63"/><path class="cls-4" d="M282.88,298.56c-6.32.44-20.17.88-24.22.82"/><path class="cls-4" d="M297,307.89c-7.5.17-36.53,1.5-38.21,1.44"/><path class="cls-4" d="M291.82,202.37a95.54,95.54,0,0,0-11.25.13"/><path class="cls-4" d="M271.27,202.46c-4.29.07-10.59,0-16.6-.09"/><path class="cls-10" d="M264.37,363.71c.2-3.93,2.82-6.58,8.2-7.24"/><path class="cls-10" d="M318.33,154.35a21.65,21.65,0,0,1,5.32,11.32"/><path class="cls-10" d="M323.65,153.9a44.82,44.82,0,0,1,2.31,8.73"/><path class="cls-10" d="M200.29,346.13c-.86,2.16-.63,5.31,2.52,5.46"/><path class="cls-10" d="M51.48,318.9c0,5.09.76,7.37,12.61,7.37"/><path class="cls-10" d="M238.85,79.75c8.31.29,13.53-2.45,14-6.78"/><path class="cls-10" d="M163.66,29.46c-1.37,2.16-2.62,4.5-3.53,5.63"/><path class="cls-10" d="M167.47,29.46a24.61,24.61,0,0,1-2.27,4.06"/><path class="cls-10" d="M53.78,210.14c-1,1.71-1.94,3.59-2.68,4.78"/><path class="cls-10" d="M53.78,215.38c-.86,1-2.05,3.7-2.68,4.27"/><path class="cls-10" d="M53.21,221.25c-.51.79-1.37,2.22-1.71,2.73"/><path class="cls-10" d="M37.81,103.89a25.07,25.07,0,0,0-1.37,8.31"/><path class="cls-10" d="M34.85,102.34a15.2,15.2,0,0,0-.92,7.42"/></g></svg>