<svg xmlns="http://www.w3.org/2000/svg" width="384" height="384" viewBox="0 0 384 384"><defs><style>.cls-1{opacity:0;}.cls-2{fill:#e04c59;}.cls-3{fill:#dfe8f5;}.cls-4,.cls-5,.cls-6,.cls-7{fill:none;stroke-linecap:round;stroke-linejoin:round;}.cls-4,.cls-5{stroke:#445d82;}.cls-4,.cls-6{stroke-width:2px;}.cls-6,.cls-7{stroke:#ff6b77;}.cls-8{opacity:0.25;}.cls-9{fill:#ff6b77;}</style></defs><g id="Server_Error" data-name="Server Error"><g id="Container" class="cls-1"><rect class="cls-2" width="384" height="384"/></g><path class="cls-3" d="M76.69,345c-7.3-.33-37.59,2.47-41.12,4.43s2.5,18.3,170.65,16.77c92.14-.84,114.53-3.4,140-9.07,25.67-5.71-48.3-12.82-50.12-12.41-1.66.36,1.82,6.08-9.8,8.64-7.8,1.71-68.51,1-98.7,1.05S88.72,354,82.44,351.73C79.62,350.7,76.91,347.65,76.69,345Z"/><path class="cls-4" d="M76.71,130c.58-5.63,4.41-8.71,10-9,29.39-1.52,166-1.17,193,.07,8,.37,11.93,4.46,12.75,11.74,1.1,9.74,1.32,33.2-.5,43.2-1.14,6.23-4.81,10-10.14,10.82-20.5,3.11-173.16.66-193.1-1.34-6.29-.62-10.79-2.87-11.79-10.87S75.6,140.69,76.71,130Z"/><path class="cls-4" d="M100.45,137.7c-.65,6.17-.58,28.78.07,31.26.38,1.45,6.31,1.25,7,0,.91-1.76.64-26.07,0-31.26C107.24,135.84,100.74,135,100.45,137.7Z"/><path class="cls-4" d="M120.5,138.55c-.65,6.17-.59,25.37.07,30,.29,2,6.31,1.68,7,.43.91-1.76.63-26.76,0-32C127.29,135.15,120.78,135.79,120.5,138.55Z"/><path class="cls-4" d="M167.68,137.91c.64,6.17.57,28.57-.08,31.05-.38,1.45-6.31,1.25-6.95,0-.91-1.76-.63-26.31,0-31.49C160.88,135.6,167.39,135.15,167.68,137.91Z"/><path class="cls-4" d="M252.29,138.74c1.14,1.39.75,6.62-.07,7.68-.59.77-6.29.75-7.37,0s-1.16-6.71,0-7.79C245.83,137.73,251.55,137.82,252.29,138.74Z"/><path class="cls-4" d="M271.29,138.74c1.14,1.39.75,6.62-.07,7.68-.59.77-6.29.75-7.37,0s-1.16-6.71,0-7.79C264.83,137.73,270.55,137.82,271.29,138.74Z"/><path class="cls-4" d="M252.3,159.74c1.13,1.39.75,6.64-.07,7.7-.6.77-6.31.75-7.38,0s-1.17-6.73,0-7.8C245.83,158.73,251.55,158.83,252.3,159.74Z"/><path class="cls-4" d="M271.3,159.74c1.13,1.39.75,6.64-.07,7.7-.6.77-6.31.75-7.38,0s-1.17-6.73,0-7.8C264.83,158.73,270.55,158.83,271.3,159.74Z"/><path class="cls-4" d="M147.63,138c.64,6.17.58,26-.08,30.57-.29,2-6.31,1.68-7,.43-.91-1.76-.63-26.35,0-31.53C140.83,135.56,147.34,135.21,147.63,138Z"/><path class="cls-4" d="M76.71,212.29c.58-5.63,4.41-8.71,10-9,29.39-1.53,166-1.17,193,.07,8,.36,11.93,4.46,12.75,11.73,1.1,9.74,1.32,33.21-.5,43.21-1.14,6.22-4.81,10-10.14,10.82-20.5,3.1-173.16.65-193.1-1.34-6.29-.63-10.79-2.88-11.79-10.88S75.6,223,76.71,212.29Z"/><path class="cls-4" d="M100.45,220c-.65,6.17-.58,28.78.07,31.26.38,1.44,6.31,1.24,7,0,.91-1.76.64-26.08,0-31.26C107.24,218.15,100.74,217.26,100.45,220Z"/><path class="cls-4" d="M120.5,220.86c-.65,6.17-.59,25.37.07,30,.29,2,6.31,1.67,7,.43.91-1.76.63-26.77,0-31.95C127.29,217.46,120.78,218.11,120.5,220.86Z"/><path class="cls-4" d="M167.68,220.22c.64,6.17.57,28.58-.08,31.06-.38,1.44-6.31,1.24-6.95,0-.91-1.76-.63-26.31,0-31.5C160.88,217.92,167.39,217.47,167.68,220.22Z"/><path class="cls-4" d="M252.3,220.73c1.13,1.39.75,6.62-.07,7.68-.6.77-6.3.75-7.37,0s-1.16-6.71,0-7.79C245.84,219.72,251.55,219.81,252.3,220.73Z"/><path class="cls-4" d="M271.3,220.73c1.13,1.39.75,6.62-.07,7.68-.6.77-6.3.75-7.37,0s-1.16-6.71,0-7.79C264.84,219.72,270.55,219.81,271.3,220.73Z"/><path class="cls-4" d="M252.31,241.73c1.13,1.39.74,6.64-.08,7.7-.59.77-6.3.75-7.38,0s-1.16-6.73,0-7.8C245.83,240.72,251.56,240.82,252.31,241.73Z"/><path class="cls-4" d="M271.31,241.73c1.13,1.39.74,6.64-.08,7.7-.59.77-6.3.75-7.38,0s-1.16-6.73,0-7.8C264.83,240.72,270.56,240.82,271.31,241.73Z"/><path class="cls-4" d="M147.63,220.28c.64,6.17.58,25.95-.08,30.57-.29,2-6.31,1.67-7,.43-.91-1.76-.63-26.35,0-31.54C140.83,217.88,147.34,217.52,147.63,220.28Z"/><path class="cls-4" d="M76.71,295.3c.58-5.63,4.41-8.71,10-9,29.39-1.53,166-1.17,193,.07,8,.36,11.93,4.45,12.75,11.73,1.1,9.74,1.32,33.21-.5,43.21-1.14,6.22-4.81,10-10.14,10.81-20.5,3.11-173.16.66-193.1-1.33-6.29-.63-10.79-2.88-11.79-10.88S75.6,306,76.71,295.3Z"/><path class="cls-4" d="M100.45,303c-.65,6.17-.58,28.78.07,31.26.38,1.44,6.31,1.24,7,0,.91-1.76.64-26.08,0-31.26C107.24,301.16,100.74,300.27,100.45,303Z"/><path class="cls-4" d="M120.5,303.87c-.65,6.17-.59,25.37.07,30,.29,2,6.31,1.67,7,.43.91-1.76.63-26.77,0-32C127.29,300.47,120.78,301.11,120.5,303.87Z"/><path class="cls-4" d="M167.68,303.23c.64,6.17.57,28.58-.08,31.06-.38,1.44-6.31,1.24-6.95,0-.91-1.76-.63-26.31,0-31.5C160.88,300.93,167.39,300.47,167.68,303.23Z"/><path class="cls-4" d="M252.3,304.74c1.13,1.39.75,6.63-.07,7.69-.6.77-6.3.75-7.37,0s-1.16-6.72,0-7.79C245.84,303.74,251.55,303.83,252.3,304.74Z"/><path class="cls-4" d="M271.3,304.74c1.13,1.39.75,6.63-.07,7.69-.6.77-6.3.75-7.37,0s-1.16-6.72,0-7.79C264.84,303.74,270.55,303.83,271.3,304.74Z"/><path class="cls-4" d="M252.31,325.75c1.13,1.39.74,6.63-.08,7.69-.59.77-6.3.76-7.38,0s-1.16-6.72,0-7.8C245.83,324.74,251.56,324.83,252.31,325.75Z"/><path class="cls-4" d="M271.31,325.75c1.13,1.39.74,6.63-.08,7.69-.59.77-6.3.76-7.38,0s-1.16-6.72,0-7.8C264.83,324.74,270.56,324.83,271.31,325.75Z"/><path class="cls-4" d="M147.63,303.29c.64,6.17.58,25.95-.08,30.57-.29,2-6.31,1.67-7,.43-.91-1.76-.63-26.35,0-31.54C140.83,300.89,147.34,300.53,147.63,303.29Z"/><path class="cls-4" d="M83.71,188.28v12"/><path class="cls-4" d="M83.71,270.28v12"/><path class="cls-4" d="M286.71,189.28v12"/><path class="cls-4" d="M286.71,271.28v12"/><path class="cls-4" d="M162.67,120a255.7,255.7,0,0,1-36.3-1.93c-3.05-.39-4.93-1.89-5.25-3.83-.26-1.59-.48-4.85,0-5.88.64-1.33,150.9-2.19,152.62-.1.88,1.06,1.43,4.92,1.43,6,0,2.45-1.29,3.61-5.68,4.11-6.63.76-21.19,1.64-38.65,1.88"/><path class="cls-5" d="M168.33,107.17c0,2.66,1,4.07,3.55,4.55,5.87,1.08,45.85.93,51.22.21,3.75-.5,4-2.24,4-4.9"/><path class="cls-4" d="M139.36,107.57c-3.76,0-5.34-3.27-5.72-6.31-2.39-19-3.59-53.41-2.15-68.29.77-7.94,4.24-10,11.41-10.81,24.82-2.95,81.42-2.5,108.54-.83,8.94.54,12.05,2.9,13.13,12.53,1.54,13.6.2,47.56-2.39,66.55-.36,2.69-1.12,6.86-4.45,6.9"/><path class="cls-5" d="M258.49,85c-.22,15.83-1,17.46-6.78,17.46"/><path class="cls-5" d="M136.52,60.55c-.13,6.89.48,16.08.95,21.44"/><line class="cls-5" x1="131.23" y1="20.28" x2="125.43" y2="12.82"/><line class="cls-5" x1="124.25" y1="19.52" x2="128.8" y2="22.48"/><line class="cls-5" x1="133.68" y1="15.99" x2="133.68" y2="18.9"/><path class="cls-6" d="M194.18,41.72c3.42-4.29,4.33-3.11,6.75.18,4.64,6.3,18.37,27.82,21.68,36.27,1.17,3-.4,6.48-4.65,6.89-17.74,1.71-39.5.59-44-.51-2.78-.69-3.74-3.09-2.43-5.81C174.56,72.44,189.91,47.09,194.18,41.72Z"/><path class="cls-7" d="M194.6,56.05A77.2,77.2,0,0,0,195,68.94c.12.86,2.94.68,3.22-.27a60.4,60.4,0,0,0,1.28-13.19C199.38,53.72,194.73,54.55,194.6,56.05Z"/><path class="cls-7" d="M196.2,72.48c1.2,0,3.27,1.34,3.24,3.19a3.27,3.27,0,0,1-3,2.82,2.73,2.73,0,0,1-3-2.74C193.36,74.26,195.09,72.48,196.2,72.48Z"/><g class="cls-8"><path class="cls-9" d="M227.14,79.19C224.63,71.48,211.41,46.76,200,42c-3.16-1.33-27.33,41.4-26.2,43.25,2.92,4.78,43,3.66,49.29,2.66C228.34,87.06,228.12,82.2,227.14,79.19ZM198,79a2.73,2.73,0,0,1-3-2.74C195,74.79,196.69,73,197.8,73s3.26,1.33,3.24,3.18A3.27,3.27,0,0,1,198,79Zm1.76-9.82c-.28,1-3.1,1.14-3.22.28a77.23,77.23,0,0,1-.35-12.89c.14-1.51,4.78-2.34,4.85-.57A59.75,59.75,0,0,1,199.76,69.19Z"/></g><path class="cls-5" d="M83.67,338.44c0,5.09.76,7.37,12.61,7.37"/><path class="cls-5" d="M272,180c8.31.28,13.53-2.45,14-6.78"/><path class="cls-5" d="M195.18,129.36c-1.36,2.17-2.62,4.5-3.53,5.64"/><path class="cls-5" d="M199,129.36a24.9,24.9,0,0,1-2.28,4.06"/><path class="cls-5" d="M86,229.68c-1,1.71-1.94,3.59-2.68,4.79"/><path class="cls-5" d="M86,234.92c-.85,1-2,3.71-2.68,4.28"/><path class="cls-5" d="M85.4,240.79c-.51.8-1.37,2.22-1.71,2.74"/><path class="cls-5" d="M70,123.43a25.13,25.13,0,0,0-1.37,8.32"/><path class="cls-5" d="M67.05,121.89a15,15,0,0,0-.93,7.41"/></g></svg>