<svg id="Layer_1" data-name="Layer 1" xmlns="http://www.w3.org/2000/svg" width="11" height="16" viewBox="0 0 11 16"><defs><style>.cls-1{fill:#252626;}</style></defs><g id="arrows-large"><g id="Arrows_Up_and_Down_Large" data-name="Arrows Up and Down Large"><g id="Arrow_Large_-_Dark-5" data-name="Arrow Large - Dark-5"><path id="Arrow_Large_-_Dark-6" data-name="Arrow Large - Dark-6" class="cls-1" d="M5.1,15.85l-4.95-5a.5.5,0,0,1,0-.71.48.48,0,0,1,.7,0L5.5,14.83l4.64-4.68a.5.5,0,1,1,.71.71l-4.95,5a.49.49,0,0,1-.4.15h0A.47.47,0,0,1,5.1,15.85Z"/></g><g id="Arrow_Large_-_Dark-7" data-name="Arrow Large - Dark-7"><path id="Arrow_Large_-_Dark-8" data-name="Arrow Large - Dark-8" class="cls-1" d="M5.9.15l4.95,5a.5.5,0,1,1-.71.71L5.5,1.17.85,5.85a.48.48,0,0,1-.7,0,.5.5,0,0,1,0-.71L5.1.15A.49.49,0,0,1,5.5,0h0A.49.49,0,0,1,5.9.15Z"/></g></g></g></svg>