<svg id="Layer_1" data-name="Layer 1" xmlns="http://www.w3.org/2000/svg" width="9" height="13" viewBox="0 0 9 13"><defs><style>.cls-1{fill:#252626;}</style></defs><g id="arrows-medium"><g id="Arrows_Up_and_Down_Medium" data-name="Arrows Up and Down Medium"><g id="Arrow_Medium_-_Dark" data-name="Arrow Medium - Dark"><path id="Arrow-9" class="cls-1" d="M4.5,13a.47.47,0,0,1-.39-.15l-4-4a.5.5,0,0,1,0-.71.48.48,0,0,1,.7,0L4.5,11.82,8.15,8.15a.48.48,0,0,1,.7,0,.5.5,0,0,1,0,.71l-4,4a.47.47,0,0,1-.35.15Z"/></g><g id="Arrow_Medium_-_Dark-2" data-name="Arrow Medium - Dark-2"><path id="Arrow-10" class="cls-1" d="M4.5,0a.47.47,0,0,1,.39.15l4,4a.5.5,0,0,1,0,.71.48.48,0,0,1-.7,0L4.5,1.18.85,4.85a.48.48,0,0,1-.7,0,.5.5,0,0,1,0-.71l4-4A.47.47,0,0,1,4.46,0Z"/></g></g></g></svg>