<svg xmlns="http://www.w3.org/2000/svg" width="111.776" height="20.771" viewBox="0 0 111.776 20.771">
  <g id="Layer_3" transform="translate(-0.024)">
    <g id="Group_4" data-name="Group 4">
      <g id="Group_1" data-name="Group 1">
        <path id="Path_1" data-name="Path 1" d="M11.5,0c6.1.5,12.8,3.6,16.6,8,4.9,5.6,3.2,11.2-3.8,12.5S7.7,18.3,2.8,12.7C-.9,8.4-.8,4.1,2.5,1.7L22,16.1Z" fill="#fff"/>
      </g>
      <g id="Group_3" data-name="Group 3">
        <g id="Group_2" data-name="Group 2">
          <path id="Path_2" data-name="Path 2" d="M107.4,20.5,105,10.7a21.689,21.689,0,0,1-.7-3.5h-.1c-.2,1.2-.3,2.4-.6,3.5l-2.5,9.8H96.9L102.6.1h3.3l5.9,20.4Z" fill="#fff"/>
          <path id="Path_3" data-name="Path 3" d="M42.9.1l2.4,9.8a21.689,21.689,0,0,1,.7,3.5h.1c.2-1.2.3-2.4.6-3.5L49.2.2h4.2L47.7,20.6H44.4L38.6.1Z" fill="#fff"/>
          <path id="Path_4" data-name="Path 4" d="M60.5.1V20.5h-4V.1Z" fill="#fff"/>
          <path id="Path_5" data-name="Path 5" d="M83.3.1l2,12.1h.1L87,.1h5.4l2.1,20.4H90.4l-1-14.7h-.1l-.7,5L87,20.5H83.9l-2-9.8-.7-4.5V5.8h-.1l-.6,14.7H76.2L78,.1Z" fill="#fff"/>
          <path id="Path_6" data-name="Path 6" d="M70.5.1a5.243,5.243,0,0,0-1.6,2.2c-1,2.5.1,4.5,1.1,6.2.1.3.3.5.4.8,2.2,3.7,3,6.5,1.4,10.4a5.561,5.561,0,0,1-.4.8H66.5A4.126,4.126,0,0,0,68,18.6c1.1-2.7-.2-5.2-1.5-7.5C65,8.2,63.4,5.3,65.1,1.2l.5-1h4.9Z" fill="#fff"/>
        </g>
      </g>
    </g>
  </g>
</svg>
