<svg id="Layer_1" data-name="Layer 1" xmlns="http://www.w3.org/2000/svg" width="16" height="16" viewBox="0 0 16 16"><defs><style>.cls-1{fill:#0089d9;fill-rule:evenodd;}</style></defs><g id="Changelog"><path class="cls-1" d="M14.2,2.9A8.09,8.09,0,0,0,2.9,1.8,8.09,8.09,0,0,0,0,8H.9A6.7,6.7,0,0,1,3.5,2.6a7,7,0,0,1,9.86.86l0,0a7.1,7.1,0,0,1-1,9.9,7.1,7.1,0,0,1-9.9-1l-.4-.6L4,10H0v4l1.4-1.5.4.6A8,8,0,0,0,14.2,2.9ZM7.5,2a.5.5,0,0,0-.5.5v6a.5.5,0,0,0,.5.5h4a.5.5,0,0,0,0-1H8V2.5A.5.5,0,0,0,7.5,2Z"/></g></svg>