<svg id="Layer_1" data-name="Layer 1" xmlns="http://www.w3.org/2000/svg" width="16" height="16" viewBox="0 0 16 16"><defs><style>.cls-1{fill:#0089d9;fill-rule:evenodd;}</style></defs><g id="Download"><path class="cls-1" d="M14,10v3a.9.9,0,0,1-.79,1H2a.9.9,0,0,1-1-.79A.74.74,0,0,1,1,13V10H0v4a.9.9,0,0,0,.79,1H14a.9.9,0,0,0,1-.79A.74.74,0,0,0,15,14V10ZM6.9,11.6h.2c0,.2.2.3.4.3s.4-.1.4-.3h.2l2.8-2.8a.5.5,0,1,0-.6-.8.47.47,0,0,0-.1.1L8,10.3V1.5a.5.5,0,0,0-1,0v8.8L4.8,8.1a.5.5,0,1,0-.8.6l.1.1Z"/></g></svg>