<svg id="Layer_1" data-name="Layer 1" xmlns="http://www.w3.org/2000/svg" width="16" height="16" viewBox="0 0 16 16"><defs><style>.cls-1{fill:#0089d9;fill-rule:evenodd;}</style></defs><g id="Delete"><path class="cls-1" d="M5,3H1.5A1.41,1.41,0,0,0,0,4.3V5H1V4.5c0-.3.2-.5.7-.5H8V3H6.2A1.81,1.81,0,0,1,8,1.2H8V0A3.1,3.1,0,0,0,5,3ZM4,14c0-1.1-.9-8-.9-8S1.9,5,1.9,6l.8,8.7c0,.5.9,1.3,1.3,1.3H8V15H5A1,1,0,0,1,4,14Zm6-2.5v-5a.5.5,0,0,0-1,0v5a.5.5,0,0,0,1,0Zm-3,0v-5a.5.5,0,0,0-1,0v5a.5.5,0,0,0,1,0ZM12.9,6s-.9,6.9-.9,8a1,1,0,0,1-1,1H8v1h4c.4,0,1.3-.8,1.3-1.3L14.1,6C14.1,5,12.9,5,12.9,6Zm1.6-3H11A3.1,3.1,0,0,0,8,0V1.2A1.81,1.81,0,0,1,9.8,3H8V4h6.3c.5,0,.7.2.7.5V5h1V4.4A1.4,1.4,0,0,0,14.6,3Z"/></g></svg>