<svg id="Layer_4" data-name="Layer 4" xmlns="http://www.w3.org/2000/svg" width="16" height="16" viewBox="0 0 16 16"><defs><style>.cls-1{fill:#0089d9;}</style></defs><path class="cls-1" d="M14.8,9.9l.8-.4a.39.39,0,0,0,.1-.7l-.9-.7.8-.4a.39.39,0,0,0,.1-.7L14.2,5.9a7,7,0,0,0,1.2-2,.75.75,0,0,0-.1-.5c-.1-.1-5.2-3-5.3-3.1s-.6,0-.7.3C9,2,7.1,3.2,6.5,3.6a16.46,16.46,0,0,1-2.1.9h0A37.05,37.05,0,0,1,.5,5.9a.44.44,0,0,0-.1.8l.7.5-.8.5c-.3.2-.3.6,0,.7l.8.5-.7.5c-.3.2-.3.6,0,.7l.7.5-.7.5c-.3.2-.3.6,0,.7l5.3,3.5a.3.3,0,0,0,.4,0c2.9-1.3,5.6-2.6,9.6-4.4.4-.2.4-.5.2-.7C15.7,10.5,15.6,10.5,14.8,9.9Zm-.3-2.6L11.9,8.4V7.8a19.58,19.58,0,0,0,1.7-1.2A7.05,7.05,0,0,0,14.5,7.3Zm0,1.7-2.6,1.1V9.3l1.9-.9A2,2,0,0,0,14.5,9ZM9.9,1.4c.8.5,3.6,2.1,4.5,2.6a7.42,7.42,0,0,1-2.5,2.8c0-.1-4.3-2.7-4.4-2.8A6.73,6.73,0,0,0,9.9,1.4Zm-5.4,4L8.9,8.1c-1.3.5-2.6,1.1-3.1,1.3L1.5,6.5C2.8,6.1,3.7,5.7,4.5,5.4ZM1.8,7.8l3.7,2.5a.3.3,0,0,0,.4,0s1.6-.7,3.3-1.4v.7L5.7,11.1,1.2,8.2Zm0,1.8,3.7,2.5a.3.3,0,0,0,.4,0l3.3-1.5v.7L5.7,12.9l-4.6-3Zm4,5.1-4.5-3,.5-.4,3.7,2.5a.3.3,0,0,0,.4,0l3.3-1.5v.8ZM9.7,8.2c0-.3-.1-.3-.4-.5L4.8,5c.5-.2,1.2-.5,1.8-.8l4.8,3v5.3l-1.8.8A49.11,49.11,0,0,0,9.7,8.2ZM11.9,12v-.8l2-.9s.6.4.7.5Z"/></svg>