<svg id="Layer_1" data-name="Layer 1" xmlns="http://www.w3.org/2000/svg" width="16" height="16" viewBox="0 0 16 16"><defs><style>.cls-1{fill:#0089d9;fill-rule:evenodd;}</style></defs><g id="Open"><path class="cls-1" d="M15,6V4c0-.7-.3-1-1-1H8.3S6.6,1,6,1H3A2,2,0,0,0,1,3V6A1.31,1.31,0,0,0,0,7l.7,6a2,2,0,0,0,2,2H13.3a2,2,0,0,0,2-2L16,7A1.31,1.31,0,0,0,15,6ZM2,3A1.31,1.31,0,0,1,3,2H6c.5,0,2,2,2,2h5a1.31,1.31,0,0,1,1,1V6H2ZM14.7,8,14,13c0,.7-.3,1-1,1H3c-.7,0-1-.3-1-1L1.2,8c0-.4-.2-1,.8-1H14C15,7,14.7,7.6,14.7,8Z"/></g></svg>