<svg id="Remove_Signalisation_Bell" data-name="Remove Signalisation Bell" xmlns="http://www.w3.org/2000/svg" width="16" height="16" viewBox="0 0 16 16"><defs><style>.cls-1,.cls-2{fill:#0089d9;}.cls-2{fill-rule:evenodd;}</style></defs><path class="cls-1" d="M5.74,13.57A3.58,3.58,0,0,0,6,13.28a10.64,10.64,0,0,0-3.29-3.22,2.54,2.54,0,0,0-.28.29h0A2.24,2.24,0,0,0,2,11.83,2.32,2.32,0,0,0,4.12,14a2.32,2.32,0,0,0,1.63-.45ZM15.7.3A1.6,1.6,0,0,0,13.87.15L12.34,2.43a1.43,1.43,0,0,0-1.69,1.13.29.29,0,0,0,0,.09C9.3,2.53,8,3,7,4.1,5.09,6,3.59,7.31,2.28,7.31c-.78,0-1.46-.61-2,0a1.14,1.14,0,0,0-.13,1.2,8.7,8.7,0,0,0,1.12,2.08,3.66,3.66,0,0,1,.87-.65A7.83,7.83,0,0,1,.92,8,9.45,9.45,0,0,1,3.58,9.5h0a16.65,16.65,0,0,1,2.93,3.06h0v.06h0l.08.12.07.09h0A13.48,13.48,0,0,1,8,15a10,10,0,0,1-1.76-1.11,3.19,3.19,0,0,1-.61.93,8.2,8.2,0,0,0,2.08,1.07,1,1,0,0,0,1-.18c.3-.3.3-.82,0-1.53A3,3,0,0,1,9.33,12H8v-.2a3.5,3.5,0,0,0-.29.54,19.23,19.23,0,0,0-1.86-2.16A21.62,21.62,0,0,0,3.66,8.31a17.75,17.75,0,0,0,4-3.17,2.13,2.13,0,0,1,3-.25l.25.25A2.06,2.06,0,0,1,11.15,8h1.56a2.1,2.1,0,0,0-.36-2.65,1.54,1.54,0,0,0,1.2-1.63l2.2-1.61A1.44,1.44,0,0,0,15.7.3Z"/><path class="cls-2" d="M9,9h7v2H9Z"/></svg>