<svg id="users-gender-free" xmlns="http://www.w3.org/2000/svg" width="16" height="16" viewBox="0 0 16 16"><defs><style>.cls-1{fill:#0087e0;}</style></defs><path class="cls-1" d="M6.11,9.5a3.49,3.49,0,0,0,.14,1.06.81.81,0,0,0,.52.56A11.68,11.68,0,0,1,8,11.47a1.41,1.41,0,0,1,.68.58,2,2,0,0,1,.28.76c0,.12,0,.24,0,.36a2.59,2.59,0,0,1,0,.4,1.11,1.11,0,0,1-.66.82A4.45,4.45,0,0,1,7,14.8a14.8,14.8,0,0,1-2.56.2,14.92,14.92,0,0,1-2.56-.22,4.19,4.19,0,0,1-1.33-.45A1.51,1.51,0,0,1,.19,14a.84.84,0,0,1-.15-.3,1,1,0,0,1,0-.3,3.69,3.69,0,0,1,.08-.72,1.8,1.8,0,0,1,.35-.76,1.6,1.6,0,0,1,.71-.51c.49-.18.91-.19,1.19-.31a.82.82,0,0,0,.54-.56A3.14,3.14,0,0,0,3,9.5a.5.5,0,0,1,.5-.5.49.49,0,0,1,.5.49H4a4.1,4.1,0,0,1-.2,1.39,1.84,1.84,0,0,1-1.12,1.16c-.49.17-.92.19-1.2.31s-.35.23-.44.55a3.83,3.83,0,0,0-.05.51H1l0,0,.1.08a3.46,3.46,0,0,0,1,.32,13.3,13.3,0,0,0,2.37.2,14.42,14.42,0,0,0,2.38-.18,4,4,0,0,0,1-.31c.14-.06.18-.17.14-.06v-.22A2.13,2.13,0,0,0,8,13c-.06-.34-.16-.51-.38-.61s-.67-.14-1.16-.32a1.8,1.8,0,0,1-1.11-1.16,4.1,4.1,0,0,1-.2-1.39.5.5,0,0,1,1,0Z"/><path class="cls-1" d="M4.5,9.25A2.11,2.11,0,0,0,6.17,8.12a4.9,4.9,0,0,0,.61-2.21A3.41,3.41,0,0,0,6.3,3.77,2.08,2.08,0,0,0,4.5,3a2,2,0,0,0-1.8.77,3.48,3.48,0,0,0-.48,2.14,4.91,4.91,0,0,0,.62,2.21A2.1,2.1,0,0,0,4.5,9.25Zm0,.8A2.87,2.87,0,0,1,2.16,8.53,5.56,5.56,0,0,1,1.42,6a4.5,4.5,0,0,1,.52-2.69A3,3,0,0,1,4.5,2a3.56,3.56,0,0,1,1.42.28,2.69,2.69,0,0,1,1.13,1A4.43,4.43,0,0,1,7.58,6a5.81,5.81,0,0,1-.74,2.58A2.89,2.89,0,0,1,4.5,10.05Z"/><path class="cls-1" d="M13.28,6.1a1.25,1.25,0,0,0,.15.68.8.8,0,0,0,.55.29,9.41,9.41,0,0,1,1,.23A1.41,1.41,0,0,1,16,8.41c0,.12,0,.22,0,.33v.09a.51.51,0,0,1-.05.22.69.69,0,0,1-.19.29,1.7,1.7,0,0,1-.65.34A7.21,7.21,0,0,1,14,9.89,18.24,18.24,0,0,1,12,10a16,16,0,0,1-2.07-.12A6.44,6.44,0,0,1,8.8,9.65a1.28,1.28,0,0,1-.68-.45A.7.7,0,0,1,8,8.8V8.64a1.32,1.32,0,0,1,.05-.33,1.37,1.37,0,0,1,.38-.68,1.66,1.66,0,0,1,.63-.35,10.29,10.29,0,0,1,1-.22.92.92,0,0,0,.56-.29,1.23,1.23,0,0,0,.15-.67v0a.5.5,0,1,1,1,0h0a2.19,2.19,0,0,1-.34,1.25A1.86,1.86,0,0,1,10.32,8c-.37.08-.71.11-.94.19s-.3.14-.35.32l0,.16v.1A.31.31,0,0,0,9,8.64c-.08-.08.06,0,.18.06a5.14,5.14,0,0,0,.89.19A15.55,15.55,0,0,0,12,9a15.6,15.6,0,0,0,1.95-.11,4.9,4.9,0,0,0,.91-.17.88.88,0,0,0,.25-.11L15,8.7a.3.3,0,0,0,0,.1v0a1,1,0,0,0,0-.18c-.05-.21-.08-.26-.3-.35s-.55-.11-.92-.19a1.81,1.81,0,0,1-1.15-.7,2.16,2.16,0,0,1-.33-1.25.5.5,0,0,1,.49-.51.51.51,0,0,1,.51.49h0Z"/><path class="cls-1" d="M12,5.87a1.37,1.37,0,0,0,1.06-.68,3,3,0,0,0,.42-1.43,2,2,0,0,0-.33-1.34A1.43,1.43,0,0,0,12,2a1.39,1.39,0,0,0-1.14.42,2,2,0,0,0-.34,1.34A3,3,0,0,0,11,5.18,1.33,1.33,0,0,0,12,5.87Zm0,.8a2.13,2.13,0,0,1-1.72-1,3.67,3.67,0,0,1-.55-1.81,3,3,0,0,1,.39-1.93A2.26,2.26,0,0,1,12,1a2.23,2.23,0,0,1,1.87.88,3,3,0,0,1,.4,1.93,3.82,3.82,0,0,1-.55,1.8A2.15,2.15,0,0,1,12,6.67Z"/></svg>