<svg id="Layer_1" data-name="Layer 1" xmlns="http://www.w3.org/2000/svg" width="24" height="24" viewBox="0 0 24 24"><defs><style>.cls-1{fill:#0089d9;fill-rule:evenodd;}</style></defs><g id="Attach"><path class="cls-1" d="M21.4,1.5C19-.9,17.1-.3,14.7,2.1L3.8,12.9c-3.7,3.6-3.7,6-.7,8.9s5.5,3,9.2-.6L22,11.6l-1.5-1.5L11,19.6c-3,2.8-4.1,3.1-6.4.6s-1.8-3.8.6-6.2S14.9,4.5,16.1,3.3s2.1-2,3.9-.4c1.5,1.3.4,2.6-.8,3.8L9.7,16c-1.2,1.2-2.1.3-.9-.9s9.7-9.4,9.7-9.4L17,4.3,7.2,13.9C6,15.1,5.6,17,6.8,18.2s3,.6,4.3-.6L20.8,8C23.2,5.7,23.9,3.9,21.4,1.5Z"/></g></svg>