<svg id="Layer_1" data-name="Layer 1" xmlns="http://www.w3.org/2000/svg" width="24" height="24" viewBox="0 0 24 24"><defs><style>.cls-1{fill:#0089d9;fill-rule:evenodd;}</style></defs><g id="Announcement"><path class="cls-1" d="M22.6,8.9l.87-.5a1,1,0,0,0-1-1.73l-.87.5a1,1,0,0,0,1,1.73ZM18,1.7c-2.7,2.07-5.55,5.36-9,5.36H4c-5.41,0-5.34,9,0,9H5.08a4.47,4.47,0,0,0,8.28,1.83c1.67,1.3,3.21,3.05,4.7,4.35,1.64,1.68,2,0,2,0V1.59S19.49.38,18,1.7ZM9.53,18.06a2.5,2.5,0,0,1-2.45-2H9a5.69,5.69,0,0,1,2.67.73A2.5,2.5,0,0,1,9.53,18.06ZM18,19.69s-4-5.62-9-5.62H4c-2.81,0-2.69-5,0-5H9c5,0,9-4.75,9-4.75Zm4-6.62h1a1,1,0,0,0,0-2H22a1,1,0,0,0,0,2Zm1.43,2.66-.87-.5a1,1,0,0,0-1,1.73l.87.5a1,1,0,0,0,1-1.73Z"/></g></svg>