<svg id="Layer_1" data-name="Layer 1" xmlns="http://www.w3.org/2000/svg" width="24" height="24" viewBox="0 0 24 24"><defs><style>.cls-1{fill:#0089d9;}</style></defs><g id="Layer_2" data-name="Layer 2"><path class="cls-1" d="M11.2,2A2.31,2.31,0,0,0,8.8,4.4v.8H7.2V4.4a4,4,0,0,1,4-4h1.6a4,4,0,0,1,4,4v.8H15.2V4.4A2.31,2.31,0,0,0,12.8,2ZM2.4,6A2.31,2.31,0,0,0,0,8.4v6.4a1.87,1.87,0,0,0,.8,1.4v5a2.31,2.31,0,0,0,2.4,2.4H20.8a2.31,2.31,0,0,0,2.4-2.4v-5a1.23,1.23,0,0,0,.8-1.4V8.4A2.31,2.31,0,0,0,21.6,6Zm7.2,8.8V13.2a.74.74,0,0,0-.8-.8H8v-4H6.4v4H5.6a.74.74,0,0,0-.8.8v1.6H1.6V8.4a.74.74,0,0,1,.8-.8H21.6a.74.74,0,0,1,.8.8v6.4H19.2V13.2a.74.74,0,0,0-.8-.8h-.8v-4H16v4h-.8a.74.74,0,0,0-.8.8v1.6ZM3.2,22a.74.74,0,0,1-.8-.8V15.6H4.8A2.21,2.21,0,0,0,7.2,18a2.21,2.21,0,0,0,2.4-2.4h4.8A2.21,2.21,0,0,0,16.8,18a2.21,2.21,0,0,0,2.4-2.4h2.4v5.6a.74.74,0,0,1-.8.8Zm3.2-6.4V14H8v1.6a.74.74,0,0,1-.8.8A.74.74,0,0,1,6.4,15.6Zm10.4.8a.74.74,0,0,1-.8-.8V14h1.6v1.6A.79.79,0,0,1,16.8,16.4Z"/></g></svg>