<svg id="Layer_1" data-name="Layer 1" xmlns="http://www.w3.org/2000/svg" width="24" height="24" viewBox="0 0 24 24"><defs><style>.cls-1{fill:#0089d9;fill-rule:evenodd;}</style></defs><g id="Evaluate"><path class="cls-1" d="M14,2a2,2,0,1,0-2,2A2,2,0,0,0,14,2Zm0,14a5.84,5.84,0,0,0,5,2,5.93,5.93,0,0,0,5-2H22.7l-3-10A1.4,1.4,0,0,0,21,4.5a.5.5,0,0,0-1,0c0,.23-.34.38-.65.45a.53.53,0,0,0-.69,0c-.31-.08-.66-.24-.66-.45a.5.5,0,0,0-.5-.5H6.5a.5.5,0,0,0-.5.5c0,.23-.34.38-.65.45a.53.53,0,0,0-.69,0C4.35,4.87,4,4.71,4,4.5a.5.5,0,0,0-1,0A1.4,1.4,0,0,0,4.28,5.93L1.28,16H0a5.93,5.93,0,0,0,5,2,5.87,5.87,0,0,0,5-2H8.7L5.7,6A1.27,1.27,0,0,0,6.94,5H11V22H10c-1,0-3,.89-3,1.44S7.45,24,8,24h8c.55,0,1,0,1-.56S15,22,14,22H13V5h4.06a1.29,1.29,0,0,0,1.21,1l-3,10ZM7.28,16H2.61L5,8ZM19,8l2.28,8H16.61Z"/></g></svg>