<svg id="Layer_1" data-name="Layer 1" xmlns="http://www.w3.org/2000/svg" width="24" height="24" viewBox="0 0 24 24"><defs><style>.cls-1{fill:#0089d9;}</style></defs><g id="Jira"><g id="Normal"><path class="cls-1" d="M15.78,15C21.18,9.73,21,6,21,6c0-.89-.77-.4-.77-.4a6.39,6.39,0,0,1-3.5,1.18c-.59,2.56-3.85,5.74-4.68,6.52-.54-.49-4.16-3.86-4.8-6.58a6.38,6.38,0,0,1-3.5-1.15S3,5.12,3,6c0,0-.17,3.62,5.22,8.89S14.29,22.52,14,24h4a13.06,13.06,0,0,0-3.11-8.11ZM8.45,16.88A12.3,12.3,0,0,0,6.14,24h3.92c-.17-.91,0-2.06,1.23-3.93A37.39,37.39,0,0,0,8.45,16.88ZM12,10.53s2.1-1.93,2.28-2.88c.12-.67-.38-.6-.38-.6H10c-.5,0-.22.73-.22.73A12.52,12.52,0,0,0,12,10.53Zm5.1-5.78a1.69,1.69,0,1,0-1.7-1.69,1.69,1.69,0,0,0,1.7,1.69h0Zm-10,0A1.69,1.69,0,1,0,5.4,3.06,1.69,1.69,0,0,0,7.1,4.75h0Zm5.1-1.37a1.69,1.69,0,1,0-1.7-1.69,1.69,1.69,0,0,0,1.7,1.69h0Z"/></g></g></svg>