<svg id="Layer_1" data-name="Layer 1" xmlns="http://www.w3.org/2000/svg" width="24" height="24" viewBox="0 0 24 24"><defs><style>.cls-1{fill:#0089d9;fill-rule:evenodd;}</style></defs><g id="Lunch"><path class="cls-1" d="M11.5,1a.5.5,0,0,0-.5.5V7H10V1.5a.5.5,0,0,0-1,0V7H8V1.5a.5.5,0,0,0-1,0L6,9c0,2,2.44,2,2.44,5,0,2.39-.44,8-.44,8,0,1,.56,2,1.56,2S11,23,11,22c0,0-.53-5.58-.53-8,0-3,2.53-3,2.53-5L12,1.5A.5.5,0,0,0,11.5,1ZM18,0c-1,0-3,1.16-3,4.38,0,0-.06,9.27,2,10.62h0a34.24,34.24,0,0,1-1,8c-.07.26,1,1,2,1a1,1,0,0,0,1-1V1C19,.15,19,0,18,0Z"/></g></svg>