<svg id="Layer_1" data-name="Layer 1" xmlns="http://www.w3.org/2000/svg" width="53" height="24" viewBox="0 0 53 24"><defs><style>.cls-1{fill:#0089d9;fill-rule:evenodd;}</style></defs><g id="Note"><path class="cls-1" d="M17.56,5.39h0l-.15.15-.35.35h0l-3.5,3.5v1h1l3.5-3.5,1,1-7.73,7.71,2.13,2.13L24.2,7,22,4.82l-2,2L18,4.87Zm-7.09,11L8.8,20.17l3.8-1.69.1-.1-2.13-2.13ZM18,22H2V8H8V2H18V3l2,2V0H6V.28l-6,6V24H20V13l-2,2ZM6,2.49V6H2.41Z"/><path class="cls-1" d="M46.06,5.89h0l-3.5,3.5v1h1l3.5-3.5.95,1-7.73,7.71,2.13,2.13L53.2,7,51,4.87l-2,2L47,4.92ZM39.47,16.36l-1.66,3.82,3.8-1.69.1-.1-2.13-2.13ZM35,.28,29.25,6H35ZM36,22l2-6,4-4H41V9l6-6,2,2V0H36V7H29V24H49V13l-7,7Z"/></g></svg>