<svg id="Layer_1" data-name="Layer 1" xmlns="http://www.w3.org/2000/svg" width="24" height="24" viewBox="0 0 24 24"><defs><style>.cls-1{fill:#0089d9;fill-rule:evenodd;}</style></defs><g id="Platform_Mobile" data-name="Platform Mobile"><path id="Normal" class="cls-1" d="M17,24H7a2.15,2.15,0,0,1-2-2V2A2.15,2.15,0,0,1,7,0H17a2.15,2.15,0,0,1,2,2V22A2.15,2.15,0,0,1,17,24ZM17,3c0-1-.71-1-1-1H8C7.71,2,7,2,7,3V5H17Zm0,3H7V17H17Zm0,12H7v3c0,1,.71,1,1,1h8c.29,0,1,0,1-1Zm-5,4a2,2,0,1,1,2-2A2,2,0,0,1,12,22Zm0-3.47A1.49,1.49,0,1,0,13.51,20,1.49,1.49,0,0,0,12,18.53ZM11,3h2c1,0,1,.21,1,.49S14,4,13,4H11c-1,0-1-.24-1-.51S10,3,11,3Z"/></g></svg>