<svg id="Layer_1" data-name="Layer 1" xmlns="http://www.w3.org/2000/svg" width="24" height="24" viewBox="0 0 24 24"><defs><style>.cls-1{fill:#0089d9;}</style></defs><g id="Tile_View" data-name="Tile View"><path class="cls-1" d="M20,13H14a1,1,0,0,0-1,1v6a1,1,0,0,0,1,1h6a1,1,0,0,0,1-1V14A1,1,0,0,0,20,13Zm-1,6H15V15h4Z"/><path class="cls-1" d="M10,13H4a1,1,0,0,0-1,1v6a1,1,0,0,0,1,1h6a1,1,0,0,0,1-1V14A1,1,0,0,0,10,13ZM9,19H5V15H9Z"/><path class="cls-1" d="M20,3H14a1,1,0,0,0-1,1v6a1,1,0,0,0,1,1h6a1,1,0,0,0,1-1V4A1,1,0,0,0,20,3ZM19,9H15V5h4Z"/><path class="cls-1" d="M10,3H4A1,1,0,0,0,3,4v6a1,1,0,0,0,1,1h6a1,1,0,0,0,1-1V4A1,1,0,0,0,10,3ZM9,9H5V5H9Z"/></g></svg>