<svg id="Layer_1" data-name="Layer 1" xmlns="http://www.w3.org/2000/svg" width="24" height="24" viewBox="0 0 24 24"><defs><style>.cls-1{fill:#0089d9;fill-rule:evenodd;}</style></defs><path class="cls-1" d="M11,3h2a.94.94,0,0,1,1,1V6a.94.94,0,0,1-1,1H11a.94.94,0,0,1-1-1V4A.94.94,0,0,1,11,3Zm7,0h2a.94.94,0,0,1,1,1V6a.94.94,0,0,1-1,1H18a.94.94,0,0,1-1-1V4A.94.94,0,0,1,18,3ZM4,10H6a.94.94,0,0,1,1,1v2a.94.94,0,0,1-1,1H4a.94.94,0,0,1-1-1V11A.94.94,0,0,1,4,10Zm7,0h2a.94.94,0,0,1,1,1v2a.94.94,0,0,1-1,1H11a.94.94,0,0,1-1-1V11A.94.94,0,0,1,11,10Zm7,0h2a.94.94,0,0,1,1,1v2a.94.94,0,0,1-1,1H18a.94.94,0,0,1-1-1V11A.94.94,0,0,1,18,10ZM4,17H6a.94.94,0,0,1,1,1v2a.94.94,0,0,1-1,1H4a.94.94,0,0,1-1-1V18A.94.94,0,0,1,4,17Zm7,0h2a.94.94,0,0,1,1,1v2a.94.94,0,0,1-1,1H11a.94.94,0,0,1-1-1V18A.94.94,0,0,1,11,17Zm7,0h2a.94.94,0,0,1,1,1v2a.94.94,0,0,1-1,1H18a.94.94,0,0,1-1-1V18A.94.94,0,0,1,18,17ZM4,3H6A.94.94,0,0,1,7,4V6A.94.94,0,0,1,6,7H4A.94.94,0,0,1,3,6V4A.94.94,0,0,1,4,3Z"/></svg>