<svg id="Layer_1_copy" data-name="Layer 1 copy" xmlns="http://www.w3.org/2000/svg" width="24" height="24" viewBox="0 0 24 24"><defs><style>.cls-1{fill:#0089d9;fill-rule:evenodd;}</style></defs><g id="User_List_1" data-name="User List 1"><path class="cls-1" d="M1,2H3V4H1ZM1,6H3V8H1Zm0,4H3v2H1Zm0,4H3v2H1ZM5,3A1,1,0,0,1,6,2H22a1,1,0,0,1,0,2H6A1,1,0,0,1,5,3ZM19.1,6H22a1,1,0,0,1,0,2H20.36V7.77A3.67,3.67,0,0,0,19.1,6ZM10.75,6H6A1,1,0,0,0,6,8H9.7l.08-.27A4.5,4.5,0,0,1,10.75,6Zm9.84,4H22a1,1,0,0,1,0,2H20.45A12.15,12.15,0,0,0,20.59,10ZM9.45,10H6a1,1,0,0,0,0,2H9.63A9.6,9.6,0,0,1,9.45,10Zm10.49,4H22a1,1,0,0,1,0,2H19.32A12.85,12.85,0,0,1,19.94,14Zm-9.71,0H6a1,1,0,0,0,0,2h4.75A11.53,11.53,0,0,0,10.23,14Z"/></g><g id="User"><g id="Gender-Free"><path class="cls-1" d="M16.79,15c0,5.13,5.21,2.28,5.21,6.55,0,1.93-14,1.93-14,0,0-4.27,5.21-1.42,5.21-6.55"/><path class="cls-1" d="M15,16.63c1.79,0,3.75-2.47,3.75-5.83C18.75,8.24,17.32,7,15,7s-3.75,1.24-3.75,3.8C11.25,14.16,13.21,16.63,15,16.63Z"/></g></g></svg>