<svg id="Search_User" data-name="Search User" xmlns="http://www.w3.org/2000/svg" width="24" height="24" viewBox="0 0 24 24"><defs><style>.cls-1{fill:#0087e0;}</style></defs><g id="Gender-Free"><path class="cls-1" d="M14.76,13.16a4.78,4.78,0,0,0,.64,2.21,3.2,3.2,0,0,0,1.73,1.21,22.44,22.44,0,0,1,2.56.88,4,4,0,0,1,1.33,1A3.83,3.83,0,0,1,21.78,20a5.6,5.6,0,0,1,.12.79l0,.38a1.38,1.38,0,0,1-.26.82,1.62,1.62,0,0,1-.93.59l-.73.25a13.91,13.91,0,0,1-2.72.45c-1.78.14-3.54.21-5.31.2s-3.52-.05-5.31-.18A15,15,0,0,1,4,22.85c-.24-.06-.49-.11-.76-.2A1.71,1.71,0,0,1,2.28,22,1.48,1.48,0,0,1,2,21.17l0-.38A5.65,5.65,0,0,1,2.19,20,3.59,3.59,0,0,1,3,18.46a3.89,3.89,0,0,1,1.33-1,21.7,21.7,0,0,1,2.55-.88,3.13,3.13,0,0,0,1.73-1.21,4.66,4.66,0,0,0,.64-2.21v0a.47.47,0,0,1,.52-.43.48.48,0,0,1,.44.45A5.47,5.47,0,0,1,9.69,16a4.45,4.45,0,0,1-2.27,2c-.86.4-1.71.64-2.35,1A1.84,1.84,0,0,0,4,20.41a2.65,2.65,0,0,0,0,.5v.28s0-.21-.06-.21,0,.08.09.18a1.62,1.62,0,0,0,.44.3,11.89,11.89,0,0,0,2.4.63,29.43,29.43,0,0,0,5.15.43,30.61,30.61,0,0,0,5.16-.41,13.71,13.71,0,0,0,2.41-.62,1.3,1.3,0,0,0,.46-.27c.12-.11.16-.28.07-.23s-.09.21-.08.2v-.28a3.85,3.85,0,0,0-.05-.5A1.85,1.85,0,0,0,18.89,19c-.63-.35-1.48-.59-2.34-1a4.55,4.55,0,0,1-2.28-2,5.46,5.46,0,0,1-.47-2.85.48.48,0,0,1,.51-.46.49.49,0,0,1,.45.44Z"/><path class="cls-1" d="M12,13.54a2.88,2.88,0,0,0,1.76-.73,6.14,6.14,0,0,0,1.31-1.63,9.44,9.44,0,0,0,1.11-4.1,6,6,0,0,0-.9-3.84,3,3,0,0,0-1.41-1A5.14,5.14,0,0,0,12,1.91,3.67,3.67,0,0,0,8.74,3.26a6,6,0,0,0-.83,3.81A9.6,9.6,0,0,0,9,11.14C9.65,12.33,10.73,13.48,12,13.54Zm0,.91a3.77,3.77,0,0,1-2.36-.91A7.13,7.13,0,0,1,8,11.7,11,11,0,0,1,6.52,7.19a7.38,7.38,0,0,1,.83-4.88A4.56,4.56,0,0,1,9.44.59a6.85,6.85,0,0,1,5.09,0,4.53,4.53,0,0,1,2.06,1.76,7.25,7.25,0,0,1,.75,4.85,11.28,11.28,0,0,1-1.47,4.48,7.16,7.16,0,0,1-1.56,1.83A3.74,3.74,0,0,1,12,14.45Z"/></g></svg>