<svg id="Layer_1" data-name="Layer 1" xmlns="http://www.w3.org/2000/svg" width="24" height="24" viewBox="0 0 24 24"><defs><style>.cls-1{fill:#0089d9;fill-rule:evenodd;}</style></defs><g id="User_Placeholder" data-name="User Placeholder"><path class="cls-1" d="M12,0A12,12,0,1,0,24,12,12,12,0,0,0,12,0ZM9,9c0-2.23,3.57,0,4.94-2h0C14.08,8,15,7.45,15,9c-.2-1.11-1.07-.39-1.26-1.34V7.5C12.75,10,9.49,7.26,9,9Zm9.71,10.4A8.48,8.48,0,0,1,14,17V16c.53-.52,1.5-1.33,1.5-2.33.94,0,1.36-1.66,1.36-2.53a1.06,1.06,0,0,0-.33-.8h0c-.19,0-.28.58-.42,1.2h0a1.16,1.16,0,0,1-.08.32,2.31,2.31,0,0,1-.1-.28V10.09A1,1,0,0,1,16,9.94h0a.69.69,0,0,1,.11-.13,3.67,3.67,0,0,0,.49-1.94,2,2,0,0,0-1.82-2.16h-.17C13.15,2.89,7.34,4,7.34,8A3.2,3.2,0,0,0,7.8,9.76c.41.28.47,1.48.17,2.13-.2-.73-.28-1.54-.51-1.55a1.06,1.06,0,0,0-.33.8c0,.87.43,2.53,1.36,2.53,0,1,.93,1.83,1.47,2.36v1A8,8,0,0,1,5.2,19.32a10,10,0,1,1,14.13-.55c-.2.22-.4.42-.62.62Z"/></g></svg>