<svg id="Layer_1" data-name="Layer 1" xmlns="http://www.w3.org/2000/svg" width="24" height="24" viewBox="0 0 24 24"><defs><style>.cls-1{fill:none;opacity:0;}.cls-2{fill:#0087e0;}</style></defs><g id="Users_Gender_Free" data-name="Users Gender Free"><rect id="Guide" class="cls-1" width="24" height="24"/><g id="Gender-Free"><path class="cls-2" d="M10.53,13.83A5.46,5.46,0,0,0,11,15.67a2.31,2.31,0,0,0,1.17,1.09,20.47,20.47,0,0,1,2,.82,3.33,3.33,0,0,1,1.07.93,4,4,0,0,1,.69,1.92c0,.11,0,.21,0,.31v.16a1.1,1.1,0,0,1,0,.24,1.21,1.21,0,0,1-.69,1c-.27.13-.49.2-.69.29a9.08,9.08,0,0,1-2.25.48c-1.46.13-2.88.19-4.32.18s-2.86,0-4.32-.17a10.35,10.35,0,0,1-2.27-.45,2.6,2.6,0,0,1-.71-.28,1.35,1.35,0,0,1-.65-1,1.1,1.1,0,0,1,0-.24v-.16c0-.1,0-.2,0-.31a3.73,3.73,0,0,1,.11-.64,3.58,3.58,0,0,1,.58-1.28,3.23,3.23,0,0,1,1.07-.93,20.47,20.47,0,0,1,2-.82A2.31,2.31,0,0,0,5,15.67a5.46,5.46,0,0,0,.45-1.84h0a.49.49,0,0,1,1,0,6,6,0,0,1-.22,2.32,3.61,3.61,0,0,1-1.64,2c-.71.42-1.4.65-1.85.95A1.49,1.49,0,0,0,2,20.19a1.84,1.84,0,0,0,0,.41V21c0-.2-.14-.23-.11-.15a.55.55,0,0,0,.2.27,6,6,0,0,0,1.82.62A18.32,18.32,0,0,0,8,22.11a19.55,19.55,0,0,0,4.13-.4,7.64,7.64,0,0,0,1.84-.6.34.34,0,0,0,.22-.26c0-.11-.12-.11-.15.1s0,0,0,0v-.11a1.55,1.55,0,0,0,0-.22,1.84,1.84,0,0,0,0-.41,1.5,1.5,0,0,0-.72-1.14c-.44-.29-1.14-.52-1.85-.94a3.61,3.61,0,0,1-1.64-2,6,6,0,0,1-.22-2.32.48.48,0,0,1,.53-.44.49.49,0,0,1,.44.43Z"/><path class="cls-2" d="M8,14.11A3.52,3.52,0,0,0,10.68,12a8.15,8.15,0,0,0,1-3.62A5.18,5.18,0,0,0,10.85,5a2.68,2.68,0,0,0-1.23-.86A4.44,4.44,0,0,0,8,3.91,3.22,3.22,0,0,0,5.18,5.06,5.29,5.29,0,0,0,4.45,8.4,8.4,8.4,0,0,0,5.39,12,3.61,3.61,0,0,0,8,14.11ZM8,15a3.49,3.49,0,0,1-2.14-.82,6.27,6.27,0,0,1-1.43-1.66,9.81,9.81,0,0,1-1.37-4,6.58,6.58,0,0,1,.74-4.4A4.3,4.3,0,0,1,5.7,2.54,6.11,6.11,0,0,1,8,2.09a5.7,5.7,0,0,1,2.3.44,4,4,0,0,1,1.87,1.61,6.51,6.51,0,0,1,.66,4.37,10.07,10.07,0,0,1-1.33,4,6.23,6.23,0,0,1-1.4,1.64A3.44,3.44,0,0,1,8,15Z"/></g><g id="Gender-Free-2" data-name="Gender-Free"><path class="cls-2" d="M19.69,9.88a3.58,3.58,0,0,0,.3,1.23,1.52,1.52,0,0,0,.78.72,13.78,13.78,0,0,1,1.34.55,2.25,2.25,0,0,1,1.1,1.48,3.54,3.54,0,0,1,.1.9.82.82,0,0,1-.47.66l-.46.19a6,6,0,0,1-1.5.32c-1,.08-1.92.13-2.88.12s-1.91,0-2.88-.11a7.42,7.42,0,0,1-1.52-.3,1.6,1.6,0,0,1-.47-.19.91.91,0,0,1-.44-.69,3.14,3.14,0,0,1,.1-.9,2.22,2.22,0,0,1,1.1-1.48,13.78,13.78,0,0,1,1.34-.55,1.52,1.52,0,0,0,.78-.72,3.83,3.83,0,0,0,.3-1.23.33.33,0,0,1,.36-.29.32.32,0,0,1,.29.29,3.83,3.83,0,0,1-.14,1.56,2.45,2.45,0,0,1-1.1,1.31c-.47.28-.93.43-1.23.63a1,1,0,0,0-.48.75,3.21,3.21,0,0,0,0,.51c0-.15-.1-.16-.08-.11a.44.44,0,0,0,.13.18,4.17,4.17,0,0,0,1.22.41A12.58,12.58,0,0,0,18,15.4a12.73,12.73,0,0,0,2.76-.27,4.85,4.85,0,0,0,1.22-.4.23.23,0,0,0,.14-.17c0-.07-.08-.07-.1.08a3.21,3.21,0,0,0,0-.51,1,1,0,0,0-.48-.75c-.3-.2-.76-.35-1.23-.64a2.39,2.39,0,0,1-1.1-1.3A3.83,3.83,0,0,1,19,9.88a.32.32,0,0,1,.35-.29A.33.33,0,0,1,19.69,9.88Z"/><path class="cls-2" d="M18,10.05a2.3,2.3,0,0,0,1.77-1.37,5.44,5.44,0,0,0,.64-2.41,3.49,3.49,0,0,0-.54-2.22A2.27,2.27,0,0,0,18,3.32a2.11,2.11,0,0,0-1.85.74,3.45,3.45,0,0,0-.48,2.2,5.46,5.46,0,0,0,.61,2.39A2.38,2.38,0,0,0,18,10.05Zm0,.65a3,3,0,0,1-2.4-1.65,6.69,6.69,0,0,1-.93-2.7,4.46,4.46,0,0,1,.5-3,2.82,2.82,0,0,1,1.28-1.06,4.15,4.15,0,0,1,3.1,0A2.79,2.79,0,0,1,20.81,3.4a4.37,4.37,0,0,1,.44,2.94A6.71,6.71,0,0,1,20.35,9a4.25,4.25,0,0,1-.93,1.1A2.27,2.27,0,0,1,18,10.7Z"/></g></g></svg>